<?xml version="1.0" standalone="no"?>
<!DOCTYPE svg PUBLIC "-//W3C//DTD SVG 1.1//EN" "http://www.w3.org/Graphics/SVG/1.1/DTD/svg11.dtd">
<svg xmlns="http://www.w3.org/2000/svg">
<metadata>Generated by Fontastic.me</metadata>
<defs>
<font id="128t" horiz-adv-x="512">
<font-face font-family="128t" units-per-em="512" ascent="480" descent="-32"/>
<missing-glyph horiz-adv-x="512" />

<glyph glyph-name="network-switch" unicode="&#99;" d="M413 472l-314 0c-35 0-64-28-64-62l0-315c0-35 29-62 64-62l314 0c35 0 64 29 64 62l0 315c0 36-29 62-64 62z m-159-320l-33-33-102 102 102 101 33-33-66-66z m37 33l-33 33 66 67-66 66 33 33 102-102z"/>
<glyph glyph-name="system-configuration" unicode="&#100;" d="M484 107l-194 194c19 49 9 106-32 147-43 43-107 51-158 28l92-92-64-64-94 92c-25-51-15-115 28-158 40-41 98-51 147-32l194-194c9-9 22-9 30 0l49 49c11 8 11 23 2 30z"/>
<glyph glyph-name="128t-cli" unicode="&#102;" d="M422 107l0 256-341 0 0-256 341 0m0 341c24 0 43-19 43-43l0-298c0-24-19-43-43-43l-341 0c-23 0-43 19-43 43l0 298c0 24 20 43 43 43l341 0m-192-211l24 0-2-19-24 0-4-28-17 0 4 28-28 0-4-28-19 0 4 28-23 0 2 19 23 0 5 25-24 0 2 20 24 0 4 27 19 0-4-27 26 0 4 27 19 0-4-27 23 0-2-20-23 0z m-40 25l-4-25 25 0 4 25z m72-106l0 15 99 0 0-15z"/>
<glyph glyph-name="128t-controllerroutercombo" unicode="&#104;" d="M256 488c-126 0-228-103-228-229 0-125 102-228 228-228 126 0 228 103 228 228 0 126-102 229-228 229z m-100-279c0-2-3-4-5-4l-30 0c-2 0-4 2-4 4l0 110c0 2 2 4 4 4l108 0c2 0 4-2 4-4l0-30c0-2-2-4-4-4l-60 0c-7 0-11-7-11-14l0-62z m159 30l0-30c0-2-2-4-4-4l-110 0c-2 0-4 2-4 4l0 30c0 2 2 4 4 4l62 0c11 0 14 5 14 14l0 62c0 2 2 4 4 4l30 0c2 0 4-2 4-4z m80-30c0-2-2-4-4-4l-28 0c-2 0-4 2-4 4l0 30c0 2 2 4 4 4l28 0c2 0 4-2 4-4z m0 80c0-2-2-4-4-4l-28 0c-2 0-4 2-4 4l0 30c0 2 2 4 4 4l28 0c2 0 4-2 4-4z"/>
<glyph glyph-name="network-firewall" unicode="&#106;" d="M26 326c20 0 105 0 124 0 10 0 15 5 15 14 0 23 0 45 0 67 0 10-5 15-15 15-42 0-82 0-124 0-12 0-15-5-17-15 0-22 0-42 0-64 0-12 5-17 17-17z m251-23c-84 0-169 0-253 0-10 0-15-5-15-15 0-22 0-44 0-67 0-10 5-15 15-15 67 0 134 0 201 0 2 13 5 23 10 33 10 27 27 47 42 64z m-127-117c-19 0-104 0-126 0-10 0-15-5-15-14 0-23 0-45 0-68 0-9 5-14 15-14 42 0 84 0 126 0 10 0 15 5 15 14 0 23 0 45 0 68 0 9-5 14-15 14z m182 212c0 5 0 7 0 12l0 12c-18 0-117 0-129 0-10 0-15-5-15-15 0-22 0-42 0-64 0-12 5-17 17-17 30 0 62 0 92 0 0 0 0 0 2 2 18 17 28 40 33 70z m-105-221c0 2 0 7 0 9-7 0-14 0-22 0-10 0-15-5-15-14 0-23 0-43 0-65-2-12 3-17 15-17 25 0 50 0 75 0-28 22-45 52-53 87z m25 4c8-34 25-62 57-79 10-5 20-10 33-12l2 0-2 12c-3 12-5 25-5 37 2 15 7 28 20 42 12 15 22 30 29 45l15 28 13-28c5-10 7-17 10-27 10-37 10-67-5-95l-5-7 7 5c3 2 8 5 10 7 8 5 17 10 25 15 30 23 45 53 47 87 3 35-7 70-30 105-25 39-59 72-109 101 0 0-2 0-2 3l-3 0 0-10c0-5 0-10-2-15-5-35-18-64-40-87-5-5-13-12-18-17-14-18-32-37-39-60-8-20-10-35-8-50z"/>
<glyph glyph-name="network-dpi" unicode="&#107;" d="M436 277c-21 21-48 30-74 30-3 0-7 0-10-2-23-2-46-12-64-30-17-17-28-42-29-65-2-22 3-43 15-64 2-2 2-4 2-4l-100-100 30-30 102 102c17-11 37-16 56-16 26 0 54 11 73 30 39 42 39 109-1 149z m-9-105c-4-7-9-14-14-21-5-5-12-9-18-12-10-6-22-9-35-9-12 0-22 3-33 9-7 3-12 7-18 12-28 28-28 75 0 105 15 14 34 21 53 21 2 0 5 0 7 0 16-2 33-9 46-21 21-25 26-58 12-84z m-44 54l-44 0 0-44 44 0z m-38 97l-83 143c-12 21-31 21-44 0l-165-284c-12-21-3-38 22-38l177 0 1 2c-24 47-17 105 21 143 20 20 44 30 71 34z m-171-78l-24 0 0 27 26 0 0-27z m53 0l-26 0 0 27 26 0z"/>
<glyph glyph-name="network-dns-server" unicode="&#108;" d="M200 380l0 49c0 15-11 28-33 28l-67 0 0-106 67 0c20 0 31 13 33 29z m-44-5l-25 0 0 56 27 0c7 0 9-2 9-9l0-38c0-7-2-9-11-9z m91-24l-36 0 0 106 25 0c7 0 7 0 9-2 2-2 29-40 35-51l0 53 32 0 0-106-23 0c-4 0-6 0-9 4l-33 49z m127-5c-18 0-53 2-53 2l0 25 51 0c6 0 9 2 9 7l0 6c0 2 0 2-3 5-2 0-24 4-26 4-23 5-31 5-31 25l0 9c0 17 8 28 37 28 18 0 49-2 49-2l0-24-49 0c-2 0-4 0-4-5l0-2c0-2 2-2 4-4 0 0 32-5 32-7 20-5 22-11 22-27l0-11c0-20-9-29-38-29z m80-40l-394 0c2 0 5 2 7 2l378 0c5 0 7 0 9-2z m-125-214c0 14-11 25-24 25l-25 0 0 47 165 0c14 0 25 11 25 24l0 96c0 9-7 18-16 22l-394 0c-9-4-15-11-15-22l0-96c0-13 11-24 24-24l165 0 0-47-23 0c-13 0-24-11-24-25l-165 0 0-46 165 0c0-14 11-25 24-25l94 0c13 0 24 11 24 25l165 0 0 46z m-189 121l-47 0 0 46 47 0z m71 0l-24 0 0 46 24 0z"/>
<glyph glyph-name="network-device-interface" unicode="&#110;" d="M396 469l-276 0c-40 0-73-34-73-74l0-276c0-40 33-73 73-73l274 0c40 0 74 33 74 73l0 276c0 40-32 74-72 74z m-17-301l-242 0 0 136 70 0 0 45 101 0 0-45 71 0z m-69 82l21 0 0-32-21 0z m-125 0l22 0 0-32-22 0z m40 0l22 0 0-32-22 0z m43 0l21 0 0-32-21 0z"/>
<glyph glyph-name="network-ethernet" unicode="&#103;" d="M393 474l-282 0c-41 0-75-34-75-75l0-282c0-42 34-76 75-76l282 0c42 0 76 34 76 76l0 282c-2 41-34 75-76 75z m-216-301l-70 85 70 85 21-17-57-68 57-68z m36 72l-27 0 0 26 27 0z m52 0l-26 0 0 26 26 0z m27 26l26 0 0-26-26 0z m36-98l-21 17 56 68-56 68 21 17 69-85z"/>
<glyph glyph-name="128t-control" unicode="&#112;" d="M486 420c0 37-30 64-65 64l-330 0c-35 0-65-27-65-64l0-328c0-37 30-64 65-64l328 0c37 0 64 29 64 64z m-365-328l0 147-35 0 0 30 35 0 0 156 29 0 0-154 35 0 0-30-35 0 0-147z m119 0l0 271-35 0 0 30 35 0 0 32 30 0 0-30 34 0 0-30-34 0 0-271z m188 27l-34 0 0-27-30 0 0 27-35 0 0 30 35 0 0 276 30 0 0-276 34 0z"/>
<glyph glyph-name="network-secure" unicode="&#114;" d="M36 317c-11 0-20-9-20-21l0-80c0-12 9-21 20-21l306 0c-15 28-24 68-24 122z m62-81l-41 0 0 40 41 0c0 0 0-40 0-40z m62 0l-20 0 0 40 20 0z m257 102c-35 0-77-15-77-36 0-105 61-128 77-128 15 0 77 23 77 122 2 21-35 42-77 42z m-56-36c2 6 26 19 56 19l0-128c-11 2-56 25-56 109z"/>
<glyph glyph-name="datacenter-database" unicode="&#115;" d="M471 200c-135-65-287-65-421 0 0 32 0 63 0 97 189-61 242-63 421 0 0-32 0-65 0-97z m0-126c-137-61-285-61-421 0 0 33 0 67 0 101 153-70 252-74 421 0 0-34 0-68 0-101z m0 248c-135-52-287-52-421 0 0 32 0 64 0 95 136-57 288-61 421 0 0-31 0-63 0-95z m-409 118c0-2 129 83 390 19 59-10-124-71-240-52-80 10-150 35-150 33z"/>
<glyph glyph-name="128t-slice" unicode="&#116;" d="M471 405l-5 14-423 0-4-16c-9-21-12-50-12-75 0-128 103-232 228-232 125 0 227 102 227 229 0 19-2 50-11 80z m-316-111l0-60c0-2-3-4-5-4l-29 0c-3-2-7 2-7 4l0 107c0 3 2 5 4 5l110 0c2 0 4-2 4-5l0-29c2-3 0-5-4-5l-62 0c-7 0-11-4-11-13z m159-32l0-30c0-2-2-4-5-4l-109 0c-2 0-4 2-4 4l0 30c0 2 2 4 4 4l59 0c12 0 14 5 14 14l0 61c0 3 2 5 5 5l29 0c2 0 5-2 5-5l0-79z m80-28c0-2-3-4-5-4l-27 0c-2 0-5 2-5 4l0 28c0 2 3 4 5 4l25 0c2 0 4-2 4-4l0-28z m0 80c0-5-3-7-7-7l-27 0c-3 0-5 2-5 5l0 29c0 3 2 5 5 5l27 0c2 0 4-2 4-5l0-27z"/>
<glyph glyph-name="128t-priority" unicode="&#118;" d="M149 235l299 0 0 42-299 0m0-170l299 0 0 42-299 0m0 214l299 0 0 42-299 0m-106-128l38 0-38-44 0-20 64 0 0 22-39 0 39 44 0 20-64 0m21 42l21 0 0 86-42 0 0-22 21 0m-21-256l42 0 0-10-21 0 0-22 21 0 0-10-42 0 0-22 64 0 0 86-64 0z"/>
<glyph glyph-name="network-nac-server" unicode="&#119;" d="M191 369l-27 0c-7 0-7 0-12 5l-34 53-3 0 0-58-34 0 0 115 27 0c7 0 7 0 10-4 2 0 32-44 39-53l0 57 34 0z m93 23l-40 0-6-25-37 0c0 0 32 103 34 113 3 4 3 4 9 4l40 0c7 0 7 0 9-4 2-10 34-113 34-113l-36 0z m-33 30l26 0-9 37-5 0z m173 35l-48 0c-7 0-9-5-9-10l0-39c0-4 2-9 9-9l48 0 0-28c0 0-32-2-60-2-23 0-34 16-34 32l0 53c0 16 11 33 34 33 28 0 60-3 60-3z m-97-358c0 14-11 26-25 26l-25 0 0 48 170 0c14 0 26 12 26 25l0 97c0 14-12 26-26 26l-392 0c-13 0-25-12-25-26l0-99c0-14 12-25 25-25l171 0 0-49-25 0c-14 0-26-11-26-25l-166 0 0-48 171 0c0-10 7-19 16-24l118 0c9 5 16 14 16 24l170 0 0 48z m-195 122l-49 0 0 51 49 0z m73 0l-25 0 0 51 25 0z"/>
<glyph glyph-name="network-multilayer-switch" unicode="&#120;" d="M256 512c-140 0-255-115-255-255 0-140 115-254 255-254 140 0 255 114 255 254 0 140-115 255-255 255z m132-122l0-46-45 46z m-132 48l79-79-28-28-51 54-53-54-26 28z m-132-48l45 0-45-49z m-49-133l79 79 28-28-53-51 53-53-28-28z m49-132l0 48 48-48z m132-51l-79 81 26 26 53-51 53 53 29-28z m132 51l-48 0 48 48z m-30 51l-28 28 53 53-53 54 28 25 79-81z"/>
<glyph glyph-name="network-idp" unicode="&#121;" d="M372 148l-26 0 0 25 26 0z m0 103l-26 0 0-52 26 0z m62-126c-21-21-48-30-74-30-20 0-39 5-57 16l-103-103-30 30 101 101c-2 2-2 4-2 4-12 19-17 42-16 65 2 25 13 48 30 66 18 17 41 26 64 30 4 0 7 2 11 2 26 0 55-11 74-31 43-42 43-109 2-150z m-23 127c-12 13-30 20-46 22-2 0-5 0-7 0-20 0-37-7-53-22-29-28-29-76 0-106 5-5 12-9 17-12 11-6 24-9 34-9 13 0 23 3 36 9 7 3 12 7 17 12 7 7 11 14 14 21 16 29 11 62-12 85z m-140 34c-39-39-46-97-21-145l-2-2-179 0c-25 0-34 18-21 39l166 287c13 21 32 21 45 0l83-145c-27-4-51-14-71-34z m-101-18l-25 0 0-26 27 0 0 26z m53 0l-26 0 0-26 26 0z"/>
<glyph glyph-name="network-router" unicode="&#122;" d="M255 483c-126 0-227-101-227-227 0-126 101-227 227-227 125 0 227 101 227 227 0 126-102 227-227 227z m0-82l77-77-27-27-50 51-51-51-26 27z m-147-198l50 51-50 53 26 26 77-77-77-77z m147-92l-77 77 26 27 51-51 50 51 27-27z m149 92l-26-27-77 78 77 77 26-24-50-51z"/>
<glyph glyph-name="network-secure-network" unicode="&#97;" d="M328 81l0 5c0 14-12 23-23 23l-21 0 0 39c72 30 120 105 120 186l0 99-148 65-146-65 0-97c0-81 51-158 121-185l0-40-24 0c-14 0-23-11-23-23l0-5-171 0 0-46 171 0c0-14 12-23 23-23l95 0c14 0 24 11 24 23l173 0 0 46-171 0z m-172 248l0 79 98 41 0-120 97 0 0-23c0-49-51-109-97-121l0 144z"/>
<glyph glyph-name="system-service-group" unicode="&#65;" d="M440 130c-2-3-96-51-99-51-3 0-90 43-90 43 0 0-1 0-1 0 0 0 0 0-2 0 0 0-86-43-90-43-3 0-97 48-99 51-1 4-1 95 0 100 2 3 87 40 87 40 0 0 1 80 3 83 3 3 96 45 99 45 3 0 96-42 99-45 3-3 5-83 5-83 0 0 85-39 88-42 2-3 2-94 0-98z m-282 58l72 30-72 31-72-31z m12-80l68 34 0 56-68-29z m80 200l78 34-78 33-79-33z m11-67l69 29 0 48-69-29z m80-53l72 30-72 31-72-31z m11-80l69 34 0 56-69-29z"/>
<glyph glyph-name="system-service-route" unicode="&#66;" d="M323 92c0 12-9 24-23 24l-23 0 0 41c43 23 143 78 145 81 2 4 2 182 0 184-2 2-164 62-166 62-2 0-161-60-166-64-2-5-4-182 0-185 2-2 99-57 145-80l0-42-23 0c-11 0-23-9-23-23l-154 0 0-46 154 0c0-11 9-23 23-23l88 0c11 0 23 9 23 23l154 0 0 46-154 0z m78 157l-131-71 0 152 131 48z m-288 157l143 53 143-53-143-51z"/>
<glyph glyph-name="system-subtenant" unicode="&#69;" d="M274 176l59 0 0 60-59 0z m14 45l33 0 0-33-33 0z m-52 143l-48 0 0 48 48 0z m38-281l59 0 0 60-59 0z m14 46l33 0 0-34-33 0z m-107-46l60 0 0 60-60 0z m14 46l34 0 0-34-34 0z m134 145l-48 0 0 47 48 0z m-93 0l-48 0 0 47 48 0z m0-93l-48 0 0 48 48 0z m93 183l-48 0 0 48 48 0z m38 117l-253 0 0-460 288 0 0 460z m-217-424l0 388 217 0 0-388z"/>
<glyph glyph-name="system-tenant" unicode="&#70;" d="M378 453l-228 0 0-410 228 0z m-137-364l-45 0 0 45 45 0z m0 91l-45 0 0 45 45 0z m0 91l-45 0 0 45 45 0z m0 91l-45 0 0 45 45 0z m91-273l-45 0 0 45 45 0z m0 91l-45 0 0 45 45 0z m0 91l-45 0 0 45 45 0z m-45 91l0 45 45 0 0-45z"/>
<glyph glyph-name="network-cerouter" unicode="&#71;" d="M401 133l-30 0c-4 0-6-2-6-6l0-25c0-4 2-6 6-6l30 0 0-16c0 0-20-2-36-2-15 0-21 10-21 20l0 35c0 10 6 21 21 21 16 0 36-2 36-2z m17 68c2 0 2 0 0 0 14 24 22 53 22 84 0 106-86 192-192 192-107 0-193-86-193-192 0-107 86-193 193-193 10 0 20 2 31 2 8-45 49-78 96-78 53 0 98 45 98 99 0 37-22 69-55 86z m-68 155l23-22-43-43 43-43 0-2-21-21-2 0-65 66z m-102 58l65-66-22-22-43 43-45-43-23 22z m-127-168l43 45-43 43 22 22 66-65-66-66z m127-78l-68 65 23 23 43-43 43 43 22-23z m127-131c-23 0-41 10-56 24-2 2-2 2-4 5l-2 2c-10 12-18 30-18 49 0 37 27 67 61 76 6 2 11 2 17 2 12 0 22-2 33-9 26-12 43-39 43-69 4-45-31-80-74-80z"/>
<glyph glyph-name="network-vpn-server" unicode="&#74;" d="M305 167l-26 0 0 46 174 0c14 0 23 12 23 26l0 23-90 0c-21 0-40 16-40 39l0 60-291 0c-12 0-21-11-21-25l0-97c0-14 11-23 25-23l174 0 0-49-26 0c-13 5-23-9-23-21l-176 0 0-46 174 0c0-14 12-26 23-26l100 0c13 0 25 12 25 26l171 0 0 46-171 0c2 9-12 21-25 21z m-174 95l-49 0 0 51 49 0z m76 0l-23 0 0 51 23 0z m273 134l-7 0 0 14c0 21-16 37-39 37-21 2-39-16-39-37l0-16-7 0c-9 0-16-7-16-17l0-74c0-9 7-16 16-16l92 0c10 0 17 7 17 16l0 77c0 9-7 16-17 16z m-69 14c0 11 9 23 23 23 14 0 23-9 23-23l0-16-46 0z m23-83c-9 0-16 7-16 16 0 9 7 16 16 16 9 0 16-7 16-16 0-9-7-16-16-16z"/>
<glyph glyph-name="network-vpn-virtual" unicode="&#75;" d="M312 122l149 0 0 59-149 0c-4 12-14 21-27 21l-12 0 0 27 138 0c16 0 29 12 29 29l0 6-17 0 0-6c0-6-6-12-12-12l-155 0 0-59 29 0c7 0 13-6 13-12l0-9 146 0 0-27-146 0 0-8c0-7-6-13-13-13l-83 0c-7 0-13 6-13 13l0 8-146 0 0 27 146 0 0 9c0 6 6 12 13 12l29 0 0 59-155 0c-6 0-12 6-12 12l0 84c-2 6 4 12 12 12l274 0c0 2 0 4 0 6l2 9-276 0c-16 0-29-13-29-29l0-84c0-17 13-29 29-29l138 0 0-27-12 0c-13 0-25-9-27-21l-149 0 0-59 149 0c4-12 14-21 27-21l83 0c13 2 23 13 27 23z m-148 155l21 0 0 42-21 0z m-75 0l42 0 0 42-42 0z m311 119c0 13 11 23 23 23 13 0 23-8 23-23l0-19 19 0 0 19c0 23-19 42-42 42-23 0-42-19-42-42l0-19 21 0 0 19z m84-42l0-52c0-10-9-17-17-17l-86 0c-10 0-18 7-18 17l0 52c0 2 0 4 2 6 2 7 8 11 14 11l86 0c10 0 19-6 19-17z m-48-14c0 4-2 8-7 10-2 2-4 2-6 2-6 0-12-4-12-12 0-5 2-9 4-11l0-15c0-4 4-6 6-6 4 0 6 4 6 6l0 15c0 0 0 0 0 2 7 2 9 4 9 9z"/>
<glyph glyph-name="network-virtual-switch" unicode="&#76;" d="M108 42c-17 0-35 7-48 20-14 13-22 33-22 51l0 286c0 40 33 73 75 73l282 0c40 0 75-33 75-73l0-284c0-40-33-73-75-73l-282 0c-3 0-3 0-5 0z m5 397c-25 0-42-18-42-40l0-286c0-11 4-20 11-27 9-6 17-11 28-11l285 0c24 0 42 18 42 40l0 284c0 22-20 40-42 40z m139-276l-60 62 60 60-29 31-93-91 93-90z m4 186l60-60-60-62 31-31 93 93-95 88z"/>
<glyph glyph-name="network-network-tap" unicode="&#78;" d="M308 161l-5 0c14 0 24 12 24 23l4 0c0-14-12-23-23-23z m-127 73l2 0c0 11 10 23 24 23l-3 0c-11 0-23-9-23-23z m146 120l-141 0 70-94z m0-120l4 0c0 14-12 23-23 23l-5 0c14 0 24-12 24-23z m-123-73l3 0c-14 0-24 12-24 23l-2 0c0-14 12-23 23-23z m123 73c0 11-10 23-24 23l-96 0c-14 0-24-12-24-23l-174 0 0-50 174 0c0-11 10-23 24-23l96 0c14 0 24 12 24 23l176 0 0 50z"/>
<glyph glyph-name="system-health" unicode="&#79;" d="M139 237l104 113 22-148 66 110 49-75 55 0c26 36 39 69 39 106 0 69-52 122-121 122-37 0-75-18-99-47-24 27-62 44-102 44-68 0-121-53-121-121 0-35 15-71 40-104z m225-26l-33 53-82-137-24 165-75-81-57 0c33-38 75-77 128-124l33-29 31 29c50 47 95 86 128 124 0 0-49 0-49 0z"/>
<glyph glyph-name="system-service" unicode="&#80;" d="M462 161c-2-5-200-114-206-114-6 0-201 107-206 114-2 6-2 224 2 228 5 7 200 80 204 80 4 0 199-73 204-78 4-6 4-224 2-230z m-206 146l176 65-176 66-176-66z m17-218l161 88 0 162-161-59z"/>
<glyph glyph-name="network-policy-server" unicode="&#82;" d="M209 39l94 0c4 0 6 0 9 2l-112 0c3-2 5-2 9-2z m29 358l34 0c20 0 31 14 31 29l0 20c0 16-9 29-31 29l-65 0 0-107 31 0z m0 52l25 0c6 0 9-5 9-9l0-9c0-5-3-9-9-9l-25 0z m89-339c0 14-11 25-24 25l-25 0 0 46 165 0c13 0 24 12 24 25l0 96c0 13-11 24-24 24l-378 0c-14 0-25-11-25-24l0-96c0-13 11-25 25-25l164 0 0-46-20 0c-13 0-24-11-24-25l-165 0 0-49 165 0c0-9 6-18 15-22l114 0c9 4 15 13 15 22l165 0 0 47-165 0 0 2z m-189 118l-47 0 0 47 47 0z m71 0l-24 0 0 47 24 0z"/>
<glyph glyph-name="network-nic" unicode="&#84;" d="M468 333c-13 18-32 23-55 23-92 0-181 0-273 0-5 0-9 0-14 0 0 18 0 34 0 50 0 28-9 51-34 67-23 11-46 7-69 7 0-12 0-23 0-35 11 0 21 0 30 0 27 0 39-9 39-36 0-3 0-7 0-10 0-32 0-61 0-94l50 0 0-46-50 0c0-23 0-45 0-68l50 0 0-46-50 0c0-37 0-74 0-111 0-4 0-9 0-13 11 0 23 0 34 0 0 4 0 7 0 11 0 16 0 32 0 51 0 7 3 11 9 11 23 0 46 0 69 0 3 0 7 0 10 0 0-18 0-34 0-50 64 0 128 0 192 0 0 13 0 27 0 41 0 9 3 11 12 14 32 2 60 30 60 62 0 46 0 94 0 140 4 9 0 20-10 32z m-218-278c-16-2-16-2-16 16 0 12 0 25 0 37 7 0 12 0 19 0-3-16-3-53-3-53z m37 2c-5 0-11 0-18 0 0 19 0 35 0 53 7 0 11 0 18 0 0-18 0-37 0-53z m34 3c0-3-2-3-4-5-5 0-7 0-12 0 0 18 0 35 0 53 7 0 12 0 19 0 0-16 0-32-3-48z m37 0c0-3-2-5-4-5-5 0-10 0-14 0 0 18 0 35 0 53 4 0 11 0 18 0 0-16 0-32 0-48z m35-3c0 0 0-2 0 0-19-2-19-2-19 14 0 12 0 25 0 39 7 0 12 0 19 0 0-18 0-37 0-53z m18 117c0-6-5-11-12-11l-96 0c-7 0-11 5-11 11l0 44-60 0c-2-11-14-18-25-18-14 0-26 11-26 25 0 14 12 25 26 25 11 0 18-7 23-14l59 0 0 40c0 6 5 11 12 11l96 0c7 0 12-5 12-11l0-102z"/>
<glyph glyph-name="network-network-user" unicode="&#85;" d="M182 164l23 0 0-37-23 0z m-49 0l23 0 0-37-23 0z m367-88l0-49-174 0c0-14-9-26-23-26l-98 0c-12 0-23 12-23 26l-170 0 0 49 172 0c0 14 9 25 23 25l23 0 0 42-151 0 0 30c0 59 119 91 177 91 58 0 177-32 177-91l0-30-151 0 0-42 23 0c12 0 23-11 25-25z m-244 246c49 0 88 40 88 89 0 49-39 88-88 88-49 0-88-39-88-88 0-49 39-89 88-89z"/>
<glyph glyph-name="network-network-server" unicode="&#86;" d="M327 185c0 13-11 24-24 24l-25 0 0 47 165 0c13 0 24 11 24 24l0 96c0 9-6 18-15 22l-394 0c-9-4-16-11-16-22l0-96c0-13 11-24 25-24l165 0 0-47-23 0c-13 0-24-11-24-24l-165 0 0-47 165 0c0-13 11-24 24-24l94 0c13 0 24 11 24 24l165 0 0 47z m-189 120l-47 0 0 47 47 0z m71 0l-24 0 0 47 24 0z"/>
<glyph glyph-name="network-network-interface" unicode="&#87;" d="M325 89c0 11-9 23-24 23l-23 0 0 51 86 0c31 0 57 26 57 57l0 218c0 31-26 57-57 57l-218 0c-31 0-57-26-57-57l0-220c0-31 26-58 57-58l86 0 0-50-24 0c-12 0-24-10-24-24l-160 0 0-48 163 0c0-12 9-24 24-24l93 0c12 0 24 10 24 24l162 0 0 48-165 0z m-165 275l55 0 0 36 82 0 0-36 55 0 0-110-192 0z m39-43l16 0 0-24-16 0z m33 0l17 0 0-24-17 0z m34 0l16 0 0-24-16 0z m31 0l16 0 0-24-16 0z"/>
<glyph glyph-name="network-security-policy" unicode="&#88;" d="M301 78c24 0 44 20 44 44l0 290-156 0c-13 0-22-9-22-22l0-223-67 0 0 245c0 38 29 67 67 67l245 0c38 0 67-29 67-67l0-22-89 0 0-290c0-38-29-67-67-67l-223 0c-38 0-67 29-67 67l0 22 223 0c0-24 20-44 45-44z m-45 260l-67-31 0-44c0-40 29-80 67-89 38 9 67 49 67 89l0 44z m0-82l51 0c-4-31-24-58-51-67l0 67-51 0 0 42 51 23c0 0 0-65 0-65z"/>
<glyph glyph-name="system-network" unicode="&#73;" d="M433 215c5-21 11-43 17-64 1-5 1-10 3-15 1 0-2-6 0-6 16 24 28 56 35 86-14 15-34 14-52 18l-1-2c-1-1-1-2-2-2-4-6-2-10 0-15z m-79 16c-46-4-109-39-127-62 5-8 7-17 7-27 0-15-6-27-16-36 0 0 0-1-1-1 22-31 52-56 87-75 40 7 78 27 111 57 9 9 14 19 13 30-2 17-3 33-7 49-3 16-6 31-17 46-4-1-8-1-11-1-15-1-30 8-39 20z m-169-139c-5 0-10 2-15 3-6-16-12-31-18-48 35-17 68-26 108-23-23 23-45 46-68 68-3 0-5 0-7 0z m305 155c0 11 0 20 0 30-4 81-61 174-162 205-10 3-18 4-26-2-17-12-33-22-48-34-12-10-24-23-34-38 7-6 12-15 13-25 56-12 105-41 145-81 5 3 11 4 17 4 25 0 44-19 48-41 1-3 1-4 2-7 14-3 28-7 45-11z m-337-67c-14 52-14 105 2 157-7 6-13 15-16 24-36-5-68-16-100-35-6-4-10-10-11-18-5-28-9-57-4-87 10-65 43-116 95-155 3-2 8-4 11-5 7 16 13 30 19 46-9 9-14 22-14 35-1 15 7 29 18 38z m202 107c-21 31-98 74-123 70-2-1-3-2-4-4-9-15-24-25-43-25-1 0-2 0-3 0-2 0-3-1-5-1-13-45-15-90-2-135 3 0 7 2 9 2 8 0 15-3 23-5l1 0c39 36 86 58 139 69l0 2c0 8 3 18 8 27z m-170 136c4 0 8 0 12-1 11 13 21 24 32 35 11 11 24 21 38 33-15 5-28 2-40 1-78-10-136-50-175-118-1-2-1-6-3-8 30 8 58 17 90 26 6 19 25 32 46 32z"/>
<glyph glyph-name="128t-gui" unicode="&#105;" d="M456 480l-400 0c-25 0-45-20-45-45l0-267c0-24 20-44 45-44l155 0-44-67 0-22 178 0 0 22-44 67 155 0c25 0 45 20 45 44l0 267c0 25-20 45-45 45z m0-267l-400 0 0 222 400 0z m-354 49l0 120c0 4 3 6 7 6l120 0c3 0 5-2 7-6l0-31c0-5-2-7-7-7l-69 0c-6 0-13-5-13-16l0-66c0-5-2-7-7-7l-31 0c-4 0-7 2-7 7z m272 126l31 0c5 0 7-2 7-6l0-31c0-5-2-7-7-7l-31 0c-2 2-7 4-7 7l0 31c0 4 3 6 7 6z m38-93l0-31c0-5-2-7-7-7l-31 0c-2 0-7 2-7 7l0 31c0 4 3 7 7 7l31 0c5 0 7-3 7-7z m-127 93l31 0c5 0 7-2 7-6l2 0 0-120c-2-3-4-5-7-5l-120 0c-4 0-7 2-7 7l0 31c0 2 3 7 5 4l67 0c11 0 15 7 15 16l0 67c0 4 2 6 7 6z"/>
<glyph glyph-name="network-port-range" unicode="&#117;" d="M284 273l-62-107c11-2 23-4 34-4 38 0 73 13 100 36l-57 101m-194-26c14-47 49-83 93-100l58 100m-55 47l-62 107c-26-28-43-66-43-107 0-11 2-21 2-32l120 0m194 64l-120 0 5-9 74-130c26 28 43 66 43 107 0 11 0 21-2 32m-5 15c-14 47-49 83-93 100l-58-100m-41-24l75 131c-11 2-23 4-34 4-38 0-73-13-100-36z m210-226c0-47-75-83-169-83-94 0-169 39-169 83 0 24 20 45 50 60 6-6 14-11 21-15-19-8-30-21-30-34 0-30 58-53 126-53 70 0 126 23 126 53 0 13-11 26-30 34 8 4 15 11 21 15 34-15 54-36 54-60z"/>
<glyph glyph-name="network-syslog-server" unicode="&#90;" d="M93 270l0-46 47 0 0 46z m94-46l24 0 0 46-24 0z m91-94l23 0c13 0 24-11 24-24l165 0 0-47-165 0c0-13-11-24-24-24l-92 0c-13 0-24 11-24 24l-163 0 0 47 165 0c0 13 11 24 24 24l23 0 0 47-165 0c-13 0-22 11-22 24l0 94c0 13 11 24 22 24l374 0c13 0 22-11 22-24l0-94c0-13-11-24-22-24l-165 0z m-178 345l34 0 0-84 51 0 0-27-85 0z m96-82l0 51c0 16 11 31 33 31l38 0c22 0 34-13 34-31l0-51c0-16-12-31-34-31l-38 0c-22 2-33 15-33 31z m33 47l0-40c0-5 3-9 9-9l18 0c7 0 9 4 9 9l0 40c0 4-2 9-9 9l-18 0c-6 0-9-5-9-9z m132-11l53 0-2-58c0-5-5-7-5-7 0 0-35-2-60-2-22 0-33 13-33 31l0 53c0 16 11 31 33 31 27 0 60-2 60-2l0-26-51 0c-7 0-11-5-11-9l0-40c0-5 2-9 9-9l27 0 0 13-23 2 0 23z"/>
<glyph glyph-name="network-virtual-router" unicode="&#89;" d="M257 479c-122 0-222-100-222-222 0-122 100-222 222-222 122 0 222 100 222 222 0 122-100 222-222 222z m0-417c-106 0-195 87-195 195 0 106 87 195 195 195 106 0 195-86 195-195-2-108-89-195-195-195z m-49 233l-24 22 71 71 71-71-25-24-46 46z m96-78l24-24-71-71-71 71 25 24 46-46z m-89 38l-71-71-24 24 46 47-46 49 24 24z m177 49l-46-47 46-46-24-25-71 71 71 71z"/>
<glyph glyph-name="network-ntp-server" unicode="&#77;" d="M196 362l-27 0c-6 0-6 0-11 4l-33 51-3 0 0-55-33 0 0 111 27 0c6 0 6 0 9-4 2 0 31-43 38-52l0 56 33 0z m113 84l-35 0 0-84-34 0 0 84-33 0 0 27 102 0z m43-84l-34 0 0 111 67 0c22 0 34-13 34-29l0-22c0-16-12-29-34-29l-33 0z m35 67l0 8c0 5-2 9-9 9l-24 0 0-29 24 0c7 3 9 5 9 12z m-298-161l0-47 47 0 0 47z m94-47l24 0 0 47-24 0z m93-93l22 0c14 0 25-11 25-24l165 0 0-47-165 0c0-14-11-25-25-25l-91 0c-13 0-24 11-24 25l-163 0 0 49 165 0c0 13 11 24 24 24l23 0 0 47-165 0c-14 0-22 11-22 24l0 92c0 13 11 24 22 24l374 0c13 0 22-11 22-24l0-94c0-13-11-24-22-24l-165 0z"/>
<glyph glyph-name="network-dhcp-server" unicode="&#48;" d="M327 92c0 14-11 25-24 25l-25 0 0 47 165 0c13 0 24 11 24 24l0 96c0 9-6 18-15 22l-394 0c-9-4-13-11-13-22l0-96c0-13 11-24 24-24l165 0 0-47-25 0c-13 0-24-11-24-25l-165 0 0-46 165 0c0-14 11-25 24-25l94 0c13 0 24 11 24 25l165 0 0 46z m-189 121l-47 0 0 46 47 0z m71 0l-24 0 0 46 24 0z m-162 242l64 0c23 0 34-13 34-29l0-49c0-15-11-29-34-29l-64 0z m64-35c0 6-2 9-9 9l-24 0 0-56 24 0c7 0 9 2 9 9z m47 35l31 0 0-38 38 0 0 38 31 0 0-107-31 0 0 40-38 0 0-42-31 0z m198-26l-44 0c-7 0-9-5-9-9l0-36c0-4 2-9 9-9l44 0 0-24c0 0-29-3-53-3-23 0-31 14-31 29l0 49c0 16 11 29 31 29 24 0 53-2 53-2z m45-81l-31 0 0 107 64 0c22 0 31-13 31-29l0-20c0-15-11-29-31-29l-33 0z m33 63l0 9c0 4-2 9-9 9l-24 0 0-27 24 0c7 0 9 4 9 9z"/>
<glyph glyph-name="system-service-class" unicode="&#49;" d="M257 444c3 0 179-66 181-71 3-5 3-200 0-205-2-5-178-100-183-100-6 0-181 97-184 100-3 5-3 200 0 205 8 5 181 71 186 71m0-145l158 58-158 58-157-58 157-58m13-194l145 79 0 144-145-52 0-171m-13 381c-8 0-10 0-105-37-99-39-102-39-110-53-10-10-13-13-13-126 0-110 0-112 8-123 8-10 8-13 107-68 98-53 100-53 113-53 13 0 16 0 113 53 100 55 100 55 108 68 8 11 8 13 8 123 0 113-3 113-11 126-8 14-10 14-110 53-97 37-100 37-108 37z"/>
<glyph glyph-name="system-syslog" unicode="&#68;" d="M446 91l0 283-376 0 0-283 376 0m0 379c26 0 47-22 47-47l0-332c0-25-21-46-47-46l-376 0c-28 0-49 21-49 46l0 330c0 27 21 49 49 49l376 0m-236-168l143 0 0-22-143 0 0 22m0-83l0 21 143 0 0-21-143 0m-32 87c9 0 15-6 15-15 0-8-6-15-15-15-8 0-14 7-14 15 0 9 6 15 14 15m0-62c9 0 15-6 15-15 0-8-6-14-15-14-8 0-14 6-14 14 0 9 6 15 14 15m32-87l0 21 143 0 0-21-143 0m-32 26c9 0 15-7 15-15 0-9-6-15-15-15-8 0-14 6-14 15 0 8 6 15 14 15z"/>
<glyph glyph-name="system-session-type" unicode="&#50;" d="M346 446l0-184-233 0-9-9-35-35 0 228 277 0m11 35l-299 0c-14 0-23-9-23-23l0-323 92 92 230 0c14 0 24 9 24 23l0 208c0 14-10 23-24 23z m116-92l-46 0 0-208-300 0 0-46c0-14 9-23 23-23l254 0 92-92 0 346c0 13-9 23-23 23z"/>
<glyph glyph-name="network-pe-router" unicode="&#72;" d="M418 201c2 0 2 0 0 0 14 24 22 53 22 84 0 106-86 192-192 192-107 0-193-86-193-192 0-107 86-193 193-193 10 0 20 2 31 2 8-45 49-78 96-78 53 0 98 45 98 99 0 37-22 69-55 86z m-68 155l23-22-43-43 43-43 0-2-21-21-2 0-65 66z m-102 58l65-66-22-22-43 43-45-43-23 22z m-127-168l43 45-43 43 22 22 66-65-66-66z m127-78l-68 65 23 23 43-43 43 43 22-23z m127-131c-23 0-41 10-56 24-2 2-2 2-4 5l-2 2c-10 12-18 30-18 49 0 37 27 67 61 76 6 2 11 2 17 2 12 0 22-2 33-9 26-12 43-39 43-69 4-45-31-80-74-80z m12 115l-43 0 0-72 21 0 0 20 22 0c14 0 23 9 23 19l0 14c0 10-9 19-23 19z m0-29c0-4-2-6-6-6l-16 0 0 18 16 0c4 0 6-2 6-6z"/>
<glyph glyph-name="network-ntp-server-2" unicode="&#83;" d="M196 362l-27 0c-6 0-6 0-11 4l-33 51-3 0 0-55-33 0 0 111 27 0c6 0 6 0 9-4 2 0 31-43 38-52l0 56 33 0z m113 84l-35 0 0-84-34 0 0 84-33 0 0 27 102 0z m43-84l-34 0 0 111 67 0c22 0 34-13 34-29l0-22c0-16-12-29-34-29l-33 0z m35 67l0 8c0 5-2 9-9 9l-24 0 0-29 24 0c7 3 9 5 9 12z m-298-161l0-47 47 0 0 47z m94-47l24 0 0 47-24 0z m93-93l22 0c14 0 25-11 25-24l165 0 0-47-165 0c0-14-11-25-25-25l-91 0c-13 0-24 11-24 25l-163 0 0 49 165 0c0 13 11 24 24 24l23 0 0 47-165 0c-14 0-22 11-22 24l0 92c0 13 11 24 22 24l374 0c13 0 22-11 22-24l0-94c0-13-11-24-22-24l-165 0z"/>
<glyph glyph-name="system-service-policy" unicode="&#98;" d="M477 410l0-22-89 0 0-286c0-38-28-67-66-67l-220 0c-38 0-67 29-67 67l0 22 221 0c0-25 20-45 44-45 24 0 44 20 44 45l0 286-154 0c-13 0-22-8-22-22l0-220-66 0 0 242c0 38 28 67 66 67l242 0c38 0 67-29 67-67z m-155-112c2-2 2-71 0-73-2-2-64-35-66-35-2 0-64 35-66 35 0 2 0 71 0 73 2 2 64 24 66 24 2 0 64-22 66-24z m-66-27l55 20-2 0 2 0-24 9-31 13-55-22 24-9z m57 11l-50-19 0-60 15 9 35 18z"/>
<glyph glyph-name="network-next-hop" unicode="&#109;" d="M456 190c20 0 35-17 35-35 0-18-17-34-35-34-20 0-35 16-35 34 0 18 15 35 35 35m0 144l-28-121-121 28 66 41c-25 40-69 66-119 66-69 0-127-49-138-117l-35 7c15 82 86 145 173 145 63 0 119-33 151-82z m-428-179l0-34 140 0 0 34z"/>
<glyph glyph-name="server-generic" unicode="&#113;" d="M56 283l0-54 57 0 0 54z m116-54l28 0 0 54-28 0z m-144 110l456 0c15 0 28-13 28-28l0-110c0-15-13-28-28-28l-456 0c-15 0-28 13-28 28l0 110c0 15 13 28 28 28z"/>
<glyph glyph-name="network-redundancy-group" unicode="&#111;" d="M500 414l0-316c0-47-39-86-86-86l-316 0c-47 0-86 39-86 86l0 316c0 47 39 86 86 86l316 0c47 0 86-39 86-86z m-168-136l17 0 0 37 58-59-58-59 0 35-78 0 0 46z m95-22l-95 95 0-58-154 0 0 58-95-95 95-95 0 58 151 0 0-58z"/>
<glyph glyph-name="network-redundancy" unicode="&#67;" d="M500 414l0-316c0-47-39-86-86-86l-316 0c-47 0-86 39-86 86l0 316c0 47 39 86 86 86l319 0c46 0 83-39 83-86z m-181-43l54 0 0 24 46-39-44-39 0 24-97 0 0 30z m115-17l-76 65 0-39-82 0 0 39-20 20-20-20 0-80-82 0 0 44-76-68 76-66 0 41 82 0 0-180c-19 0-36-17-36-37l110 0c0 20-17 37-37 37l0 217 85 0 0-39z"/>
<glyph glyph-name="ic-network-redundancy-group" unicode="&#67;" d="M17 350l39 0 0-248c29 0 229 0 229 0l0-39-216 0c-29 0-52 25-52 52m177 148l14 0 0 23-15 0 0-23z m30 0l16 0 0 23-16 0z m59 0l16 0 0 23-16 0z m114-47l0 175c0 30-24 52-52 52l-199 0c-30 0-52-24-52-52l0-199c0-30 24-52 52-52l184 0c2 38 31 71 67 76z m-239 109l50 0 0 32 73 0 0-32 51 0 0-99-174 0z m95-62l16 0 0 23-16 0z m245-128l-21 0c0-32-26-58-57-58-12 0-23 4-31 9l10 10c5-3 12-5 21-5 24 0 43 19 43 44l-20 0 29 29m-75-29l-29-30-30 30 21 0c0 31 26 57 58 57 12 0 22-4 31-9l-11-10c-5 3-12 5-20 5-25 0-44-19-44-43"/>
<glyph glyph-name="ic-network-redundancy" unicode="&#81;" d="M180 293l18 0 0-29-18 0z m-35-29l19 0 0 29-19 0z m71 0l19 0 0 29-19 0z m76-148l-206 0c-34 0-63 28-63 63l0 242c0 36 29 62 63 62l242 0c35 0 63-28 63-62l0-212c-51-2-91-42-99-93z m-189 105l211 0 0 120-61 0 0 39-89 0 0-39-61 0z m148 43l18 0 0 29-18 0z m240-162l-25 0c0-37-30-65-65-65-12 0-24 6-36 10l12 12c8-2 16-6 22-6 29 0 51 22 51 51l-24 0 32 32m-81-34l-33-33-34 33 26 0c0 34 31 65 65 65 12 0 25-4 37-11l-12-12c-9 2-17 4-23 4-28 0-51-22-51-50"/>
<glyph glyph-name="network-routing-protocol" unicode="&#51;" d="M500 414l0-316c0-47-39-86-86-86l-316 0c-47 0-86 39-86 86l0 316c0 47 39 86 86 86l319 0c46 0 83-39 83-86z m-181-43l54 0 0 24 46-39-44-39 0 24-97 0 0 30z m115-17l-76 65 0-39-82 0 0 39-20 20-20-20 0-80-82 0 0 44-76-68 76-66 0 41 82 0 0-180c-19 0-36-17-36-37l110 0c0 20-17 37-37 37l0 217 85 0 0-39z"/>
<glyph glyph-name="network-protocol" unicode="&#111;" d="M500 414l0-316c0-47-39-86-86-86l-316 0c-47 0-86 39-86 86l0 316c0 47 39 86 86 86l316 0c47 0 86-39 86-86z m-168-136l17 0 0 37 58-59-58-59 0 35-78 0 0 46z m95-22l-95 95 0-58-154 0 0 58-95-95 95-95 0 58 151 0 0-58z"/>
<glyph glyph-name="up-hierarchy-arrow" unicode="&#52;" d="M437 96l-192 0 0 282 77-77 30 30-128 128-128-128 30-30 77 77 0-325 234 0z"/>
<glyph glyph-name="product-node" unicode="&#53;" d="M301 297l0 45c51-18 88-68 88-125 0-8 0-18-2-27l-37 23c0 2 0 4 0 4-2 35-20 64-49 80z m-135-80c0 35 20 66 49 82l0 43c-53-16-90-68-90-125 0-10 2-18 2-29l37 23c2 2 2 4 2 6z m92-90c-16 0-33 4-47 12l-39-22c23-19 53-31 84-31 33 0 63 12 86 33l-39 22c-12-10-29-14-45-14z m186 37c-12 0-22-4-32-12l-31 16-35 20c-4-14-12-26-22-38l34-21 33-20c0-29 23-52 51-52 29 0 52 23 52 52 2 32-23 55-50 55z m-186 307c-29 0-51-22-51-51 0-21 12-39 31-47l0-66c6 0 12 0 20 0 8 0 16-2 23-2l0 68c16 10 28 26 28 47 0 29-22 51-51 51z m-88-281l-35-20-29-16c-10 8-22 14-34 14-29 0-52-23-52-51 0-29 23-51 52-51 26 0 49 20 51 47l37 20 35 21c-11 8-19 22-25 36z m96 93c-2 0-6 0-8 0-2 0-2 0-4 0l2 0c4 2 8 0 10 0z m-8-4c-35 0-61-27-61-62 0-35 26-61 61-61 35 0 61 26 61 61 0 35-26 62-61 62z"/>
<glyph glyph-name="network-address" unicode="&#54;" d="M256 267c-29 0-53 24-53 53 0 29 24 53 53 53 29 0 53-24 53-53 0-29-24-53-53-53m0 202c-82 0-149-67-149-149 0-112 149-277 149-277 0 0 149 165 149 277 0 82-67 149-149 149z"/>
<glyph glyph-name="network-address-range" unicode="&#55;" d="M256 469c71 0 128-56 128-127 0-95-128-235-128-235 0 0-128 140-128 235 0 71 57 127 128 127m0-85c-24 0-43-19-43-43 0-23 19-42 43-42 24 0 43 19 43 42 0 24-19 43-43 43m171-277c0-47-77-86-171-86-94 0-171 39-171 86 0 27 26 52 67 67l13-19c-23-10-37-23-37-38 0-29 57-53 128-53 71 0 128 24 128 53 0 15-14 28-37 38l13 19c41-15 67-40 67-67z"/>
<glyph glyph-name="network-aggregate-address" unicode="&#56;" d="M299 267c29 0 53 24 53 53 0 29-24 53-53 53-30 0-54-24-54-53 0-29 24-53 54-53m0 202c82 0 149-66 149-149 0-112-149-277-149-277 0 0-150 165-150 277 0 82 67 149 150 149m-192-149c0-96 108-227 128-252l-22-25c0 0-149 165-149 277 0 68 45 125 107 143-40-35-64-86-64-143z"/>
<glyph glyph-name="128t-brand-mark" unicode="&#101;" d="M410 338c0 4 3 9 9 9l42 0c3 0 9-3 9-9l0-42c0-3-4-9-9-9l-42 0c-4 0-9 4-9 9m0-120c0-4 3-10 9-10l42 0c3 0 9 4 9 10l0 42c0 3-4 9-9 9l-42 0c-4 0-9-4-9-9l0-42m-194 171l-165 0c-3 0-9-1-11-5l0-168c0-4 4-9 9-9l42 0c4 0 10 3 10 9l0 93c0 13 9 22 18 22l93 0c4 0 9 4 9 9l0 40c4 8 2 9-5 9z m130-9c0 4-4 9-10 9l-42 0c-3 0-9-3-9-9l0-89c0-15-3-24-22-24l-91 0c-4 0-9-2-9-9l0-42c0-4 3-9 9-9l166 0c4 0 6 3 9 5l0 168z"/>
<glyph glyph-name="product-high-availability" unicode="&#57;" d="M283 243l22 0 0-41 47 0 0 41 22 0 0-105-22 0 0 43-47 0 0-43-22 0z m180-80l-41 0-7-25-26 0c0 0 30 96 33 102 2 3 2 3 6 3l30 0c5 0 5 0 6-3 2-6 33-102 33-102l-25 0z m-35 23l30 0-12 39-4 0z m-245 145l0-78 67-40-12-18-78 46 0 90z m121 0c-26 45-73 75-130 75-83 0-150-68-150-150 0-82 67-150 150-150 28 0 55 9 78 23l0 36-2 0c-21-18-48-29-78-29-66 0-120 54-120 120 0 66 54 120 120 120 48 0 88-27 108-68l-36-36 90 0 0 90z"/>
<glyph glyph-name="128t-conductor" unicode="&#33;" d="M350 213c0-15-12-28-27-28-15 0-27 13-27 28 0 14 12 27 27 27 15 0 27-13 27-27z m-111 133c-9 0-17-7-18-17 0-10 8-18 17-18 10 0 18 8 18 17 0 10-7 18-17 18z m155 96l-276 0c-31 0-56-27-56-56l0-278c0-31 25-54 54-54l278 0c31 0 54 25 54 54l0 276c2 31-23 58-54 58z m-13-229c0-2 0-6 0-8l15-14c2-2 2-4 0-6l-15-27c0-2-4-2-4-2l-20 8c-3-4-7-6-13-8l-2-21c0-2-2-4-4-4l-31 0c-2 0-4 2-4 4l-2 21c-5 2-9 4-13 8l-19-8c-2 0-4 0-4 2l-16 27c-2 2 0 4 0 6l16 14c0 2 0 6 0 8 0 1 0 5 0 7l-16 14c-2 2-2 4 0 6l16 27c0 2 4 2 4 2l19-8c4 4 8 6 13 8l2 21c0 2 2 4 4 4l31 0c2 0 4-2 4-4l2-21c6-2 10-4 13-8l20 8c2 0 4 0 4-2l15-27c0-2 0-4 0-6l-15-14c0-2 0-4 0-7z m-155 164c0 2 2 2 2 2l19 0c2 0 2 0 2-2l2-14c4-2 6-4 8-6l13 4c2 0 2 0 4-2l10-17c0-2 0-2 0-4l-12-8c0-2 0-3 0-5 0-2 0-4 0-6l10-8c0 0 2-2 0-4l-10-17c0-2-2-2-4-2l-11 6c-2-2-6-4-8-4l-2-14c0-2-2-2-2-2l-19 0c-2 0-2 0-2 2l-2 14c-4 2-6 4-8 6l-13-4c-2 0-2 0-4 2l-10 19c0 2 0 2 0 4l12 8c0 2 0 3 0 5 0 2 0 4 0 6l-12 8c0 0-2 2 0 4l10 17c0 2 2 2 4 2l11-6c2 2 6 4 8 4z m-114-143l2 6 6 15c0 2 2 2 4 2l15-4c2 4 6 6 8 8l-2 15c0 2 0 2 2 4l23 4c2 0 2 0 4-2l4-12c4 0 7-1 11-3l14 9c2 0 2 0 4 0l15-17c0-2 2-2 0-4l-9-12c0-1 1-3 1-5 0-2 0-4 0-6l14-8c2 0 2-2 2-4l-8-23c0-2-2-2-4-2l-15 4c-2-4-6-6-8-8l2-15c0-2 0-2-2-4l-23-4c-2 0-2 0-4 2l-6 15c-4 0-7 2-11 4l-14-9c-2 0-2 0-4 0l-15 17c0 2-2 2 0 4l11 12c0 1-1 3-1 5 0 2 0 4 0 6l-14 8c-2 0-2 2-2 2z m77-4c-2 11-13 19-23 17-11-2-17-13-15-25 2-11 13-19 23-17 11 2 17 13 15 25z"/>
<glyph glyph-name="ha-router-outline" unicode="&#34;" d="M248 150l23 0 0-30 27 0 0 30 23 0 0-78-23 0 0 29-27 0 0-29-23 0c0 0 0 78 0 78z m138-61l-27 0-4-17-25 0c0 0 21 69 23 74 0 4 0 4 6 4l25 0c5 0 5 0 7-4 2-7 23-74 23-74l-25 0z m-23 19l17 0-6 25-2 0z m78 103c2 12 4 27 4 42 0 116-94 210-210 210-116 0-211-94-211-210 0-110 85-200 192-211l0 21c-97 11-173 91-173 190 0 105 87 191 192 191 105 0 191-86 191-191 0-13 0-23-4-36l-33 13 27-72 67 36z"/>
<glyph glyph-name="analytics-alt" unicode="&#35;" d="M339 506l49-50-105-105-87 86-161-160 31-31 130 130 87-87 136 137 50-50 0 130z m-291-278l96 0 0-224-96 0z m160-64l96 0 0-160-96 0z m160 128l96 0 0-288-96 0z"/>
<glyph glyph-name="128t-peer" unicode="&#36;" d="M326 356l-170-170 30-31 171 171m91 58c0-35-29-64-64-64-35 0-64 29-64 64 0 35 29 64 64 64 35 0 64-29 64-64z m-256-256c0-35-29-64-64-64-35 0-64 29-64 64 0 35 29 64 64 64 35 0 64-29 64-64z"/>
</font>
</defs>
</svg>
