<?xml version="1.0" encoding="utf-8"?>
<!-- Generator: Adobe Illustrator 23.0.1, SVG Export Plug-In . SVG Version: 6.00 Build 0)  -->
<svg version="1.1" id="Layer_1" xmlns="http://www.w3.org/2000/svg" xmlns:xlink="http://www.w3.org/1999/xlink" x="0px" y="0px"
	 viewBox="0 0 512 512" style="enable-background:new 0 0 512 512;" xml:space="preserve">
<path d="M460.6,434.1V128.1H52.9v306.1H460.6 M460.6,26.5c28.7,0,51.4,22.7,51.4,51.4v356.3c0,28.7-22.7,51.4-51.4,51.4H52.9
	c-27.5,0-51.4-22.7-51.4-51.4V77.9c0-28.7,23.9-51.4,51.4-51.4H460.6 M231,278.7h28.7l-2.4,22.7h-28.7l-4.8,33.5h-20.3l4.8-33.5
	h-33.5l-4.8,33.5h-22.7l4.8-33.5h-27.5l2.4-22.7h27.5l6-29.9h-28.7l2.4-23.9h28.7l4.8-32.3h22.7l-4.8,32.3h31.1l4.8-32.3h22.7
	l-4.8,32.3h27.5l-2.4,23.9H237L231,278.7z M183.2,248.8l-4.8,29.9h29.9l4.8-29.9H183.2z M269.3,375.6v-17.9h118.4v17.9H269.3z"/>
</svg>
