<?xml version="1.0" encoding="utf-8"?>
<!-- Generator: Adobe Illustrator 23.0.4, SVG Export Plug-In . SVG Version: 6.00 Build 0)  -->
<svg version="1.1" id="Layer_1" xmlns="http://www.w3.org/2000/svg" xmlns:xlink="http://www.w3.org/1999/xlink" x="0px" y="0px"
	 viewBox="0 0 324.97 200" style="enable-background:new 0 0 324.97 200;" xml:space="preserve">
<g>
	<path d="M196.1,133.88c0,29.14,24.84,52.85,55.37,52.85c30.53,0,55.37-23.71,55.37-52.85c0-16.32-8-31.8-21.49-41.79
		c9.94-8.63,15.61-20.66,15.61-33.3c0-25.2-22.19-45.7-49.47-45.7c-27.28,0-49.47,20.5-49.47,45.7c0,12.63,5.66,24.65,15.59,33.28
		C204.1,102.06,196.1,117.55,196.1,133.88z M251.42,77.09c-11.72,0-21.25-8.08-21.25-18.01s9.53-18.01,21.25-18.01
		s21.25,8.08,21.25,18.01S263.14,77.09,251.42,77.09z M251.48,106.69c15.68,0,28.43,11.83,28.43,26.37s-12.75,26.37-28.43,26.37
		s-28.43-11.83-28.43-26.37S235.81,106.69,251.48,106.69z"/>
	<path d="M34.01,18.81c-3.84,6.12-9.11,8.94-17.61,9.42l-1.42,0.08v22.71h12.99v132.09h27.87v-165h-21.4L34.01,18.81z"/>
	<path d="M101.42,65.26c4.48-14.72,13.13-21.52,28.05-22.05c8.54-0.29,16.19,3.51,20.48,7.18c4.56,3.9,7.48,9.38,7.62,14.31
		c0.4,13.77-6.71,16.99-23.87,24.78c-1.46,0.66-2.98,1.35-4.64,2.11c-17.68,9.15-31.38,21.66-40.73,37.21
		c-9.35,15.54-13.87,33.32-13.45,52.84l0.03,1.47h111.54v-27.83L107.46,155c4.44-13.61,12.57-27.87,37.93-40.78
		c3.4-1.73,6.56-3.25,9.34-4.58c13.37-6.42,21.44-10.29,27.54-24.11c2.41-5.46,3.52-10.15,3.95-16.72
		c0.95-14.59-5.26-28.79-17.04-38.97c-11.05-9.55-24.51-14.39-40.03-14.39c-13.35,0-25.18,4.14-35.16,12.31
		c-8.88,7.26-15.82,18.63-19.56,32.01l-0.44,1.57l27.03,5.22L101.42,65.26z"/>
</g>
</svg>
