<?xml version="1.0" encoding="utf-8"?>
<!-- Generator: Adobe Illustrator 23.0.4, SVG Export Plug-In . SVG Version: 6.00 Build 0)  -->
<svg version="1.1" id="Layer_1" xmlns="http://www.w3.org/2000/svg" xmlns:xlink="http://www.w3.org/1999/xlink" x="0px" y="0px"
	 viewBox="0 0 324.97 275.19" style="enable-background:new 0 0 324.97 275.19;" xml:space="preserve">
<g>
	<path d="M196.1,133.88c0,29.14,24.84,52.85,55.37,52.85c30.53,0,55.37-23.71,55.37-52.85c0-16.32-8-31.8-21.49-41.79
		c9.94-8.63,15.61-20.66,15.61-33.3c0-25.2-22.19-45.7-49.47-45.7c-27.28,0-49.47,20.5-49.47,45.7c0,12.63,5.66,24.65,15.59,33.28
		C204.1,102.06,196.1,117.55,196.1,133.88z M251.42,77.09c-11.72,0-21.25-8.08-21.25-18.01s9.53-18.01,21.25-18.01
		s21.25,8.08,21.25,18.01S263.14,77.09,251.42,77.09z M251.48,106.69c15.68,0,28.43,11.83,28.43,26.37s-12.75,26.37-28.43,26.37
		s-28.43-11.83-28.43-26.37S235.81,106.69,251.48,106.69z"/>
	<path d="M34.01,18.81c-3.84,6.12-9.11,8.94-17.61,9.42l-1.42,0.08v22.71h12.99v132.09h27.87v-165h-21.4L34.01,18.81z"/>
	<path d="M101.42,65.26c4.48-14.72,13.13-21.52,28.05-22.05c8.54-0.29,16.19,3.51,20.48,7.18c4.56,3.9,7.48,9.38,7.62,14.31
		c0.4,13.77-6.71,16.99-23.87,24.78c-1.46,0.66-2.98,1.35-4.64,2.11c-17.68,9.15-31.38,21.66-40.73,37.21
		c-9.35,15.54-13.87,33.32-13.45,52.84l0.03,1.47h111.54v-27.83L107.46,155c4.44-13.61,12.57-27.87,37.93-40.78
		c3.4-1.73,6.56-3.25,9.34-4.58c13.37-6.42,21.44-10.29,27.54-24.11c2.41-5.46,3.52-10.15,3.95-16.72
		c0.95-14.59-5.26-28.79-17.04-38.97c-11.05-9.55-24.51-14.39-40.03-14.39c-13.35,0-25.18,4.14-35.16,12.31
		c-8.88,7.26-15.82,18.63-19.56,32.01l-0.44,1.57l27.03,5.22L101.42,65.26z"/>
	<polygon points="29.91,233.79 38.36,233.79 38.36,260.48 43.56,260.48 43.56,233.79 52,233.79 52,229.12 29.91,229.12 	"/>
	<polygon points="56.32,260.48 76.52,260.48 76.52,255.56 61.5,255.56 61.5,247 74.32,247 74.32,242.35 61.5,242.35 61.5,234.05 
		76.52,234.05 76.52,229.12 56.32,229.12 	"/>
	<path d="M97.82,251.49c-1.27,2.74-3.12,4.07-5.66,4.07c-1.05,0-1.96-0.22-2.73-0.67c-0.77-0.38-1.39-0.87-1.87-1.49
		c-0.57-0.62-0.96-1.46-1.15-2.49c-0.22-1.05-0.33-3.1-0.33-6.11c0-3,0.11-5.07,0.33-6.15c0.19-0.99,0.57-1.81,1.16-2.46
		c0.47-0.6,1.1-1.11,1.86-1.52c0.75-0.39,1.67-0.6,2.72-0.63c1.43,0.03,2.66,0.44,3.65,1.23c0.96,0.84,1.63,1.87,2,3.06l0.05,0.18
		h5.44l-0.06-0.3c-0.5-2.62-1.72-4.85-3.63-6.63c-1.92-1.77-4.42-2.68-7.45-2.71c-2.47,0.03-4.56,0.63-6.21,1.78
		c-1.68,1.13-2.92,2.45-3.67,3.88c-0.48,0.77-0.84,1.79-1.07,3.03c-0.22,1.24-0.32,3.61-0.32,7.24c0,3.53,0.11,5.95,0.32,7.2
		c0.11,0.67,0.26,1.24,0.44,1.71c0.19,0.43,0.39,0.88,0.62,1.35c0.76,1.46,2,2.75,3.68,3.86c1.65,1.15,3.74,1.76,6.22,1.82
		c2.73,0,5.12-0.79,7.12-2.34c1.94-1.57,3.27-3.83,3.96-6.74l0.07-0.31h-5.43L97.82,251.49z"/>
	<polygon points="124.45,242.35 112.74,242.35 112.74,229.12 107.56,229.12 107.56,260.48 112.74,260.48 112.74,247 124.45,247 
		124.45,260.48 129.63,260.48 129.63,229.12 124.45,229.12 	"/>
	<polygon points="155.62,250.57 141.95,229.12 137.16,229.12 137.16,260.48 142.34,260.48 142.34,239.03 155.98,260.48 
		160.79,260.48 160.79,229.12 155.62,229.12 	"/>
	<path d="M188.42,234.55c-0.73-1.46-1.94-2.77-3.59-3.9c-1.67-1.15-3.78-1.75-6.28-1.78c-2.47,0.03-4.56,0.63-6.21,1.78
		c-1.68,1.13-2.92,2.45-3.67,3.88c-0.48,0.77-0.84,1.79-1.07,3.03c-0.22,1.24-0.32,3.61-0.32,7.24c0,3.53,0.11,5.95,0.32,7.2
		c0.11,0.67,0.26,1.24,0.44,1.71c0.19,0.43,0.39,0.88,0.62,1.35c0.76,1.46,2,2.75,3.68,3.86c1.65,1.15,3.74,1.76,6.22,1.82
		c2.49-0.06,4.6-0.67,6.27-1.82c1.65-1.11,2.86-2.41,3.58-3.83c0.54-0.78,0.92-1.82,1.12-3.09c0.18-1.25,0.28-3.67,0.28-7.19
		c0-3.58-0.09-6.01-0.28-7.24C189.32,236.32,188.94,235.3,188.42,234.55z M175.83,234.67c0.75-0.39,1.67-0.6,2.71-0.63
		c1.07,0.03,2.01,0.24,2.79,0.63c0.74,0.4,1.34,0.92,1.8,1.54c0.57,0.63,0.97,1.45,1.19,2.44c0.21,1.08,0.31,3.15,0.31,6.15
		c0,3-0.11,5.06-0.31,6.11c-0.22,1.02-0.62,1.86-1.21,2.51c-0.44,0.6-1.04,1.09-1.78,1.47c-0.78,0.44-1.71,0.67-2.78,0.67
		c-1.05,0-1.96-0.22-2.73-0.67c-0.77-0.38-1.39-0.87-1.87-1.49c-0.57-0.62-0.96-1.46-1.15-2.49c-0.22-1.05-0.33-3.1-0.33-6.11
		c0-3,0.11-5.07,0.33-6.15c0.19-0.99,0.57-1.81,1.16-2.46C174.43,235.59,175.06,235.08,175.83,234.67z"/>
	<polygon points="201.45,229.12 196.28,229.12 196.28,260.48 216.48,260.48 216.48,255.56 201.45,255.56 	"/>
	<path d="M241.99,234.55c-0.74-1.46-1.95-2.77-3.59-3.9c-1.67-1.15-3.78-1.75-6.28-1.78c-2.47,0.03-4.56,0.63-6.21,1.78
		c-1.68,1.13-2.92,2.45-3.67,3.88c-0.48,0.77-0.84,1.79-1.07,3.03c-0.22,1.24-0.32,3.61-0.32,7.24c0,3.53,0.11,5.95,0.32,7.2
		c0.11,0.67,0.26,1.24,0.44,1.71c0.19,0.43,0.39,0.88,0.62,1.35c0.76,1.46,2,2.75,3.68,3.86c1.65,1.15,3.74,1.76,6.22,1.82
		c2.49-0.06,4.6-0.67,6.27-1.82c1.65-1.11,2.86-2.41,3.58-3.83c0.54-0.78,0.92-1.82,1.12-3.09c0.18-1.25,0.28-3.67,0.28-7.19
		c0-3.58-0.09-6.01-0.28-7.24C242.89,236.32,242.51,235.3,241.99,234.55z M229.4,234.67c0.75-0.39,1.67-0.6,2.71-0.63
		c1.07,0.03,2.01,0.24,2.79,0.63c0.74,0.4,1.34,0.92,1.8,1.54c0.57,0.63,0.97,1.45,1.19,2.44c0.21,1.08,0.31,3.15,0.31,6.15
		c0,3-0.11,5.06-0.31,6.11c-0.22,1.02-0.62,1.86-1.21,2.51c-0.44,0.6-1.04,1.09-1.78,1.47c-0.78,0.44-1.71,0.67-2.78,0.67
		c-1.05,0-1.96-0.22-2.73-0.67c-0.77-0.38-1.39-0.87-1.87-1.49c-0.57-0.62-0.96-1.46-1.15-2.49c-0.22-1.05-0.33-3.1-0.33-6.11
		c0-3,0.11-5.07,0.33-6.15c0.19-0.99,0.57-1.81,1.16-2.46C228,235.59,228.63,235.08,229.4,234.67z"/>
	<path d="M259.86,247.91h6.29v1.35c-0.03,1.86-0.62,3.37-1.75,4.51c-1.13,1.18-2.59,1.79-4.33,1.79c-1.05,0-1.96-0.22-2.73-0.67
		c-0.77-0.38-1.39-0.87-1.87-1.49c-0.57-0.62-0.96-1.46-1.15-2.49c-0.22-1.05-0.33-3.1-0.33-6.11c0-3,0.11-5.07,0.33-6.15
		c0.19-0.99,0.57-1.81,1.16-2.46c0.47-0.6,1.1-1.11,1.86-1.52c0.75-0.39,1.67-0.6,2.72-0.63c1.43,0.03,2.66,0.44,3.65,1.23
		c0.96,0.84,1.63,1.87,2,3.06l0.05,0.18h5.44l-0.06-0.3c-0.5-2.62-1.72-4.85-3.63-6.63c-1.92-1.77-4.42-2.68-7.45-2.71
		c-2.47,0.03-4.56,0.63-6.21,1.78c-1.68,1.13-2.92,2.45-3.67,3.88c-0.48,0.77-0.84,1.79-1.07,3.03c-0.22,1.24-0.32,3.61-0.32,7.24
		c0,3.53,0.11,5.95,0.32,7.2c0.11,0.67,0.26,1.24,0.44,1.71c0.19,0.43,0.39,0.88,0.62,1.35c0.76,1.46,2,2.75,3.68,3.86
		c1.65,1.15,3.74,1.76,6.22,1.82c3.2-0.06,5.89-1.16,8-3.27c2.1-2.13,3.19-4.8,3.25-7.94v-6.54h-11.46V247.91z"/>
	<polygon points="285.62,242.49 279.31,229.27 279.24,229.12 273.72,229.12 283.17,247.59 283.17,260.48 288.08,260.48 
		288.08,247.59 297.53,229.12 292.01,229.12 	"/>
</g>
</svg>
