<svg xmlns="http://www.w3.org/2000/svg" viewBox="0 0 512 512"><path d="M350 267c0 15-12 28-27 28s-27-13-27-28c0-14 12-27 27-27s27 13 27 27zM239 134c-9 0-17 7-18 17 0 10 8 18 17 18 10 0 18-8 18-17 0-10-7-18-17-18zm155-96H118c-31 0-56 27-56 56v278c0 31 25 54 54 54h278c31 0 54-25 54-54V96c2-31-23-58-54-58zm-13 229v8l15 14c2 2 2 4 0 6l-15 27c0 2-4 2-4 2l-20-8c-3 4-7 6-13 8l-2 21c0 2-2 4-4 4h-31c-2 0-4-2-4-4l-2-21c-5-2-9-4-13-8l-19 8c-2 0-4 0-4-2l-16-27c-2-2 0-4 0-6l16-14v-8-7l-16-14c-2-2-2-4 0-6l16-27c0-2 4-2 4-2l19 8c4-4 8-6 13-8l2-21c0-2 2-4 4-4h31c2 0 4 2 4 4l2 21c6 2 10 4 13 8l20-8c2 0 4 0 4 2l15 27v6l-15 14v7zM226 103c0-2 2-2 2-2h19c2 0 2 0 2 2l2 14c4 2 6 4 8 6l13-4c2 0 2 0 4 2l10 17v4l-12 8v11l10 8s2 2 0 4l-10 17c0 2-2 2-4 2l-11-6c-2 2-6 4-8 4l-2 14c0 2-2 2-2 2h-19c-2 0-2 0-2-2l-2-14c-4-2-6-4-8-6l-13 4c-2 0-2 0-4-2l-10-19v-4l12-8v-5-6l-12-8s-2-2 0-4l10-17c0-2 2-2 4-2l11 6c2-2 6-4 8-4zM112 246l2-6 6-15c0-2 2-2 4-2l15 4c2-4 6-6 8-8l-2-15c0-2 0-2 2-4l23-4c2 0 2 0 4 2l4 12c4 0 7 1 11 3l14-9h4l15 17c0 2 2 2 0 4l-9 12c0 1 1 3 1 5v6l14 8c2 0 2 2 2 4l-8 23c0 2-2 2-4 2l-15-4c-2 4-6 6-8 8l2 15c0 2 0 2-2 4l-23 4c-2 0-2 0-4-2l-6-15c-4 0-7-2-11-4l-14 9h-4l-15-17c0-2-2-2 0-4l11-12c0-1-1-3-1-5v-6l-14-8c-2 0-2-2-2-2zm77 4c-2-11-13-19-23-17-11 2-17 13-15 25 2 11 13 19 23 17 11-2 17-13 15-25z"/></svg>