<?xml version="1.0" encoding="utf-8"?>
<!-- Generator: Adobe Illustrator 23.0.1, SVG Export Plug-In . SVG Version: 6.00 Build 0)  -->
<svg version="1.1" id="Layer_1" xmlns="http://www.w3.org/2000/svg" xmlns:xlink="http://www.w3.org/1999/xlink" x="0px" y="0px"
	 viewBox="0 0 512 512" style="enable-background:new 0 0 512 512;" xml:space="preserve">
<path d="M381.3,302.2c0,19.8-15.8,36.9-35.6,36.9s-35.6-17.2-35.6-36.9c0-18.5,15.8-35.6,35.6-35.6S381.3,283.7,381.3,302.2z
	 M234.9,126.7c-11.9,0-22.4,9.2-23.8,22.4c0,13.2,10.6,23.8,22.4,23.8c13.2,0,23.8-10.6,23.8-22.4
	C257.3,137.2,248.1,126.7,234.9,126.7z M439.4,0H75.2C34.3,0,1.3,35.6,1.3,73.9v366.8c0,40.9,33,71.3,71.3,71.3h366.8
	c40.9,0,71.3-33,71.3-71.3V76.5C513.3,35.6,480.3,0,439.4,0z M422.2,302.2v10.6l19.8,18.5c2.6,2.6,2.6,5.3,0,7.9l-19.8,35.6
	c0,2.6-5.3,2.6-5.3,2.6l-26.4-10.6c-4,5.3-9.2,7.9-17.2,10.6l-2.6,27.7c0,2.6-2.6,5.3-5.3,5.3h-40.9c-2.6,0-5.3-2.6-5.3-5.3
	l-2.6-27.7c-6.6-2.6-11.9-5.3-17.2-10.6l-25.1,10.6c-2.6,0-5.3,0-5.3-2.6l-21.1-35.6c-2.6-2.6,0-5.3,0-7.9l21.1-18.5v-10.6v-9.2
	l-21.1-18.5c-2.6-2.6-2.6-5.3,0-7.9l21.1-35.6c0-2.6,5.3-2.6,5.3-2.6l25.1,10.6c5.3-5.3,10.6-7.9,17.2-10.6l2.6-27.7
	c0-2.6,2.6-5.3,5.3-5.3h40.9c2.6,0,5.3,2.6,5.3,5.3l2.6,27.7c7.9,2.6,13.2,5.3,17.2,10.6l26.4-10.6c2.6,0,5.3,0,5.3,2.6l19.8,35.6
	v7.9l-19.8,18.5V302.2z M217.7,85.8c0-2.6,2.6-2.6,2.6-2.6h25.1c2.6,0,2.6,0,2.6,2.6l2.6,18.5c5.3,2.6,7.9,5.3,10.6,7.9l17.2-5.3
	c2.6,0,2.6,0,5.3,2.6l13.2,22.4v5.3L281,147.8v14.5l13.2,10.6c0,0,2.6,2.6,0,5.3L281,200.6c0,2.6-2.6,2.6-5.3,2.6l-14.5-7.9
	c-2.6,2.6-7.9,5.3-10.6,5.3l-2.6,18.5c0,2.6-2.6,2.6-2.6,2.6h-25.1c-2.6,0-2.6,0-2.6-2.6l-2.6-18.5c-5.3-2.6-7.9-5.3-10.6-7.9
	l-17.2,5.3c-2.6,0-2.6,0-5.3-2.6l-13.2-25.1v-5.3l15.8-10.6v-6.6v-7.9l-15.8-10.6c0,0-2.6-2.6,0-5.3l13.2-22.4
	c0-2.6,2.6-2.6,5.3-2.6l14.5,7.9c2.6-2.6,7.9-5.3,10.6-5.3L217.7,85.8z M67.3,274.5l2.6-7.9l7.9-19.8c0-2.6,2.6-2.6,5.3-2.6
	l19.8,5.3c2.6-5.3,7.9-7.9,10.6-10.6l-2.6-19.8c0-2.6,0-2.6,2.6-5.3l30.4-5.3c2.6,0,2.6,0,5.3,2.6l5.3,15.8c5.3,0,9.2,1.3,14.5,4
	l18.5-11.9h5.3l19.8,22.4c0,2.6,2.6,2.6,0,5.3l-11.9,15.8c0,1.3,1.3,4,1.3,6.6v7.9l18.5,10.6c2.6,0,2.6,2.6,2.6,5.3l-10.6,30.4
	c0,2.6-2.6,2.6-5.3,2.6l-19.8-5.3c-2.6,5.3-7.9,7.9-10.6,10.6l2.6,19.8c0,2.6,0,2.6-2.6,5.3l-30.4,5.3c-2.6,0-2.6,0-5.3-2.6
	l-7.9-19.8c-5.3,0-9.2-2.6-14.5-5.3l-18.5,11.9H95l-19.8-22.4c0-2.6-2.6-2.6,0-5.3l14.5-15.8c0-1.3-1.3-4-1.3-6.6v-7.9l-18.5-10.6
	C67.3,277.1,67.3,274.5,67.3,274.5z M168.9,279.8c-2.6-14.5-17.2-25.1-30.4-22.4c-14.5,2.6-22.4,17.2-19.8,33
	c2.6,14.5,17.2,25.1,30.4,22.4C163.6,310.1,171.5,295.6,168.9,279.8z"/>
</svg>
