<?xml version="1.0" encoding="utf-8"?>
<!-- Generator: Adobe Illustrator 23.0.1, SVG Export Plug-In . SVG Version: 6.00 Build 0)  -->
<svg version="1.1" id="Layer_1" xmlns="http://www.w3.org/2000/svg" xmlns:xlink="http://www.w3.org/1999/xlink" x="0px" y="0px"
	 viewBox="0 0 512 512" style="enable-background:new 0 0 512 512;" xml:space="preserve">
<path d="M494.5,318.2c-151,72.7-321.1,72.7-471,0V209.7c211.4,68.2,270.7,70.5,471,0V318.2z M494.5,459.1
	c-153.3,68.2-318.8,68.2-471,0v-113c171.2,78.3,281.9,82.8,471,0V459.1z M494.5,181.7c-151,58.2-321.1,58.2-471,0V75.4
	c152.2,63.8,322.2,68.2,471,0V181.7z M36.9,49.7c0,2.2,144.3-92.9,436.3-21.3c66,11.2-138.7,79.4-268.5,58.2
	C115.2,75.4,36.9,47.4,36.9,49.7z"/>
</svg>
