<?xml version="1.0" encoding="utf-8"?>
<!-- Generator: Adobe Illustrator 23.0.1, SVG Export Plug-In . SVG Version: 6.00 Build 0)  -->
<svg version="1.1" id="Layer_1" xmlns="http://www.w3.org/2000/svg" xmlns:xlink="http://www.w3.org/1999/xlink" x="0px" y="0px"
	 viewBox="0 0 400 400" style="enable-background:new 0 0 400 400;" xml:space="preserve">
<path d="M54.4,304.9l-14.7-8.5L203.3,13.1l14.7,8.5L54.4,304.9z"/>
<path d="M36.4,273.7h327.2v17H36.4V273.7z"/>
<path d="M206.5,377.8L42.8,283.3l8.5-14.7L215,363.1L206.5,377.8z M348.6,131.5L185,37l8.5-14.7l163.6,94.5L348.6,131.5z"/>
<path d="M51.4,131.4l-8.5-14.7l163.6-94.5L215,37L51.4,131.4z"/>
<path d="M345.6,304.9L182,21.5l14.7-8.5l163.6,283.3L345.6,304.9z M49.3,105.5h17v189h-17V105.5z M333.7,105.5h17v189h-17V105.5z"/>
<path d="M203.6,370.6l-7.4-12.8l142.3-82.2l7.4,12.8L203.6,370.6z"/>
<path d="M373.1,300c-9.8,17.1-31.7,22.9-48.7,13.1c-17.1-9.8-22.9-31.7-13.1-48.7c9.8-17.1,31.7-22.9,48.7-13.1
	C377.2,261.2,383,282.9,373.1,300 M88.6,135.6c-9.8,17.1-31.7,22.9-48.7,13.1S17,117.1,26.8,100s31.7-22.9,48.7-13.1
	C92.5,96.8,98.4,118.6,88.6,135.6 M26.9,300c-9.8-17.1-4-38.8,13.1-48.7c17.1-9.8,38.8-4,48.7,13.1c9.8,17.1,4,38.8-13.1,48.7
	C58.4,322.9,36.7,317.1,26.9,300 M311.4,135.6c-9.8-17.1-4-38.8,13.1-48.7c17.1-9.8,38.8-4,48.7,13.1c9.8,17.1,4,38.8-13.1,48.7
	C343.1,158.5,321.2,152.7,311.4,135.6 M200,400c-19.7,0-35.6-15.9-35.6-35.6c0-19.7,15.9-35.6,35.6-35.6s35.6,15.9,35.6,35.6
	C235.6,384,219.7,400,200,400 M200,71.3c-19.7,0-35.6-15.9-35.6-35.6S180.3,0,200,0s35.6,15.9,35.6,35.6S219.7,71.3,200,71.3"/>
</svg>
