<svg xmlns="http://www.w3.org/2000/svg" viewBox="0 0 512 512"><path d="M456 0H56C31 0 11 20 11 45v267c0 24 20 44 45 44h155l-44 67v22h178v-22l-44-67h155c25 0 45-20 45-44V45c0-25-20-45-45-45zm0 267H56V45h400zm-354-49V98c0-4 3-6 7-6h120c3 0 5 2 7 6v31c0 5-2 7-7 7h-69c-6 0-13 5-13 16v66c0 5-2 7-7 7h-31c-4 0-7-2-7-7zM374 92h31c5 0 7 2 7 6v31c0 5-2 7-7 7h-31c-2-2-7-4-7-7V98c0-4 3-6 7-6zm38 93v31c0 5-2 7-7 7h-31c-2 0-7-2-7-7v-31c0-4 3-7 7-7h31c5 0 7 3 7 7zM285 92h31c5 0 7 2 7 6h2v120c-2 3-4 5-7 5H198c-4 0-7-2-7-7v-31c0-2 3-7 5-4h67c11 0 15-7 15-16V98c0-4 2-6 7-6z"/></svg>