<?xml version="1.0" encoding="utf-8"?>
<!-- Generator: Adobe Illustrator 23.0.1, SVG Export Plug-In . SVG Version: 6.00 Build 0)  -->
<svg version="1.1" id="Layer_1" xmlns="http://www.w3.org/2000/svg" xmlns:xlink="http://www.w3.org/1999/xlink" x="0px" y="0px"
	 viewBox="0 0 512 512" style="enable-background:new 0 0 512 512;" xml:space="preserve">
<path d="M465.1,23.6H48c-26.1,0-46.9,20.9-46.9,46.9v278.4c0,25,20.9,45.9,46.9,45.9h161.6l-45.9,69.9v22.9h185.6v-22.9l-45.9-69.9
	h161.6c26.1,0,46.9-20.9,46.9-45.9V70.5C512,44.5,491.1,23.6,465.1,23.6z M465.1,302H48V70.5h417.1V302z M96,250.9V125.8
	c0-4.2,3.1-6.3,7.3-6.3h125.1c3.1,0,5.2,2.1,7.3,6.3v32.3c0,5.2-2.1,7.3-7.3,7.3h-71.9c-6.3,0-13.6,5.2-13.6,16.7v68.8
	c0,5.2-2.1,7.3-7.3,7.3h-32.3C99.1,258.2,96,256.1,96,250.9z M379.6,119.5h32.3c5.2,0,7.3,2.1,7.3,6.3v32.3c0,5.2-2.1,7.3-7.3,7.3
	h-32.3c-2.1-2.1-7.3-4.2-7.3-7.3v-32.3C372.3,121.6,375.4,119.5,379.6,119.5z M419.2,216.5v32.3c0,5.2-2.1,7.3-7.3,7.3h-32.3
	c-2.1,0-7.3-2.1-7.3-7.3v-32.3c0-4.2,3.1-7.3,7.3-7.3h32.3C417.1,209.2,419.2,212.3,419.2,216.5z M286.8,119.5h32.3
	c5.2,0,7.3,2.1,7.3,6.3h2.1v125.1c-2.1,3.1-4.2,5.2-7.3,5.2H196.1c-4.2,0-7.3-2.1-7.3-7.3v-32.3c0-2.1,3.1-7.3,5.2-4.2h69.9
	c11.5,0,15.6-7.3,15.6-16.7v-69.9C279.5,121.6,281.6,119.5,286.8,119.5z"/>
</svg>
