<?xml version="1.0" encoding="utf-8"?>
<!-- Generator: Adobe Illustrator 23.0.1, SVG Export Plug-In . SVG Version: 6.00 Build 0)  -->
<svg version="1.1" id="Layer_1" xmlns="http://www.w3.org/2000/svg" xmlns:xlink="http://www.w3.org/1999/xlink" x="0px" y="0px"
	 viewBox="0 0 512 512" style="enable-background:new 0 0 512 512;" xml:space="preserve">
<path d="M249.9,370.3h25.7v33.5h30.1v-33.5h25.7v87h-25.7V425h-30.1v32.3h-25.7V370.3z M403.8,438.4h-30.1l-4.5,19h-27.9
	c0,0,23.4-77,25.7-82.5c0-4.5,0-4.5,6.7-4.5h27.9c5.6,0,5.6,0,7.8,4.5c2.2,7.8,25.7,82.5,25.7,82.5h-27.9L403.8,438.4z M378.1,417.2
	h19l-6.7-27.9h-2.2L378.1,417.2z M465.2,302.3c2.2-13.4,4.5-30.1,4.5-46.8c0-129.4-104.9-234.2-234.2-234.2S0,126,0,255.4
	c0,122.7,94.8,223.1,214.2,235.4v-23.4c-108.2-12.3-193-101.5-193-211.9c0-117.1,97-213.1,214.2-213.1s213.1,95.9,213.1,213.1
	c0,14.5,0,25.7-4.5,40.2l-36.8-14.5l30.1,80.3l74.7-40.2L465.2,302.3z"/>
</svg>
