<svg viewBox="0 0 650 645" version="1.1" xmlns="http://www.w3.org/2000/svg" xmlns:xlink="http://www.w3.org/1999/xlink">
    <g stroke="none" stroke-width="1" fill="none" fill-rule="evenodd">
        <g transform="translate(1.000000, -3.000000)" fill="#00ADEF" fill-rule="nonzero">
            <path d="M6,27.030387 L24.2511088,3.23764451 C123.668825,79.2652369 222.27483,117.030458 320.305536,117.030458 C418.447276,117.030458 520.093799,79.1807943 625.387795,3 L643,27.2680315 C532.896049,106.928855 425.283664,147 320.305536,147 C215.216373,147 110.369057,106.844412 6,27.030387 Z" id="Line"></path>
            <path d="M625.381938,6 L649,24.5535623 C568.17109,127.31854 528.041216,227.742753 528.041216,326.010647 C528.041216,424.303373 567.517252,524.059013 647.019016,625.486014 L623.369879,644 C539.973191,537.603921 498,431.537989 498,326.010647 C498,220.458474 540.650367,113.726777 625.381938,6 Z" id="Line-2"></path>
            <path d="M640,624.011213 L621.987639,648 C518.825201,570.49867 418.144811,532.001255 319.765967,532.001255 C221.407178,532.001255 122.987843,569.63566 24.2554624,645.39284 L6,621.588627 C109.692357,542.025666 214.36518,502 319.765967,502 C425.146701,502 531.951546,542.839238 640,624.011213 Z" id="Line-2"></path>
            <path d="M23.208485,643 L-1,625.319681 C73.1673758,523.735255 110.024242,423.860969 110.024242,325.493666 C110.024242,227.037618 74.0503404,126.704407 1.68125848,24.3049517 L26.1593903,7 C101.912704,114.188013 140,220.415596 140,325.493666 C140,430.660482 100.918281,536.563646 23.208485,643 Z" id="Line-2"></path>
            <polygon id="Line-4" points="3 25.2384463 24.1907383 4 644 623.761554 622.809262 645"></polygon>
            <polygon id="Line-5" points="23.1684323 645 2 623.76352 623.831568 4 645 25.2364799"></polygon>
            <path d="M331.478482,331.735737 L320.964848,342 L310.48564,331.700593 C280.725123,302.450704 259.188445,280.778889 245.817143,266.620911 C239.902221,260.357996 236.462915,252.339868 234.664661,242.735738 C233.413548,236.05378 233,229.178011 233,220.022114 C233,169.928792 271.763461,129 320,129 C368.236539,129 407,169.928792 407,220.022114 C407,229.408877 406.381337,237.266432 404.778636,244.60983 C402.651076,254.358066 398.841488,262.674044 392.780694,269.356471 C379.378257,284.133544 358.966489,304.899713 331.478482,331.735737 Z M370.55923,249.201651 C374.952364,244.35793 377,234.975895 377,220.022114 C377,186.143936 351.292465,159.000377 320,159.000377 C288.707535,159.000377 263,186.143936 263,220.022114 C263,234.525976 264.540452,242.753238 267.627502,246.021909 C279.082345,258.150677 296.894362,276.148302 321.024073,299.971403 C342.849331,278.473149 359.375539,261.53241 370.55923,249.201651 Z" id="Combined-Shape"></path>
            <path d="M326.235737,317.021518 L336.5,327.535152 L326.200593,338.01436 C296.950704,367.774877 275.278889,389.311555 261.120911,402.682857 C254.857996,408.597779 246.839868,412.037085 237.235738,413.835339 C230.55378,415.086452 223.678011,415.5 214.522114,415.5 C164.428792,415.5 123.5,376.736539 123.5,328.5 C123.5,280.263461 164.428792,241.5 214.522114,241.5 C223.908877,241.5 231.766432,242.118663 239.10983,243.721364 C248.858066,245.848924 257.174044,249.658512 263.856471,255.719306 C278.633544,269.121743 299.399713,289.533511 326.235737,317.021518 Z M243.701651,277.94077 C238.85793,273.547636 229.475895,271.5 214.522114,271.5 C180.643936,271.5 153.500377,297.207535 153.500377,328.5 C153.500377,359.792465 180.643936,385.5 214.522114,385.5 C229.025976,385.5 237.253238,383.959548 240.521909,380.872498 C252.650677,369.417655 270.648302,351.605638 294.471403,327.475927 C272.973149,305.650669 256.03241,289.124461 243.701651,277.94077 Z" id="Combined-Shape"></path>
            <path d="M314.764263,337.978482 L304.5,327.464848 L314.799407,316.98564 C344.049296,287.225123 365.721111,265.688445 379.879089,252.317143 C386.142004,246.402221 394.160132,242.962915 403.764262,241.164661 C410.44622,239.913548 417.321989,239.5 426.477886,239.5 C476.571208,239.5 517.5,278.263461 517.5,326.5 C517.5,374.736539 476.571208,413.5 426.477886,413.5 C417.091123,413.5 409.233568,412.881337 401.89017,411.278636 C392.141934,409.151076 383.825956,405.341488 377.143529,399.280694 C362.366456,385.878257 341.600287,365.466489 314.764263,337.978482 Z M397.298349,377.05923 C402.14207,381.452364 411.524105,383.5 426.477886,383.5 C460.356064,383.5 487.499623,357.792465 487.499623,326.5 C487.499623,295.207535 460.356064,269.5 426.477886,269.5 C411.974024,269.5 403.746762,271.040452 400.478091,274.127502 C388.349323,285.582345 370.351698,303.394362 346.528597,327.524073 C368.026851,349.349331 384.96759,365.875539 397.298349,377.05923 Z" id="Combined-Shape"></path>
            <path d="M309.521518,321.264263 L320.035152,311 L330.51436,321.299407 C360.274877,350.549296 381.811555,372.221111 395.182857,386.379089 C401.097779,392.642004 404.537085,400.660132 406.335339,410.264262 C407.586452,416.94622 408,423.821989 408,432.977886 C408,483.071208 369.236539,524 321,524 C272.763461,524 234,483.071208 234,432.977886 C234,423.591123 234.618663,415.733568 236.221364,408.39017 C238.348924,398.641934 242.158512,390.325956 248.219306,383.643529 C261.621743,368.866456 282.033511,348.100287 309.521518,321.264263 Z M270.44077,403.798349 C266.047636,408.64207 264,418.024105 264,432.977886 C264,466.856064 289.707535,493.999623 321,493.999623 C352.292465,493.999623 378,466.856064 378,432.977886 C378,418.474024 376.459548,410.246762 373.372498,406.978091 C361.917655,394.849323 344.105638,376.851698 319.975927,353.028597 C298.150669,374.526851 281.624461,391.46759 270.44077,403.798349 Z" id="Combined-Shape"></path>
        </g>
    </g>
</svg>