<?xml version="1.0" encoding="utf-8"?>
<!-- Generator: Adobe Illustrator 23.0.1, SVG Export Plug-In . SVG Version: 6.00 Build 0)  -->
<svg version="1.1" id="Layer_1" xmlns="http://www.w3.org/2000/svg" xmlns:xlink="http://www.w3.org/1999/xlink" x="0px" y="0px"
	 viewBox="0 0 512 512" style="enable-background:new 0 0 512 512;" xml:space="preserve">
<g>
	<g transform="translate(1.000000, -3.000000)">
		<path id="Line" d="M4.3,23.6L18.7,4.9c78.4,59.9,156.1,89.7,233.5,89.7S409.7,64.8,492.7,4.7l13.8,19.2
			c-86.8,62.8-171.7,94.4-254.4,94.4C169.2,118.3,86.6,86.6,4.3,23.6z"/>
		<path id="Line-2" d="M492.6,7.1l18.6,14.7c-63.7,81-95.4,160.1-95.4,237.6s31.1,156.1,93.8,236.1l-18.6,14.6
			c-65.8-83.9-98.9-167.6-98.9-250.7S425.9,92,492.6,7.1z"/>
		<path d="M504.2,494.4L490,513.3c-81.4-61.1-160.7-91.5-238.3-91.5s-155.2,29.6-233,89.4L4.3,492.5
			c81.8-62.8,164.3-94.3,247.4-94.3C334.7,398.2,419,430.3,504.2,494.4z"/>
		<path d="M17.8,509.3l-19.1-14C57.3,415.3,86.3,336.5,86.3,259c0-77.7-28.4-156.7-85.4-237.5L20.2,7.9
			c59.7,84.5,89.7,168.3,89.7,251.1C109.9,341.9,79.1,425.4,17.8,509.3z"/>
		<polygon id="Line-4" points="1.9,22.2 18.6,5.5 507.3,494.2 490.6,510.9 		"/>
		<polygon id="Line-5" points="17.8,510.9 1.1,494.2 491.4,5.5 508.1,22.2 		"/>
		<path id="Combined-Shape" d="M260.9,263.9l-8.3,8.1l-8.3-8.1c-23.5-23-40.4-40.1-51-51.3c-4.7-5-7.4-11.3-8.8-18.8
			c-1-5.3-1.3-10.7-1.3-17.9c0-39.5,30.6-71.8,68.6-71.8s68.6,32.2,68.6,71.8c0,7.4-0.5,13.6-1.7,19.4c-1.7,7.6-4.7,14.3-9.5,19.5
			C298.7,226.4,282.6,242.8,260.9,263.9z M291.7,198.8c3.5-3.8,5-11.2,5-23c0-26.7-20.3-48.1-44.9-48.1s-44.9,21.4-44.9,48.1
			c0,11.4,1.2,17.9,3.6,20.5c9.1,9.5,23.1,23.7,42.1,42.5C269.8,221.9,282.9,208.5,291.7,198.8z"/>
		<path d="M256.7,252.3l8.1,8.3l-8.1,8.3c-23,23.5-40.1,40.4-51.3,51c-5,4.7-11.3,7.4-18.8,8.8c-5.3,1-10.7,1.3-17.9,1.3
			c-39.5,0-71.8-30.6-71.8-68.6s32.2-68.6,71.8-68.6c7.4,0,13.6,0.5,19.4,1.7c7.6,1.7,14.3,4.7,19.5,9.5
			C219.2,214.5,235.6,230.6,256.7,252.3z M191.7,221.5c-3.8-3.5-11.2-5-23-5c-26.7,0-48.1,20.3-48.1,44.9s21.4,44.9,48.1,44.9
			c11.4,0,17.9-1.2,20.5-3.6c9.5-9.1,23.7-23.1,42.5-42.1C214.8,243.4,201.4,230.3,191.7,221.5z"/>
		<path d="M247.7,268.9l-8.1-8.3l8.1-8.3c23-23.5,40.1-40.4,51.3-51c5-4.7,11.3-7.4,18.8-8.8c5.3-1,10.7-1.3,17.9-1.3
			c39.5,0,71.8,30.6,71.8,68.6s-32.2,68.6-71.8,68.6c-7.4,0-13.6-0.5-19.4-1.7c-7.6-1.7-14.3-4.7-19.5-9.5
			C285.3,306.6,268.9,290.5,247.7,268.9z M312.8,299.7c3.8,3.5,11.2,5,23,5c26.7,0,48.1-20.3,48.1-44.9s-21.4-44.9-48.1-44.9
			c-11.4,0-17.9,1.2-20.5,3.6c-9.5,9.1-23.7,23.1-42.5,42.1C289.7,277.8,303.1,290.9,312.8,299.7z"/>
		<path d="M243.6,255.7l8.3-8.1l8.3,8.1c23.5,23,40.4,40.1,51,51.3c4.7,5,7.4,11.3,8.8,18.8c1,5.3,1.3,10.7,1.3,17.9
			c0,39.5-30.6,71.8-68.6,71.8s-68.6-32.2-68.6-71.8c0-7.4,0.5-13.6,1.7-19.4c1.7-7.6,4.7-14.3,9.5-19.5
			C205.8,293.2,221.9,276.8,243.6,255.7z M212.7,320.7c-3.5,3.8-5,11.2-5,23c0,26.7,20.3,48.1,44.9,48.1s44.9-21.4,44.9-48.1
			c0-11.4-1.2-17.9-3.6-20.5c-9.1-9.5-23.1-23.7-42.1-42.5C234.7,297.6,221.6,311,212.7,320.7z"/>
	</g>
</g>
</svg>
