<svg xmlns="http://www.w3.org/2000/svg" viewBox="0 0 512 512"><path d="M327 388c0-14-11-25-24-25h-25v-47h165c13 0 24-11 24-24v-96c0-9-6-18-15-22H58c-9 4-13 11-13 22v96c0 13 11 24 24 24h165v47h-25c-13 0-24 11-24 25H20v46h165c0 14 11 25 24 25h94c13 0 24-11 24-25h165v-46zM138 267H91v-46h47zm71 0h-24v-46h24zM47 25h64c23 0 34 13 34 29v49c0 15-11 29-34 29H47zm64 35c0-6-2-9-9-9H78v56h24c7 0 9-2 9-9zm47-35h31v38h38V25h31v107h-31V92h-38v42h-31zm198 26h-44c-7 0-9 5-9 9v36c0 4 2 9 9 9h44v24s-29 3-53 3c-23 0-31-14-31-29V54c0-16 11-29 31-29 24 0 53 2 53 2zm45 81h-31V25h64c22 0 31 13 31 29v20c0 15-11 29-31 29h-33zm33-63v-9c0-4-2-9-9-9h-24v27h24c7 0 9-4 9-9z"/></svg>