<svg xmlns="http://www.w3.org/2000/svg" viewBox="0 0 512 512"><path d="M468 147c-13-18-32-23-55-23H126V74c0-28-9-51-34-67C69-4 46 0 23 0v35h30c27 0 39 9 39 36v104h50v46H92v68h50v46H92v124h34v-11-51c0-7 3-11 9-11h79v50h192v-41c0-9 3-11 12-14 32-2 60-30 60-62V179c4-9 0-20-10-32zM250 425c-16 2-16 2-16-16v-37h19c-3 16-3 53-3 53zm37-2h-18v-53h18v53zm34-3c0 3-2 3-4 5h-12v-53h19c0 16 0 32-3 48zm37 0c0 3-2 5-4 5h-14v-53h18v48zm35 3s0 2 0 0c-19 2-19 2-19-14v-39h19v53zm18-117c0 6-5 11-12 11h-96c-7 0-11-5-11-11v-44h-60c-2 11-14 18-25 18-14 0-26-11-26-25s12-25 26-25c11 0 18 7 23 14h59v-40c0-6 5-11 12-11h96c7 0 12 5 12 11v102z"/></svg>