<svg xmlns="http://www.w3.org/2000/svg" viewBox="0 0 512 512"><path d="M200 100V51c0-15-11-28-33-28h-67v106h67c20 0 31-13 33-29zm-44 5h-25V49h27c7 0 9 2 9 9v38c0 7-2 9-11 9zm91 24h-36V23h25c7 0 7 0 9 2s29 40 35 51V23h32v106h-23c-4 0-6 0-9-4l-33-49zm127 5c-18 0-53-2-53-2v-25h51c6 0 9-2 9-7v-6c0-2 0-2-3-5-2 0-24-4-26-4-23-5-31-5-31-25v-9c0-17 8-28 37-28 18 0 49 2 49 2v24h-49c-2 0-4 0-4 5v2c0 2 2 2 4 4 0 0 32 5 32 7 20 5 22 11 22 27v11c0 20-9 29-38 29zm80 40H60c2 0 5-2 7-2h378c5 0 7 0 9 2zM329 388c0-14-11-25-24-25h-25v-47h165c14 0 25-11 25-24v-96c0-9-7-18-16-22H60c-9 4-15 11-15 22v96c0 13 11 24 24 24h165v47h-23c-13 0-24 11-24 25H22v46h165c0 14 11 25 24 25h94c13 0 24-11 24-25h165v-46zM140 267H93v-46h47zm71 0h-24v-46h24z"/></svg>