<?xml version="1.0" encoding="utf-8"?>
<!-- Generator: Adobe Illustrator 23.0.1, SVG Export Plug-In . SVG Version: 6.00 Build 0)  -->
<svg version="1.1" id="Layer_1" xmlns="http://www.w3.org/2000/svg" xmlns:xlink="http://www.w3.org/1999/xlink" x="0px" y="0px"
	 viewBox="0 0 512 512" style="enable-background:new 0 0 512 512;" xml:space="preserve">
<path d="M83,510.8c-20.1,0-41.5-8.3-56.9-23.7C9.5,471.7,0,448,0,426.7v-339C0,40.3,39.1,1.2,88.9,1.2h334.2
	c47.4,0,88.9,39.1,88.9,86.5v336.6c0,47.4-39.1,86.5-88.9,86.5H83z M88.9,40.3c-29.6,0-49.8,21.3-49.8,47.4v339c0,13,4.7,23.7,13,32
	c10.7,7.1,20.1,13,33.2,13h337.8c28.4,0,49.8-21.3,49.8-47.4V87.7c0-26.1-23.7-47.4-49.8-47.4H88.9z M253.6,367.4l-71.1-73.5
	l71.1-71.1l-34.4-36.7L109,293.9l110.2,106.7L253.6,367.4z M258.4,147l71.1,71.1l-71.1,73.5l36.7,36.7l110.2-110.2L292.7,113.8
	L258.4,147z"/>
</svg>
