<?xml version="1.0" encoding="utf-8"?>
<!-- Generator: Adobe Illustrator 23.0.1, SVG Export Plug-In . SVG Version: 6.00 Build 0)  -->
<svg version="1.1" id="Layer_1" xmlns="http://www.w3.org/2000/svg" xmlns:xlink="http://www.w3.org/1999/xlink" x="0px" y="0px"
	 viewBox="0 0 512 512" style="enable-background:new 0 0 512 512;" xml:space="preserve">
<path d="M497.4,164.5c-14.5-20-35.6-25.6-61.3-25.6H116.5V83.2c0-31.2-10-56.8-37.9-74.6C53-3.7,27.4,0.8,1.8,0.8v39h33.4
	c30.1,0,43.4,10,43.4,40.1v115.8h55.7v51.2H78.6v75.7h55.7v51.2H78.6V512h37.9v-12.3v-56.8c0-7.8,3.3-12.3,10-12.3h88v55.7h213.8
	v-45.7c0-10,3.3-12.3,13.4-15.6c35.6-2.2,66.8-33.4,66.8-69.1V200.2C513,190.1,508.5,177.9,497.4,164.5z M254.6,474.1
	c-17.8,2.2-17.8,2.2-17.8-17.8v-41.2h21.2C254.6,432.9,254.6,474.1,254.6,474.1z M295.8,471.9h-20v-59h20V471.9z M333.7,468.6
	c0,3.3-2.2,3.3-4.5,5.6h-13.4v-59H337C337,432.9,337,450.7,333.7,468.6z M374.9,468.6c0,3.3-2.2,5.6-4.5,5.6h-15.6v-59h20V468.6z
	 M413.9,471.9C413.9,471.9,413.9,474.1,413.9,471.9c-21.2,2.2-21.2,2.2-21.2-15.6v-43.4h21.2V471.9z M433.9,341.6
	c0,6.7-5.6,12.3-13.4,12.3H313.6c-7.8,0-12.3-5.6-12.3-12.3v-49h-66.8c-2.2,12.3-15.6,20-27.8,20c-15.6,0-29-12.3-29-27.8
	s13.4-27.8,29-27.8c12.3,0,20,7.8,25.6,15.6H298V228c0-6.7,5.6-12.3,13.4-12.3h106.9c7.8,0,13.4,5.6,13.4,12.3v113.6H433.9z"/>
</svg>
