<?xml version="1.0" encoding="utf-8"?>
<!-- Generator: Adobe Illustrator 23.0.1, SVG Export Plug-In . SVG Version: 6.00 Build 0)  -->
<svg version="1.1" id="Layer_1" xmlns="http://www.w3.org/2000/svg" xmlns:xlink="http://www.w3.org/1999/xlink" x="0px" y="0px"
	 viewBox="0 0 512 512" style="enable-background:new 0 0 512 512;" xml:space="preserve">
<path d="M189.7,137.9h-28.2c-7.3,0-7.3,0-12.5-5.2l-35.5-55.4h-3.1v60.6H74.7V17.8h28.2c7.3,0,7.3,0,10.4,4.2
	c2.1,0,33.4,46,40.7,55.4V17.8h35.5V137.9z M286.8,113.9H245l-6.3,26.1h-38.7c0,0,33.4-107.6,35.5-118.1c3.1-4.2,3.1-4.2,9.4-4.2
	h41.8c7.3,0,7.3,0,9.4,4.2c2.1,10.4,35.5,118.1,35.5,118.1h-37.6L286.8,113.9z M252.3,82.6h27.2l-9.4-38.7h-5.2L252.3,82.6z
	 M433.1,46h-50.2c-7.3,0-9.4,5.2-9.4,10.4v40.7c0,4.2,2.1,9.4,9.4,9.4h50.2v29.3c0,0-33.4,2.1-62.7,2.1c-24,0-35.5-16.7-35.5-33.4
	V49.1c0-16.7,11.5-34.5,35.5-34.5c29.3,0,62.7,3.1,62.7,3.1V46z M331.7,420c0-14.6-11.5-27.2-26.1-27.2h-26.1v-50.2h177.6
	c14.6,0,27.2-12.5,27.2-26.1V215.3c0-14.6-12.5-27.2-27.2-27.2H47.6c-13.6,0-26.1,12.5-26.1,27.2v103.4c0,14.6,12.5,26.1,26.1,26.1
	h178.7V396h-26.1c-14.6,0-27.2,11.5-27.2,26.1H-0.5v50.2h178.7c0,10.4,7.3,19.9,16.7,25.1h123.3c9.4-5.2,16.7-14.6,16.7-25.1h177.6
	v-50.2L331.7,420z M128,292.6H76.8v-53.3H128V292.6z M204.3,292.6h-26.1v-53.3h26.1V292.6z"/>
</svg>
