<?xml version="1.0" encoding="utf-8"?>
<!-- Generator: Adobe Illustrator 23.0.1, SVG Export Plug-In . SVG Version: 6.00 Build 0)  -->
<svg version="1.1" id="Layer_1" xmlns="http://www.w3.org/2000/svg" xmlns:xlink="http://www.w3.org/1999/xlink" x="0px" y="0px"
	 viewBox="0 0 512 512" style="enable-background:new 0 0 512 512;" xml:space="preserve">
<path d="M424.1,0H90.1C41.7,0,1.7,41.2,1.7,89.6v334.1c0,48.4,39.9,88.4,88.4,88.4h331.7c48.4,0,89.6-39.9,89.6-88.4V89.6
	C511.3,41.2,472.6,0,424.1,0z M403.6,364.3H110.6V199.7h84.7v-54.5h122.3v54.5h85.9V364.3z M320,265.1h25.4v38.7H320V265.1z
	 M168.7,265.1h26.6v38.7h-26.6V265.1z M217.2,265.1h26.6v38.7h-26.6V265.1z M269.2,265.1h25.4v38.7h-25.4V265.1z"/>
</svg>
