<?xml version="1.0" encoding="utf-8"?>
<!-- Generator: Adobe Illustrator 23.0.1, SVG Export Plug-In . SVG Version: 6.00 Build 0)  -->
<svg version="1.1" id="Layer_1" xmlns="http://www.w3.org/2000/svg" xmlns:xlink="http://www.w3.org/1999/xlink" x="0px" y="0px"
	 viewBox="0 0 512 512" style="enable-background:new 0 0 512 512;" xml:space="preserve">
<path d="M473.3,324.6c22.1,0,38.7,18.8,38.7,38.7s-18.8,37.6-38.7,37.6c-22.1,0-38.7-17.7-38.7-37.6S451.2,324.6,473.3,324.6
	 M473.3,165.3l-31,133.8l-133.8-31l73-45.3c-27.6-44.2-76.3-73-131.6-73c-76.3,0-140.4,54.2-152.6,129.4l-38.7-7.7
	c16.6-90.7,95.1-160.3,191.3-160.3c69.7,0,131.6,36.5,167,90.7L473.3,165.3z M0,363.3v37.6h154.8v-37.6H0z"/>
</svg>
