<?xml version="1.0" encoding="utf-8"?>
<!-- Generator: Adobe Illustrator 23.0.1, SVG Export Plug-In . SVG Version: 6.00 Build 0)  -->
<svg version="1.1" id="Layer_1" xmlns="http://www.w3.org/2000/svg" xmlns:xlink="http://www.w3.org/1999/xlink" x="0px" y="0px"
	 viewBox="0 0 512 512" style="enable-background:new 0 0 512 512;" xml:space="preserve">
<path d="M179.9,344.4h23.6v38h-23.6V344.4z M129.5,344.4h23.6v38h-23.6V344.4z M506.9,434.9v50.4H328c0,14.4-9.3,26.7-23.6,26.7
	H203.6c-12.3,0-23.6-12.3-23.6-26.7H5.1v-50.4H182c0-14.4,9.3-25.7,23.6-25.7h23.6V366H74v-30.8c0-60.7,122.3-93.6,182-93.6
	s182,32.9,182,93.6V366H282.7v43.2h23.6c12.3,0,23.6,11.3,25.7,25.7H506.9z M256,182c50.4,0,90.5-41.1,90.5-91.5S306.4,0,256,0
	s-90.5,40.1-90.5,90.5S205.6,182,256,182z"/>
</svg>
