<?xml version="1.0" encoding="utf-8"?>
<!-- Generator: Adobe Illustrator 23.0.1, SVG Export Plug-In . SVG Version: 6.00 Build 0)  -->
<svg version="1.1" id="Layer_1" xmlns="http://www.w3.org/2000/svg" xmlns:xlink="http://www.w3.org/1999/xlink" x="0px" y="0px"
	 viewBox="0 0 512 512" style="enable-background:new 0 0 512 512;" xml:space="preserve">
<path d="M298.7,236.4l-71.5,123.4c12.7,2.3,26.5,4.6,39.2,4.6c43.8,0,84.2-15,115.3-41.5L316,206.4 M92.3,236.4
	c16.1,54.2,56.5,95.7,107.2,115.3l66.9-115.3 M203,182.2L131.5,58.8c-30,32.3-49.6,76.1-49.6,123.4c0,12.7,2.3,24.2,2.3,36.9h138.4
	 M446.3,145.3H307.9l5.8,10.4L399,305.6c30-32.3,49.6-76.1,49.6-123.4C448.6,169.5,448.6,158,446.3,145.3 M440.5,128
	C424.4,73.8,384,32.3,333.3,12.7L266.4,128 M219.1,155.7L305.6,4.6C292.9,2.3,279.1,0,266.4,0c-43.8,0-84.2,15-115.3,41.5
	L219.1,155.7z M461.3,416.3c0,54.2-86.5,95.7-194.9,95.7S71.5,467,71.5,416.3c0-27.7,23.1-51.9,57.7-69.2
	c6.9,6.9,16.1,12.7,24.2,17.3c-21.9,9.2-34.6,24.2-34.6,39.2c0,34.6,66.9,61.1,145.3,61.1c80.7,0,145.3-26.5,145.3-61.1
	c0-15-12.7-30-34.6-39.2c9.2-4.6,17.3-12.7,24.2-17.3C438.2,364.4,461.3,388.6,461.3,416.3z"/>
</svg>
