<svg xmlns="http://www.w3.org/2000/svg" viewBox="0 0 512 512"><path d="M284 207l-62 107c11 2 23 4 34 4 38 0 73-13 100-36l-57-101m-194 26c14 47 49 83 93 100l58-100m-55-47L139 53c-26 28-43 66-43 107 0 11 2 21 2 32h120m194-64H292l5 9 74 130c26-28 43-66 43-107 0-11 0-21-2-32m-5-15c-14-47-49-83-93-100l-58 100m-41 24L290 6c-11-2-23-4-34-4-38 0-73 13-100 36zm210 226c0 47-75 83-169 83S87 407 87 363c0-24 20-45 50-60 6 6 14 11 21 15-19 8-30 21-30 34 0 30 58 53 126 53 70 0 126-23 126-53 0-13-11-26-30-34 8-4 15-11 21-15 34 15 54 36 54 60z"/></svg>