<svg xmlns="http://www.w3.org/2000/svg" viewBox="0 0 512 512"><path d="M93 210v46h47v-46zm94 46h24v-46h-24zm91 94h23c13 0 24 11 24 24h165v47H325c0 13-11 24-24 24h-92c-13 0-24-11-24-24H22v-47h165c0-13 11-24 24-24h23v-47H69c-13 0-22-11-22-24v-94c0-13 11-24 22-24h374c13 0 22 11 22 24v94c0 13-11 24-22 24H278zM100 5h34v84h51v27h-85zm96 82V36c0-16 11-31 33-31h38c22 0 34 13 34 31v51c0 16-12 31-34 31h-38c-22-2-33-15-33-31zm33-47v40c0 5 3 9 9 9h18c7 0 9-4 9-9V40c0-4-2-9-9-9h-18c-6 0-9 5-9 9zm132 11h53l-2 58c0 5-5 7-5 7s-35 2-60 2c-22 0-33-13-33-31V34c0-16 11-31 33-31 27 0 60 2 60 2v26h-51c-7 0-11 5-11 9v40c0 5 2 9 9 9h27V76l-23-2V51z"/></svg>