<svg xmlns="http://www.w3.org/2000/svg" viewBox="0 0 512 512"><path d="M196 118h-27c-6 0-6 0-11-4l-33-51h-3v55H89V7h27c6 0 6 0 9 4 2 0 31 43 38 52V7h33zm113-84h-35v84h-34V34h-33V7h102zm43 84h-34V7h67c22 0 34 13 34 29v22c0 16-12 29-34 29h-33zm35-67v-8c0-5-2-9-9-9h-24v29h24c7-3 9-5 9-12zM89 212v47h47v-47zm94 47h24v-47h-24zm93 93h22c14 0 25 11 25 24h165v47H323c0 14-11 25-25 25h-91c-13 0-24-11-24-25H20v-49h165c0-13 11-24 24-24h23v-47H67c-14 0-22-11-22-24v-92c0-13 11-24 22-24h374c13 0 22 11 22 24v94c0 13-11 24-22 24H276z"/></svg>