<?xml version="1.0" encoding="utf-8"?>
<!-- Generator: Adobe Illustrator 23.0.1, SVG Export Plug-In . SVG Version: 6.00 Build 0)  -->
<svg version="1.1" id="Layer_1" xmlns="http://www.w3.org/2000/svg" xmlns:xlink="http://www.w3.org/1999/xlink" x="0px" y="0px"
	 viewBox="0 0 512 512" style="enable-background:new 0 0 512 512;" xml:space="preserve">
<path d="M307.7,461.5c27.6,0,50.5-23,50.5-50.5V78.1H179.1c-14.9,0-25.3,10.3-25.3,25.3v256H76.9V78.1c0-43.6,33.3-76.9,76.9-76.9
	h281.3c43.6,0,76.9,33.3,76.9,76.9v25.3H409.8v332.9c0,43.6-33.3,76.9-76.9,76.9h-256C33.3,513.1,0,479.9,0,436.2V411h256
	C256,438.5,279,461.5,307.7,461.5z M256,163l-76.9,35.6v50.5c0,45.9,33.3,91.8,76.9,102.2c43.6-10.3,76.9-56.3,76.9-102.2v-50.5
	L256,163z M256,257.1h58.5c-4.6,35.6-27.6,66.6-58.5,76.9V257.1h-58.5v-48.2l58.5-26.4V257.1z"/>
</svg>
