<?xml version="1.0" encoding="utf-8"?>
<!-- Generator: Adobe Illustrator 23.0.1, SVG Export Plug-In . SVG Version: 6.00 Build 0)  -->
<svg version="1.1" id="Layer_1" xmlns="http://www.w3.org/2000/svg" xmlns:xlink="http://www.w3.org/1999/xlink" x="0px" y="0px"
	 viewBox="0 0 512 512" style="enable-background:new 0 0 512 512;" xml:space="preserve">
<path d="M193.3,103.7V50.7c0-16.2-11.9-30.2-35.6-30.2H85.3V135h72.4C179.3,135,191.2,121,193.3,103.7z M145.8,109.1h-27V48.6H148
	c7.6,0,9.7,2.2,9.7,9.7v41.1C157.7,106.9,155.5,109.1,145.8,109.1z M244.1,135h-38.9V20.5h27c7.6,0,7.6,0,9.7,2.2
	s31.3,43.2,37.8,55.1V20.5h34.6V135h-24.8c-4.3,0-6.5,0-9.7-4.3l-35.6-52.9V135z M381.3,140.4c-19.4,0-57.3-2.2-57.3-2.2v-27h55.1
	c6.5,0,9.7-2.2,9.7-7.6v-6.5c0-2.2,0-2.2-3.2-5.4c-2.2,0-25.9-4.3-28.1-4.3c-24.8-5.4-33.5-5.4-33.5-27v-9.7
	c0-18.4,8.6-30.2,40-30.2c19.4,0,52.9,2.2,52.9,2.2v25.9H364c-2.2,0-4.3,0-4.3,5.4v2.2c0,2.2,2.2,2.2,4.3,4.3c0,0,34.6,5.4,34.6,7.6
	c21.6,5.4,23.8,11.9,23.8,29.2v11.9C422.4,130.7,412.6,140.4,381.3,140.4z M467.7,183.6H42.1c2.2,0,5.4-2.2,7.6-2.2H458
	C463.4,181.5,465.6,181.5,467.7,183.6z M332.7,414.8c0-15.1-11.9-27-25.9-27h-27V337H458c15.1,0,27-11.9,27-25.9V207.4
	c0-9.7-7.6-19.4-17.3-23.8H42.1c-9.7,4.3-16.2,11.9-16.2,23.8v103.7c0,14,11.9,25.9,25.9,25.9h178.2v50.8h-24.8
	c-14,0-25.9,11.9-25.9,27H1.1v49.7h178.2c0,15.1,11.9,27,25.9,27h101.5c14,0,25.9-11.9,25.9-27h178.2v-49.7H332.7z M128.5,284.1
	H77.8v-49.7h50.8V284.1z M205.2,284.1h-25.9v-49.7h25.9V284.1z"/>
</svg>
