<svg xmlns="http://www.w3.org/2000/svg" viewBox="0 0 512 512"><path d="M17 130h39v248h229v39H69c-29 0-52-25-52-52m177-148h14v-23h-15v23zm30 0h16v-23h-16zm59 0h16v-23h-16zm114 47V89c0-30-24-52-52-52H146c-30 0-52 24-52 52v199c0 30 24 52 52 52h184c2-38 31-71 67-76zM158 155h50v-32h73v32h51v99H158zm95 62h16v-23h-16zm245 128h-21c0 32-26 58-57 58-12 0-23-4-31-9l10-10c5 3 12 5 21 5 24 0 43-19 43-44h-20l29-29m-75 29l-29 30-30-30h21c0-31 26-57 58-57 12 0 22 4 31 9l-11 10c-5-3-12-5-20-5-25 0-44 19-44 43"/></svg>