<svg xmlns="http://www.w3.org/2000/svg" viewBox="0 0 512 512"><path d="M26 154h124c10 0 15-5 15-14V73c0-10-5-15-15-15H26c-12 0-15 5-17 15v64c0 12 5 17 17 17zm251 23H24c-10 0-15 5-15 15v67c0 10 5 15 15 15h201c2-13 5-23 10-33 10-27 27-47 42-64zM150 294H24c-10 0-15 5-15 14v68c0 9 5 14 15 14h126c10 0 15-5 15-14v-68c0-9-5-14-15-14zM332 82V58H203c-10 0-15 5-15 15v64c0 12 5 17 17 17h92l2-2c18-17 28-40 33-70zM227 303v-9h-22c-10 0-15 5-15 14v65c-2 12 3 17 15 17h75c-28-22-45-52-53-87zm25-4c8 34 25 62 57 79 10 5 20 10 33 12h2l-2-12c-3-12-5-25-5-37 2-15 7-28 20-42 12-15 22-30 29-45l15-28 13 28c5 10 7 17 10 27 10 37 10 67-5 95l-5 7 7-5c3-2 8-5 10-7 8-5 17-10 25-15 30-23 45-53 47-87 3-35-7-70-30-105-25-39-59-72-109-101 0 0-2 0-2-3h-3v10c0 5 0 10-2 15-5 35-18 64-40 87-5 5-13 12-18 17-14 18-32 37-39 60-8 20-10 35-8 50z"/></svg>