<?xml version="1.0" encoding="utf-8"?>
<!-- Generator: Adobe Illustrator 23.0.1, SVG Export Plug-In . SVG Version: 6.00 Build 0)  -->
<svg version="1.1" id="Layer_1" xmlns="http://www.w3.org/2000/svg" xmlns:xlink="http://www.w3.org/1999/xlink" x="0px" y="0px"
	 viewBox="0 0 512 512" style="enable-background:new 0 0 512 512;" xml:space="preserve">
<path d="M77.7,240.7V291h51.4v-50.3H77.7z M180.5,291h26.3v-50.3h-26.3V291z M280.1,393.8h25.2c14.2,0,26.3,12,26.3,26.3H512v51.4
	H331.5c0,14.2-12,26.3-26.3,26.3H204.6c-14.2,0-26.3-12-26.3-26.3H0v-51.4h180.5c0-14.2,12-26.3,26.3-26.3h25.2v-51.4H51.4
	c-14.2,0-24.1-12-24.1-26.3V213.3c0-14.2,12-26.3,24.1-26.3h409.2c14.2,0,24.1,12,24.1,26.3v102.8c0,14.2-12,26.3-24.1,26.3H280.1
	V393.8z M85.3,16.4h37.2v91.9h55.8v29.5h-93V16.4z M190.4,106.1V50.3c0-17.5,12-33.9,36.1-33.9H268c24.1,0,37.2,14.2,37.2,33.9v55.8
	c0,17.5-13.1,33.9-37.2,33.9h-41.6C202.4,137.8,190.4,123.6,190.4,106.1z M226.5,54.7v43.8c0,5.5,3.3,9.8,9.8,9.8H256
	c7.7,0,9.8-4.4,9.8-9.8V54.7c0-4.4-2.2-9.8-9.8-9.8h-19.7C229.7,44.9,226.5,50.3,226.5,54.7z M370.9,66.7h58l-2.2,63.5
	c0,5.5-5.5,7.7-5.5,7.7s-38.3,2.2-65.6,2.2c-24.1,0-36.1-14.2-36.1-33.9v-58c0-17.5,12-33.9,36.1-33.9c29.5,0,65.6,2.2,65.6,2.2
	v28.4h-55.8c-7.7,0-12,5.5-12,9.8v43.8c0,5.5,2.2,9.8,9.8,9.8h29.5V94.1l-25.2-2.2V66.7H370.9z"/>
</svg>
