<?xml version="1.0" encoding="utf-8"?>
<!-- Generator: Adobe Illustrator 23.0.1, SVG Export Plug-In . SVG Version: 6.00 Build 0)  -->
<svg version="1.1" id="Layer_1" xmlns="http://www.w3.org/2000/svg" xmlns:xlink="http://www.w3.org/1999/xlink" x="0px" y="0px"
	 viewBox="0 0 512 512" style="enable-background:new 0 0 512 512;" xml:space="preserve">
<path d="M408.2,382.1h-33.3c-4.4,0-6.7,2.2-6.7,6.7v27.8c0,4.4,2.2,6.7,6.7,6.7h33.3v17.8c0,0-22.2,2.2-40,2.2
	c-16.7,0-23.3-11.1-23.3-22.2v-38.9c0-11.1,6.7-23.3,23.3-23.3c17.8,0,40,2.2,40,2.2V382.1z M427,306.5
	C429.3,306.5,429.3,306.5,427,306.5c15.5-26.7,24.4-58.9,24.4-93.3C451.5,95.5,356,0,238.2,0C119.4,0,23.9,95.5,23.9,213.2
	c0,118.8,95.5,214.4,214.4,214.4c11.1,0,22.2-2.2,34.4-2.2c8.9,50,54.4,86.6,106.6,86.6c58.9,0,108.8-50,108.8-110
	C488.1,361,463.7,325.4,427,306.5z M351.5,134.4l25.5,24.4l-47.8,47.8l47.8,47.8v2.2l-23.3,23.3h-2.2l-72.2-73.3L351.5,134.4z
	 M238.2,70l72.2,73.3L286,167.7l-47.8-47.8l-50,47.8l-25.5-24.4L238.2,70z M97.2,256.6l47.8-50l-47.8-47.8l24.4-24.4l73.3,72.2
	l-73.3,73.3L97.2,256.6z M238.2,343.2L162.7,271l25.5-25.5l47.8,47.8l47.8-47.8l24.4,25.5L238.2,343.2z M379.3,488.7
	c-25.5,0-45.5-11.1-62.2-26.7c-2.2-2.2-2.2-2.2-4.4-5.6l-2.2-2.2c-11.1-13.3-20-33.3-20-54.4c0-41.1,30-74.4,67.7-84.4
	c6.7-2.2,12.2-2.2,18.9-2.2c13.3,0,24.4,2.2,36.7,10c28.9,13.3,47.8,43.3,47.8,76.6C465.9,449.8,427,488.7,379.3,488.7z"/>
</svg>
