<?xml version="1.0" encoding="utf-8"?>
<!-- Generator: Adobe Illustrator 23.0.1, SVG Export Plug-In . SVG Version: 6.00 Build 0)  -->
<svg version="1.1" id="Layer_1" xmlns="http://www.w3.org/2000/svg" xmlns:xlink="http://www.w3.org/1999/xlink" x="0px" y="0px"
	 viewBox="0 0 512 512" style="enable-background:new 0 0 512 512;" xml:space="preserve">
<path d="M257.5,1.5c-140,0-255,115-255,255s115,254,255,254s255-114,255-254S397.5,1.5,257.5,1.5z M389.5,123.5v46l-45-46H389.5z
	 M257.5,75.5l79,79l-28,28l-51-54l-53,54l-26-28L257.5,75.5z M125.5,123.5h45l-45,49V123.5z M76.5,256.5l79-79l28,28l-53,51l53,53
	l-28,28L76.5,256.5z M125.5,388.5v-48l48,48H125.5z M257.5,439.5l-79-81l26-26l53,51l53-53l29,28L257.5,439.5z M389.5,388.5h-48
	l48-48V388.5z M359.5,337.5l-28-28l53-53l-53-54l28-25l79,81L359.5,337.5z"/>
</svg>
