<?xml version="1.0" encoding="utf-8"?>
<!-- Generator: Adobe Illustrator 23.0.1, SVG Export Plug-In . SVG Version: 6.00 Build 0)  -->
<svg version="1.1" id="Layer_1" xmlns="http://www.w3.org/2000/svg" xmlns:xlink="http://www.w3.org/1999/xlink" x="0px" y="0px"
	 viewBox="0 0 512 512" style="enable-background:new 0 0 512 512;" xml:space="preserve">
<path d="M256,0C115.3,0,0,115.3,0,256s115.3,256,256,256s256-115.3,256-256S396.7,0,256,0z M256,480.9
	C133.8,480.9,31.1,380.5,31.1,256C31.1,133.8,131.5,31.1,256,31.1c122.2,0,224.9,99.2,224.9,224.9
	C478.6,380.5,378.2,480.9,256,480.9z M199.5,212.2l-27.7-25.4l81.9-81.9l81.9,81.9l-28.8,27.7l-53-53L199.5,212.2z M310.2,302.1
	l27.7,27.7L256,411.7l-81.9-81.9l28.8-27.7l53,53L310.2,302.1z M207.6,258.3l-81.9,81.9L98,312.5l53-54.2l-53-56.5l27.7-27.7
	L207.6,258.3z M411.7,201.8l-53,54.2l53,53L384,337.9L302.1,256l81.9-81.9L411.7,201.8z"/>
</svg>
