<?xml version="1.0" encoding="utf-8"?>
<!-- Generator: Adobe Illustrator 23.0.1, SVG Export Plug-In . SVG Version: 6.00 Build 0)  -->
<svg version="1.1" id="Layer_1" xmlns="http://www.w3.org/2000/svg" xmlns:xlink="http://www.w3.org/1999/xlink" x="0px" y="0px"
	 viewBox="0 0 512 512" style="enable-background:new 0 0 512 512;" xml:space="preserve">
<path d="M451.8,223.2c-23-22.9-52.5-32.7-80.9-32.7c-3.3,0-7.7,0-10.9,2.2c-25.2,2.2-50.3,13.1-70,32.7
	c-18.6,18.5-30.6,45.8-31.7,70.8c-2.2,24,3.3,46.9,16.4,69.8c2.2,2.2,2.2,4.4,2.2,4.4l-109.4,109l32.8,32.7l111.6-111.2
	c18.6,12,40.5,17.4,61.2,17.4c28.4,0,59.1-12,79.8-32.7C495.6,339.8,495.6,266.8,451.8,223.2z M442,337.6
	c-4.4,7.6-9.8,15.3-15.3,22.9c-5.5,5.4-13.1,9.8-19.7,13.1c-10.9,6.5-24.1,9.8-38.3,9.8c-13.1,0-24.1-3.3-36.1-9.8
	c-7.7-3.3-13.1-7.6-19.7-13.1c-30.6-30.5-30.6-81.7,0-114.4c16.4-15.3,37.2-22.9,58-22.9h7.7c17.5,2.2,36.1,9.8,50.3,22.9
	C451.8,273.3,457.3,309.3,442,337.6z M393.9,278.8h-48.1v48h48.1V278.8z M352.3,173L261.5,17.2c-13.1-22.9-33.9-22.9-48.1,0
	L33,326.7c-13.1,22.9-3.3,41.4,24.1,41.4h193.6l1.1-2.2c-26.2-51.2-18.6-114.4,23-155.9C296.5,188.3,322.8,177.4,352.3,173z
	 M165.3,258h-26.2v-29.4h28.4V258H165.3z M223.3,258h-28.4v-29.4h28.4V258z"/>
</svg>
