<?xml version="1.0" encoding="utf-8"?>
<!-- Generator: Adobe Illustrator 23.0.1, SVG Export Plug-In . SVG Version: 6.00 Build 0)  -->
<svg version="1.1" id="Layer_1" xmlns="http://www.w3.org/2000/svg" xmlns:xlink="http://www.w3.org/1999/xlink" x="0px" y="0px"
	 viewBox="0 0 512 512" style="enable-background:new 0 0 512 512;" xml:space="preserve">
<path d="M310.4,335h-5.2c14.5,0,24.9-12.4,24.9-23.8h4.1C334.3,325.6,321.8,335,310.4,335z M178.8,259.3h2.1
	c0-11.4,10.4-23.8,24.9-23.8h-3.1C191.2,235.5,178.8,244.8,178.8,259.3z M330.1,134.9H184l72.6,97.4L330.1,134.9z M330.1,259.3h4.1
	c0-14.5-12.4-23.8-23.8-23.8h-5.2C319.7,235.5,330.1,247.9,330.1,259.3z M202.6,335h3.1c-14.5,0-24.9-12.4-24.9-23.8h-2.1
	C178.8,325.6,191.2,335,202.6,335z M330.1,259.3c0-11.4-10.4-23.8-24.9-23.8h-99.5c-14.5,0-24.9,12.4-24.9,23.8H0.5v51.8h180.3
	c0,11.4,10.4,23.8,24.9,23.8h99.5c14.5,0,24.9-12.4,24.9-23.8h182.4v-51.8H330.1z"/>
</svg>
