<?xml version="1.0" encoding="utf-8"?>
<!-- Generator: Adobe Illustrator 23.0.1, SVG Export Plug-In . SVG Version: 6.00 Build 0)  -->
<svg version="1.1" id="Layer_1" xmlns="http://www.w3.org/2000/svg" xmlns:xlink="http://www.w3.org/1999/xlink" x="0px" y="0px"
	 viewBox="0 0 512 512" style="enable-background:new 0 0 512 512;" xml:space="preserve">
<path d="M319.7,419.8h166.6v-66H319.7c-4.5-13.4-15.7-23.5-30.2-23.5h-13.4v-30.2h154.3c17.9,0,32.4-13.4,32.4-32.4V261h-19v6.7
	c0,6.7-6.7,13.4-13.4,13.4H257.1v66h32.4c7.8,0,14.5,6.7,14.5,13.4v10.1h163.2v30.2H304.1v8.9c0,7.8-6.7,14.5-14.5,14.5h-92.8
	c-7.8,0-14.5-6.7-14.5-14.5v-8.9H19v-30.2h163.2v-10.1c0-6.7,6.7-13.4,14.5-13.4h32.4v-66H55.9c-6.7,0-13.4-6.7-13.4-13.4v-93.9
	c-2.2-6.7,4.5-13.4,13.4-13.4h306.3v-6.7l2.2-10.1H55.9c-17.9,0-32.4,14.5-32.4,32.4V270c0,19,14.5,32.4,32.4,32.4h154.3v30.2h-13.4
	c-14.5,0-27.9,10.1-30.2,23.5H0v66h166.6c4.5,13.4,15.7,23.5,30.2,23.5h92.8C304.1,443.2,315.2,431,319.7,419.8z M154.3,246.5h23.5
	v-47h-23.5V246.5z M70.4,246.5h47v-47h-47V246.5z M418.1,113.5c0-14.5,12.3-25.7,25.7-25.7c14.5,0,25.7,8.9,25.7,25.7v21.2h21.2
	v-21.2c0-25.7-21.2-47-47-47s-47,21.2-47,47v21.2h23.5v-21.2H418.1z M512,160.4v58.1c0,11.2-10.1,19-19,19h-96.1
	c-11.2,0-20.1-7.8-20.1-19v-58.1c0-2.2,0-4.5,2.2-6.7c2.2-7.8,8.9-12.3,15.7-12.3h96.1C501.9,141.4,512,148.1,512,160.4z
	 M458.3,176.1c0-4.5-2.2-8.9-7.8-11.2c-2.2-2.2-4.5-2.2-6.7-2.2c-6.7,0-13.4,4.5-13.4,13.4c0,5.6,2.2,10.1,4.5,12.3v16.8
	c0,4.5,4.5,6.7,6.7,6.7c4.5,0,6.7-4.5,6.7-6.7v-16.8v-2.2C456.1,183.9,458.3,181.7,458.3,176.1z"/>
</svg>
