<?xml version="1.0" encoding="utf-8"?>
<!-- Generator: Adobe Illustrator 23.0.1, SVG Export Plug-In . SVG Version: 6.00 Build 0)  -->
<svg version="1.1" id="Layer_1" xmlns="http://www.w3.org/2000/svg" xmlns:xlink="http://www.w3.org/1999/xlink" x="0px" y="0px"
	 viewBox="0 0 512 512" style="enable-background:new 0 0 512 512;" xml:space="preserve">
<path d="M171.8,219.1h19.7v32.4h-19.7V219.1z M133.5,251.5h20.8v-32.4h-20.8V251.5z M211.1,251.5h20.8v-32.4h-20.8V251.5z
	 M294.3,417.1H68.9C31.7,417.1,0,385.8,0,346.6V75.9C0,35.6,31.7,6.5,68.9,6.5h264.8c38.3,0,68.9,31.3,68.9,69.4v237.2
	C346.8,315.3,303,360.1,294.3,417.1z M87.5,299.6h230.8V165.4h-66.7v-43.6h-97.4v43.6H87.5V299.6z M249.4,251.5h19.7v-32.4h-19.7
	V251.5z M512,432.8h-27.4c0,41.4-32.8,72.7-71.1,72.7c-13.1,0-26.3-6.7-39.4-11.2l13.1-13.4c8.8,2.2,17.5,6.7,24.1,6.7
	c31.7,0,55.8-24.6,55.8-57.1h-26.3l35-35.8 M387.3,432.8l-36.1,36.9L314,432.8h28.4c0-38,33.9-72.7,71.1-72.7
	c13.1,0,27.4,4.5,40.5,12.3l-13.1,13.4c-9.8-2.2-18.6-4.5-25.2-4.5c-30.6,0-55.8,24.6-55.8,55.9"/>
</svg>
