<?xml version="1.0" encoding="utf-8"?>
<!-- Generator: Adobe Illustrator 23.0.1, SVG Export Plug-In . SVG Version: 6.00 Build 0)  -->
<svg version="1.1" id="Layer_1" xmlns="http://www.w3.org/2000/svg" xmlns:xlink="http://www.w3.org/1999/xlink" x="0px" y="0px"
	 viewBox="0 0 512 512" style="enable-background:new 0 0 512 512;" xml:space="preserve">
<path d="M307.7,242.8c34.9,0,63.7-28.8,63.7-63.7s-28.8-63.7-63.7-63.7c-36.1,0-64.9,28.8-64.9,63.7S271.6,242.8,307.7,242.8
	 M307.7,0c98.6,0,179.1,79.3,179.1,179.1c0,134.6-179.1,332.9-179.1,332.9S127.4,313.7,127.4,179.1C127.4,80.5,207.9,0,307.7,0
	 M76.9,179.1c0,115.4,129.8,272.8,153.8,302.9l-26.4,30c0,0-179.1-198.3-179.1-332.9c0-81.7,54.1-150.2,128.6-171.9
	C105.8,49.3,76.9,110.6,76.9,179.1z"/>
</svg>
