<?xml version="1.0" encoding="utf-8"?>
<!-- Generator: Adobe Illustrator 23.0.1, SVG Export Plug-In . SVG Version: 6.00 Build 0)  -->
<svg version="1.1" id="Layer_1" xmlns="http://www.w3.org/2000/svg" xmlns:xlink="http://www.w3.org/1999/xlink" x="0px" y="0px"
	 viewBox="0 0 512 512" style="enable-background:new 0 0 512 512;" xml:space="preserve">
<path d="M308.4,346h-27v-47.8h180.7c14.5,0,23.9-12.5,23.9-27v-23.9h-93.5c-21.8,0-41.5-16.6-41.5-40.5v-62.3H48.8
	c-12.5,0-21.8,11.4-21.8,26v100.7c0,14.5,11.4,23.9,26,23.9h180.7V346h-27c-13.5-5.2-23.9,9.3-23.9,21.8H0v47.8h180.7
	c0,14.5,12.5,27,23.9,27h103.9c13.5,0,26-12.5,26-27H512v-47.8H334.4C336.5,358.5,321.9,346,308.4,346z M127.7,247.3H76.9v-53h50.9
	V247.3z M206.7,247.3h-23.9v-53h23.9V247.3z M490.2,108.2h-7.3V93.6c0-21.8-16.6-38.4-40.5-38.4c-21.8-2.1-40.5,16.6-40.5,38.4v16.6
	h-7.3c-9.3,0-16.6,7.3-16.6,17.7v76.9c0,9.3,7.3,16.6,16.6,16.6h95.5c10.4,0,17.7-7.3,17.7-16.6v-80
	C507.8,115.4,500.6,108.2,490.2,108.2z M418.5,93.6c0-11.4,9.3-23.9,23.9-23.9s23.9,9.3,23.9,23.9v16.6h-47.8V93.6z M442.4,179.8
	c-9.3,0-16.6-7.3-16.6-16.6c0-9.3,7.3-16.6,16.6-16.6s16.6,7.3,16.6,16.6C459,172.6,451.8,179.8,442.4,179.8z"/>
</svg>
