<?xml version="1.0" encoding="utf-8"?>
<!-- Generator: Adobe Illustrator 23.0.1, SVG Export Plug-In . SVG Version: 6.00 Build 0)  -->
<svg version="1.1" id="Layer_1" xmlns="http://www.w3.org/2000/svg" xmlns:xlink="http://www.w3.org/1999/xlink" x="0px" y="0px"
	 viewBox="0 0 512 512" style="enable-background:new 0 0 512 512;" xml:space="preserve">
<path d="M204.2,491.5h101.5c4.3,0,6.5,0,9.7-2.2h-121C197.7,491.5,199.8,491.5,204.2,491.5z M235.5,104.8h36.7
	c21.6,0,33.5-15.1,33.5-31.3V51.8c0-17.3-9.7-31.3-33.5-31.3H202v115.6h33.5V104.8z M235.5,48.6h27c6.5,0,9.7,5.4,9.7,9.7v9.7
	c0,5.4-3.2,9.7-9.7,9.7h-27V48.6z M331.6,414.8c0-15.1-11.9-27-25.9-27h-27v-49.7h178.2c14,0,25.9-13,25.9-27V207.4
	c0-14-11.9-25.9-25.9-25.9H48.6c-15.1,0-27,11.9-27,25.9v103.7c0,14,11.9,27,27,27h177.1v49.7h-21.6c-14,0-25.9,11.9-25.9,27H0v52.9
	h178.2c0,9.7,6.5,19.4,16.2,23.8h123.1c9.7-4.3,16.2-14,16.2-23.8H512v-50.8H333.8v-2.2H331.6z M127.5,287.3H76.7v-50.8h50.8V287.3z
	 M204.2,287.3h-25.9v-50.8h25.9V287.3z"/>
</svg>
