<?xml version="1.0" encoding="utf-8"?>
<!-- Generator: Adobe Illustrator 23.0.1, SVG Export Plug-In . SVG Version: 6.00 Build 0)  -->
<svg version="1.1" id="Layer_1" xmlns="http://www.w3.org/2000/svg" xmlns:xlink="http://www.w3.org/1999/xlink" x="0px" y="0px"
	 viewBox="0 0 512 512" style="enable-background:new 0 0 512 512;" xml:space="preserve">
<path d="M332.7,413.8c0-15.1-11.9-27-25.9-27h-27V336h178.3c14,0,25.9-11.9,25.9-25.9V206.3c0-9.7-6.5-19.5-16.2-23.8H42
	c-9.7,4.3-14,11.9-14,23.8V310c0,14,11.9,25.9,25.9,25.9h178.3v50.8h-27c-14,0-25.9,11.9-25.9,27H1v49.7h178.3
	c0,15.1,11.9,27,25.9,27h101.6c14,0,25.9-11.9,25.9-27H511v-49.7H332.7z M128.5,283H77.7v-49.7h50.8V283z M205.2,283h-25.9v-49.7
	h25.9V283z M30.1,21.5h69.2c24.9,0,36.7,14,36.7,31.3v53c0,16.2-11.9,31.3-36.7,31.3H30.1V21.5z M99.3,59.3c0-6.5-2.2-9.7-9.7-9.7
	H63.6v60.5h25.9c7.6,0,9.7-2.2,9.7-9.7V59.3z M150.1,21.5h33.5v41.1h41.1V21.5h33.5v115.6h-33.5V93.9h-41.1v45.4h-33.5V21.5z
	 M364.1,49.6h-47.5c-7.6,0-9.7,5.4-9.7,9.7v38.9c0,4.3,2.2,9.7,9.7,9.7h47.5v25.9c0,0-31.3,3.2-57.3,3.2
	c-24.9,0-33.5-15.1-33.5-31.3v-53c0-17.3,11.9-31.3,33.5-31.3c25.9,0,57.3,2.2,57.3,2.2V49.6z M412.7,137.1h-33.5V21.5h69.2
	c23.8,0,33.5,14,33.5,31.3v21.6c0,16.2-11.9,31.3-33.5,31.3h-35.7V137.1z M448.4,69v-9.7c0-4.3-2.2-9.7-9.7-9.7h-25.9v29.2h25.9
	C446.2,78.8,448.4,74.5,448.4,69z"/>
</svg>
