<svg xmlns="http://www.w3.org/2000/svg" viewBox="0 0 512 512"><path d="M372 332h-26v-25h26zm0-103h-26v52h26zm62 126c-21 21-48 30-74 30-20 0-39-5-57-16L200 472l-30-30 101-101c-2-2-2-4-2-4-12-19-17-42-16-65 2-25 13-48 30-66 18-17 41-26 64-30 4 0 7-2 11-2 26 0 55 11 74 31 43 42 43 109 2 150zm-23-127c-12-13-30-20-46-22h-7c-20 0-37 7-53 22-29 28-29 76 0 106 5 5 12 9 17 12 11 6 24 9 34 9 13 0 23-3 36-9 7-3 12-7 17-12 7-7 11-14 14-21 16-29 11-62-12-85zm-140-34c-39 39-46 97-21 145l-2 2H69c-25 0-34-18-21-39L214 15c13-21 32-21 45 0l83 145c-27 4-51 14-71 34zm-101 18h-25v26h27v-26zm53 0h-26v26h26z"/></svg>