<?xml version="1.0" encoding="utf-8"?>
<!-- Generator: Adobe Illustrator 23.0.1, SVG Export Plug-In . SVG Version: 6.00 Build 0)  -->
<svg version="1.1" id="Layer_1" xmlns="http://www.w3.org/2000/svg" xmlns:xlink="http://www.w3.org/1999/xlink" x="0px" y="0px"
	 viewBox="0 0 512 512" style="enable-background:new 0 0 512 512;" xml:space="preserve">
<path d="M384.6,360.4h-28.2v-27.1h28.2V360.4z M384.6,248.8h-28.2v56.3h28.2V248.8z M451.7,385.3c-22.7,22.7-52,32.5-80.1,32.5
	c-21.7,0-42.2-5.4-61.7-17.3L198.3,512l-32.5-32.5l109.4-109.4c-2.2-2.2-2.2-4.3-2.2-4.3c-13-20.6-18.4-45.5-17.3-70.4
	c2.2-27.1,14.1-52,32.5-71.5c19.5-18.4,44.4-28.2,69.3-32.5c4.3,0,7.6-2.2,11.9-2.2c28.2,0,59.6,11.9,80.1,33.6
	C496.1,268.3,496.1,340.9,451.7,385.3z M426.8,247.7c-13-14.1-32.5-21.7-49.8-23.8h-7.6c-21.7,0-40.1,7.6-57.4,23.8
	c-31.4,30.3-31.4,82.3,0,114.8c5.4,5.4,13,9.7,18.4,13c11.9,6.5,26,9.7,36.8,9.7c14.1,0,24.9-3.2,39-9.7c7.6-3.2,13-7.6,18.4-13
	c7.6-7.6,11.9-15.2,15.2-22.7C457.1,308.4,451.7,272.7,426.8,247.7z M275.2,210.9c-42.2,42.2-49.8,105.1-22.7,157l-2.2,2.2H56.4
	c-27.1,0-36.8-19.5-22.7-42.2L213.4,17.1c14.1-22.7,34.7-22.7,48.7,0l89.9,157C322.8,178.4,296.8,189.3,275.2,210.9z M165.8,230.4
	h-27.1v28.2H168v-28.2H165.8z M223.2,230.4H195v28.2h28.2V230.4z"/>
</svg>
