<svg xmlns="http://www.w3.org/2000/svg" viewBox="0 0 512 512"><path d="M436 203c-21-21-48-30-74-30-3 0-7 0-10 2-23 2-46 12-64 30-17 17-28 42-29 65-2 22 3 43 15 64 2 2 2 4 2 4L176 438l30 30 102-102c17 11 37 16 56 16 26 0 54-11 73-30 39-42 39-109-1-149zm-9 105c-4 7-9 14-14 21-5 5-12 9-18 12-10 6-22 9-35 9-12 0-22-3-33-9-7-3-12-7-18-12-28-28-28-75 0-105 15-14 34-21 53-21h7c16 2 33 9 46 21 21 25 26 58 12 84zm-44-54h-44v44h44zm-38-97L262 14c-12-21-31-21-44 0L53 298c-12 21-3 38 22 38h177l1-2c-24-47-17-105 21-143 20-20 44-30 71-34zm-171 78h-24v-27h26v27zm53 0h-26v-27h26z"/></svg>