<?xml version="1.0" encoding="utf-8"?>
<!-- Generator: Adobe Illustrator 23.0.1, SVG Export Plug-In . SVG Version: 6.00 Build 0)  -->
<svg version="1.1" id="Layer_1" xmlns="http://www.w3.org/2000/svg" xmlns:xlink="http://www.w3.org/1999/xlink" x="0px" y="0px"
	 viewBox="0 0 512 512" style="enable-background:new 0 0 512 512;" xml:space="preserve">
<path d="M192.5,140H163c-6.6,0-6.6,0-12-4.4l-36.1-55.8h-3.3V140H75.5V18.5H105c6.6,0,6.6,0,9.8,4.4c2.2,0,33.9,47,41.6,56.9V18.5
	h36.1V140z M316.2,48.1h-38.3V140h-37.2V48.1h-36.1V18.5h111.6V48.1z M363.2,140H326V18.5h73.3c24.1,0,37.2,14.2,37.2,31.7v24.1
	c0,17.5-13.1,31.7-37.2,31.7h-36.1V140z M401.5,66.7v-8.8c0-5.5-2.2-9.8-9.8-9.8h-26.3v31.7h26.3C399.3,76.5,401.5,74.3,401.5,66.7z
	 M75.5,242.8v51.4h51.4v-51.4H75.5z M178.3,294.2h26.3v-51.4h-26.3V294.2z M280.1,396h24.1c15.3,0,27.4,12,27.4,26.3H512v51.4H331.5
	c0,15.3-12,27.4-27.4,27.4h-99.6c-14.2,0-26.3-12-26.3-27.4H0V420h180.5c0-14.2,12-26.3,26.3-26.3h25.2v-51.4H51.4
	c-15.3,0-24.1-12-24.1-26.3V215.5c0-14.2,12-26.3,24.1-26.3h409.2c14.2,0,24.1,12,24.1,26.3v102.8c0,14.2-12,26.3-24.1,26.3H280.1
	V396z"/>
</svg>
