<?xml version="1.0" encoding="utf-8"?>
<!-- Generator: Adobe Illustrator 23.0.1, SVG Export Plug-In . SVG Version: 6.00 Build 0)  -->
<svg version="1.1" id="Layer_1" xmlns="http://www.w3.org/2000/svg" xmlns:xlink="http://www.w3.org/1999/xlink" x="0px" y="0px"
	 viewBox="0 0 512 512" style="enable-background:new 0 0 512 512;" xml:space="preserve">
<path d="M21.4,190.7C9.6,190.7,0,200.3,0,213.2v85.7c0,12.9,9.6,22.5,21.4,22.5h327.7c-16.1-30-25.7-72.8-25.7-130.7H21.4z
	 M87.8,277.4H43.9v-42.8h43.9V277.4z M154.2,277.4h-21.4v-42.8h21.4V277.4z M429.5,168.2c-37.5,0-82.5,16.1-82.5,38.6
	c0,112.5,65.3,137.1,82.5,137.1c16.1,0,82.5-24.6,82.5-130.7C514.1,190.7,474.4,168.2,429.5,168.2z M369.5,206.7
	c2.1-6.4,27.8-20.3,60-20.3v137.1C417.7,321.3,369.5,296.7,369.5,206.7z"/>
</svg>
