<svg xmlns="http://www.w3.org/2000/svg" viewBox="0 0 512 512"><path d="M312 358h149v-59H312c-4-12-14-21-27-21h-12v-27h138c16 0 29-12 29-29v-6h-17v6c0 6-6 12-12 12H256v59h29c7 0 13 6 13 12v9h146v27H298v8c0 7-6 13-13 13h-83c-7 0-13-6-13-13v-8H43v-27h146v-9c0-6 6-12 13-12h29v-59H76c-6 0-12-6-12-12v-84c-2-6 4-12 12-12h274v-6l2-9H76c-16 0-29 13-29 29v84c0 17 13 29 29 29h138v27h-12c-13 0-25 9-27 21H26v59h149c4 12 14 21 27 21h83c13-2 23-13 27-23zM164 203h21v-42h-21zm-75 0h42v-42H89zM400 84c0-13 11-23 23-23 13 0 23 8 23 23v19h19V84c0-23-19-42-42-42s-42 19-42 42v19h21V84zm84 42v52c0 10-9 17-17 17h-86c-10 0-18-7-18-17v-52c0-2 0-4 2-6 2-7 8-11 14-11h86c10 0 19 6 19 17zm-48 14c0-4-2-8-7-10-2-2-4-2-6-2-6 0-12 4-12 12 0 5 2 9 4 11v15c0 4 4 6 6 6 4 0 6-4 6-6v-15-2c7-2 9-4 9-9z"/></svg>