<svg xmlns="http://www.w3.org/2000/svg" viewBox="0 0 512 512"><path d="M191 111h-27c-7 0-7 0-12-5l-34-53h-3v58H81V-4h27c7 0 7 0 10 4 2 0 32 44 39 53V-4h34zm93-23h-40l-6 25h-37S233 10 235 0c3-4 3-4 9-4h40c7 0 7 0 9 4 2 10 34 113 34 113h-36zm-33-30h26l-9-37h-5zm173-35h-48c-7 0-9 5-9 10v39c0 4 2 9 9 9h48v28s-32 2-60 2c-23 0-34-16-34-32V26c0-16 11-33 34-33 28 0 60 3 60 3zm-97 358c0-14-11-26-25-26h-25v-48h170c14 0 26-12 26-25v-97c0-14-12-26-26-26H55c-13 0-25 12-25 26v99c0 14 12 25 25 25h171v49h-25c-14 0-26 11-26 25H9v48h171c0 10 7 19 16 24h118c9-5 16-14 16-24h170v-48zM132 259H83v-51h49zm73 0h-25v-51h25z"/></svg>