<?xml version="1.0" encoding="utf-8"?>
<!-- Generator: Adobe Illustrator 23.0.1, SVG Export Plug-In . SVG Version: 6.00 Build 0)  -->
<svg version="1.1" id="Layer_1" xmlns="http://www.w3.org/2000/svg" xmlns:xlink="http://www.w3.org/1999/xlink" x="0px" y="0px"
	 viewBox="0 0 512 512" style="enable-background:new 0 0 512 512;" xml:space="preserve">
<path d="M512,90.2v331.5c0,49.3-40.9,90.2-90.2,90.2H90.2C40.9,512,0,471.1,0,421.8V90.2C0,40.9,40.9,0,90.2,0h334.7
	C473.2,0,512,40.9,512,90.2z M322.1,135.3h56.7v-25.2l48.3,40.9L380.9,192v-25.2H279.1v-31.5H322.1z M442.8,153.2L363,85v40.9h-86
	V85l-21-21l-21,21v83.9h-86v-46.2l-79.7,71.3l79.7,69.2v-43h86v188.9c-19.9,0-37.8,17.8-37.8,38.8h115.4c0-21-17.8-38.8-38.8-38.8
	V181.5H363v40.9L442.8,153.2z"/>
</svg>
