<?xml version="1.0" encoding="utf-8"?>
<!-- Generator: Adobe Illustrator 23.0.1, SVG Export Plug-In . SVG Version: 6.00 Build 0)  -->
<svg version="1.1" id="Layer_1" xmlns="http://www.w3.org/2000/svg" xmlns:xlink="http://www.w3.org/1999/xlink" x="0px" y="0px"
	 viewBox="0 0 512 512" style="enable-background:new 0 0 512 512;" xml:space="preserve">
<path d="M333,333c0-14.1-11.9-26-26-26h-27.1v-51h179c14.1,0,26-11.9,26-26V125.8c0-9.8-6.5-19.5-16.3-23.9H41.2
	c-9.8,4.3-17.4,11.9-17.4,23.9V230c0,14.1,11.9,26,27.1,26h179v51H205c-14.1,0-26,11.9-26,26H0v51h179c0,14.1,11.9,26,26,26h102
	c14.1,0,26-11.9,26-26h179v-51H333z M128,202.8H77v-51h51V202.8z M205,202.8h-26v-51h26V202.8z"/>
</svg>
