<?xml version="1.0" encoding="utf-8"?>
<!-- Generator: Adobe Illustrator 23.0.1, SVG Export Plug-In . SVG Version: 6.00 Build 0)  -->
<svg version="1.1" id="Layer_1" xmlns="http://www.w3.org/2000/svg" xmlns:xlink="http://www.w3.org/1999/xlink" x="0px" y="0px"
	 viewBox="0 0 512 512" style="enable-background:new 0 0 512 512;" xml:space="preserve">
<path d="M19.5,184.1h127.4c10.3,0,15.4-5.1,15.4-14.4v-68.8c0-10.3-5.1-15.4-15.4-15.4H19.5C7.2,85.5,4.1,90.6,2,100.9v65.7
	C2,179,7.2,184.1,19.5,184.1z M277.3,207.7H17.4C7.2,207.7,2,212.9,2,223.1v68.8c0,10.3,5.1,15.4,15.4,15.4h206.4
	c2.1-13.4,5.1-23.6,10.3-33.9C244.4,245.7,261.9,225.2,277.3,207.7z M146.9,327.9H17.4C7.2,327.9,2,333,2,342.3v69.8
	c0,9.2,5.1,14.4,15.4,14.4h129.4c10.3,0,15.4-5.1,15.4-14.4v-69.8C162.3,333,157.1,327.9,146.9,327.9z M333.8,110.2V85.5H201.3
	c-10.3,0-15.4,5.1-15.4,15.4v65.7c0,12.3,5.1,17.5,17.5,17.5h94.5l2.1-2.1C318.4,164.6,328.7,141,333.8,110.2z M225.9,337.1v-9.2
	h-22.6c-10.3,0-15.4,5.1-15.4,14.4V409c-2.1,12.3,3.1,17.5,15.4,17.5h77C251.6,403.9,234.2,373.1,225.9,337.1z M251.6,333
	c8.2,34.9,25.7,63.7,58.5,81.1c10.3,5.1,20.5,10.3,33.9,12.3h2.1l-2.1-12.3c-3.1-12.3-5.1-25.7-5.1-38c2.1-15.4,7.2-28.8,20.5-43.1
	c12.3-15.4,22.6-30.8,29.8-46.2l15.4-28.8l13.4,28.8c5.1,10.3,7.2,17.5,10.3,27.7c10.3,38,10.3,68.8-5.1,97.6l-5.1,7.2l7.2-5.1
	c3.1-2.1,8.2-5.1,10.3-7.2c8.2-5.1,17.5-10.3,25.7-15.4c30.8-23.6,46.2-54.4,48.3-89.4c3.1-35.9-7.2-71.9-30.8-107.8
	c-25.7-40.1-60.6-74-112-103.7c0,0-2.1,0-2.1-3.1h-3.1v10.3c0,5.1,0,10.3-2.1,15.4c-5.1,35.9-18.5,65.7-41.1,89.4
	c-5.1,5.1-13.4,12.3-18.5,17.5c-14.4,18.5-32.9,38-40.1,61.6C251.6,302.2,249.6,317.6,251.6,333z"/>
</svg>
