<?xml version="1.0" encoding="utf-8"?>
<!-- Generator: Adobe Illustrator 23.0.1, SVG Export Plug-In . SVG Version: 6.00 Build 0)  -->
<svg version="1.1" id="Layer_1" xmlns="http://www.w3.org/2000/svg" xmlns:xlink="http://www.w3.org/1999/xlink" x="0px" y="0px"
	 viewBox="0 0 512 512" style="enable-background:new 0 0 512 512;" xml:space="preserve">
<path d="M422.1,0H88.7C40.2,0,0,40.2,0,88.7v333.5C0,471.8,40.2,512,88.7,512h333.5c49.7,0,89.9-40.2,89.9-89.9V88.7
	C509.6,40.2,471.8,0,422.1,0z M166.7,355.9L84,255.4l82.8-100.5l24.8,20.1l-67.4,80.4l67.4,80.4L166.7,355.9z M209.3,270.8h-31.9
	V240h31.9V270.8z M270.8,270.8H240V240h30.7V270.8z M302.7,240h30.7v30.7h-30.7V240z M345.3,355.9l-24.8-20.1l66.2-80.4L320.4,175
	l24.8-20.1l81.6,100.5L345.3,355.9z"/>
</svg>
