<?xml version="1.0" encoding="utf-8"?>
<!-- Generator: Adobe Illustrator 23.0.1, SVG Export Plug-In . SVG Version: 6.00 Build 0)  -->
<svg version="1.1" id="Layer_1" xmlns="http://www.w3.org/2000/svg" xmlns:xlink="http://www.w3.org/1999/xlink" x="0px" y="0px"
	 viewBox="0 0 512 512" style="enable-background:new 0 0 512 512;" xml:space="preserve">
<path d="M0,151.3h41.5v264h243.8v41.5H55.4C24.5,456.8,0,430.2,0,401.4 M188.4,243.9h14.9v-24.5h-16v24.5H188.4z M220.3,243.9h17
	v-24.5h-17V243.9z M283.1,243.9h17v-24.5h-17V243.9z M404.5,293.9V107.7c0-31.9-25.5-55.4-55.4-55.4H137.3
	c-31.9,0-55.4,25.5-55.4,55.4v211.8c0,31.9,25.5,55.4,55.4,55.4h195.9C335.3,334.4,366.2,299.3,404.5,293.9z M150.1,177.9h53.2
	v-34.1H281v34.1h54.3v105.4H150.1V177.9z M251.2,243.9h17v-24.5h-17V243.9z M512,380.2h-22.4c0,34.1-27.7,61.7-60.7,61.7
	c-12.8,0-24.5-4.3-33-9.6l10.6-10.6c5.3,3.2,12.8,5.3,22.4,5.3c25.5,0,45.8-20.2,45.8-46.8h-21.3l30.9-30.9 M404.5,380.2l-30.9,31.9
	l-31.9-31.9H364c0-33,27.7-60.7,61.7-60.7c12.8,0,23.4,4.3,33,9.6l-11.7,10.6c-5.3-3.2-12.8-5.3-21.3-5.3
	c-26.6,0-46.8,20.2-46.8,45.8"/>
</svg>
