<?xml version="1.0" encoding="utf-8"?>
<!-- Generator: Adobe Illustrator 23.0.1, SVG Export Plug-In . SVG Version: 6.00 Build 0)  -->
<svg version="1.1" id="Layer_1" xmlns="http://www.w3.org/2000/svg" xmlns:xlink="http://www.w3.org/1999/xlink" x="0px" y="0px"
	 viewBox="0 0 512 512" style="enable-background:new 0 0 512 512;" xml:space="preserve">
<path d="M329.4,432.2c0-11.7-9.6-24.5-25.5-24.5h-24.5v-54.3h91.5c33,0,60.7-27.7,60.7-60.7v-232c0-33-27.7-60.7-60.7-60.7h-232
	c-33,0-60.7,27.7-60.7,60.7v234.2c0,33,27.7,61.7,60.7,61.7h91.5v53.2h-25.5c-12.8,0-25.5,10.6-25.5,25.5H9v51.1h173.5
	c0,12.8,9.6,25.5,25.5,25.5h99c12.8,0,25.5-10.6,25.5-25.5H505v-51.1H329.4V432.2z M153.7,139.4h58.5v-38.3h87.3v38.3h58.5v117.1
	H153.7V139.4z M195.3,185.2h17v25.5h-17V185.2z M230.4,185.2h18.1v25.5h-18.1V185.2z M266.6,185.2h17v25.5h-17V185.2z M299.6,185.2
	h17v25.5h-17V185.2z"/>
</svg>
