<svg xmlns="http://www.w3.org/2000/svg" viewBox="0 0 512 512"><path d="M305 313h-26v-46h174c14 0 23-12 23-26v-23h-90c-21 0-40-16-40-39v-60H55c-12 0-21 11-21 25v97c0 14 11 23 25 23h174v49h-26c-13-5-23 9-23 21H8v46h174c0 14 12 26 23 26h100c13 0 25-12 25-26h171v-46H330c2-9-12-21-25-21zm-174-95H82v-51h49zm76 0h-23v-51h23zM480 84h-7V70c0-21-16-37-39-37-21-2-39 16-39 37v16h-7c-9 0-16 7-16 17v74c0 9 7 16 16 16h92c10 0 17-7 17-16v-77c0-9-7-16-17-16zm-69-14c0-11 9-23 23-23s23 9 23 23v16h-46zm23 83c-9 0-16-7-16-16s7-16 16-16 16 7 16 16-7 16-16 16z"/></svg>