<?xml version="1.0" encoding="utf-8"?>
<!-- Generator: Adobe Illustrator 23.0.1, SVG Export Plug-In . SVG Version: 6.00 Build 0)  -->
<svg version="1.1" id="Layer_1" xmlns="http://www.w3.org/2000/svg" xmlns:xlink="http://www.w3.org/1999/xlink" x="0px" y="0px"
	 viewBox="0 0 512 512" style="enable-background:new 0 0 512 512;" xml:space="preserve">
<path d="M280.4,266.2h23.8v44.4H355v-44.4h23.8v113.7H355v-46.5h-50.9v46.5h-23.8V266.2z M475.2,352.8h-44.4l-7.6,27.1h-28.1
	c0,0,32.5-103.9,35.7-110.4c2.2-3.2,2.2-3.2,6.5-3.2h32.5c5.4,0,5.4,0,6.5,3.2c2.2,6.5,35.7,110.4,35.7,110.4h-27.1L475.2,352.8z
	 M437.3,327.9h32.5l-13-42.2h-4.3L437.3,327.9z M172.1,171v84.4l72.5,43.3l-13,19.5l-84.4-49.8V171H172.1z M303.1,171
	c-28.1-48.7-79-81.2-140.7-81.2C72.5,89.8,0,163.4,0,252.1s72.5,162.4,162.4,162.4c30.3,0,59.5-9.7,84.4-24.9v-39h-2.2
	c-22.7,19.5-52,31.4-84.4,31.4c-71.4,0-129.9-58.5-129.9-129.9s58.5-129.9,129.9-129.9c52,0,95.3,29.2,116.9,73.6l-39,39h97.4v-97.4
	L303.1,171z"/>
</svg>
