<?xml version="1.0" encoding="utf-8"?>
<!-- Generator: Adobe Illustrator 23.0.1, SVG Export Plug-In . SVG Version: 6.00 Build 0)  -->
<svg version="1.1" id="Layer_1" xmlns="http://www.w3.org/2000/svg" xmlns:xlink="http://www.w3.org/1999/xlink" x="0px" y="0px"
	 viewBox="0 0 512 512" style="enable-background:new 0 0 512 512;" xml:space="preserve">
<path d="M303.5,220.4v-48.6c55.1,19.4,95,73.4,95,135c0,8.6,0,19.4-2.2,29.2l-40-24.8v-4.3C354.2,269,334.8,237.6,303.5,220.4z
	 M157.7,306.8c0-37.8,21.6-71.3,52.9-88.6v-46.4c-57.2,17.3-97.2,73.4-97.2,135c0,10.8,2.2,19.4,2.2,31.3l40-24.8
	C157.7,311.1,157.7,308.9,157.7,306.8z M257,403.9c-17.3,0-35.6-4.3-50.8-13l-42.1,23.8c24.8,20.5,57.2,33.5,90.7,33.5
	c35.6,0,68-13,92.9-35.6l-42.1-23.8C292.7,399.6,274.3,403.9,257,403.9z M457.9,364c-13,0-23.8,4.3-34.6,13l-33.5-17.3l-37.8-21.6
	c-4.3,15.1-13,28.1-23.8,41l36.7,22.7l35.6,21.6c0,31.3,24.8,56.2,55.1,56.2c31.3,0,56.2-24.8,56.2-56.2
	C514,388.8,487,364,457.9,364z M257,32.5c-31.3,0-55.1,23.8-55.1,55.1c0,22.7,13,42.1,33.5,50.8v71.3H257c8.6,0,17.3,2.2,24.8,2.2
	v-73.4c17.3-10.8,30.2-28.1,30.2-50.8C312.1,56.2,288.3,32.5,257,32.5z M162,335.9l-37.8,21.6l-31.3,17.3
	c-10.8-8.6-23.8-15.1-36.7-15.1C24.8,359.7,0,384.5,0,414.7c0,31.3,24.8,55.1,56.2,55.1c28.1,0,52.9-21.6,55.1-50.8l40-21.6
	l37.8-22.7C177.1,366.2,168.5,351,162,335.9z M257,239.8c-37.8,0-65.9,29.2-65.9,67s28.1,65.9,65.9,65.9s65.9-28.1,65.9-65.9
	S294.8,239.8,257,239.8z"/>
</svg>
