<svg xmlns="http://www.w3.org/2000/svg" viewBox="0 0 512 512"><path d="M301 183v-45c51 18 88 68 88 125 0 8 0 18-2 27l-37-23v-4c-2-35-20-64-49-80zm-135 80c0-35 20-66 49-82v-43c-53 16-90 68-90 125 0 10 2 18 2 29l37-23c2-2 2-4 2-6zm92 90c-16 0-33-4-47-12l-39 22c23 19 53 31 84 31 33 0 63-12 86-33l-39-22c-12 10-29 14-45 14zm186-37c-12 0-22 4-32 12l-31-16-35-20c-4 14-12 26-22 38l34 21 33 20c0 29 23 52 51 52 29 0 52-23 52-52 2-32-23-55-50-55zM258 9c-29 0-51 22-51 51 0 21 12 39 31 47v66h20c8 0 16 2 23 2v-68c16-10 28-26 28-47 0-29-22-51-51-51zm-88 281l-35 20-29 16c-10-8-22-14-34-14-29 0-52 23-52 51 0 29 23 51 52 51 26 0 49-20 51-47l37-20 35-21c-11-8-19-22-25-36zm96-93h-12 2c4-2 8 0 10 0zm-8 4c-35 0-61 27-61 62s26 61 61 61 61-26 61-61-26-62-61-62z"/></svg>