<?xml version="1.0" encoding="utf-8"?>
<!-- Generator: Adobe Illustrator 23.0.1, SVG Export Plug-In . SVG Version: 6.00 Build 0)  -->
<svg version="1.1" id="Layer_1" xmlns="http://www.w3.org/2000/svg" xmlns:xlink="http://www.w3.org/1999/xlink" x="0px" y="0px"
	 viewBox="0 0 512 512" style="enable-background:new 0 0 512 512;" xml:space="preserve">
<style type="text/css">
	.st0{fill-rule:evenodd;clip-rule:evenodd;}
</style>
<g>
	<g transform="translate(-89.000000, -732.000000)">
		<g transform="translate(83.000000, 648.000000)">
			<path id="REST" class="st0" d="M41.1,250.6v76.3H61c6.2,0,11.1-0.9,14.8-2.6s6.5-4.2,8.6-7.4c1.8-3.2,3.1-7.2,3.8-11.9
				c0.7-4.7,1-10.1,1-16.3c0-6.2-0.3-11.6-1-16.3c-0.7-4.7-2.1-8.8-4.1-12.2c-4.4-6.4-12.6-9.6-24.8-9.6H41.1z M6,462.4V217.6h56.4
				c41.3,0,61.9,24,61.9,71.9c0,14.4-2.2,26.7-6.7,36.8c-4.5,10.1-12.3,18.2-23.6,24.4l37.8,111.8H94.7L62,357.9h-21v104.5H6z
				 M152.5,462.4V217.6H257v33h-69.5v71.9h60.5v33h-60.5v71.9H257v35.1H152.5z M393.2,288.1h-35.1v-7.9c0-8-1.9-15-5.7-20.8
				c-3.8-5.8-10.1-8.8-19.1-8.8c-4.8,0-8.7,0.9-11.7,2.8c-3,1.8-5.4,4.1-7.2,6.9c-1.8,3-3.1,6.4-3.8,10.1c-0.7,3.8-1,7.7-1,11.9
				c0,4.8,0.2,8.8,0.5,12c0.3,3.2,1.2,6.1,2.6,8.6c1.4,2.5,3.4,4.7,6,6.5s6.2,3.7,10.8,5.5l26.8,10.7c7.8,3,14.1,6.5,18.9,10.5
				c4.8,4,8.6,8.7,11.3,13.9c2.5,5.5,4.2,11.7,5.2,18.7c0.9,7,1.4,15,1.4,23.9c0,10.3-1,19.9-3.1,28.7c-2.1,8.8-5.4,16.3-10,22.5
				c-4.8,6.4-11.1,11.5-18.9,15.1c-7.8,3.7-17.3,5.5-28.5,5.5c-8.5,0-16.4-1.5-23.7-4.5c-7.3-3-13.6-7.1-18.9-12.4
				c-5.3-5.3-9.5-11.4-12.6-18.4c-3.1-7-4.6-14.6-4.6-22.9v-13.1h35.1v11c0,6.4,1.9,12.2,5.7,17.4c3.8,5.2,10.1,7.7,19.1,7.7
				c6,0,10.6-0.9,13.9-2.6c3.3-1.7,5.9-4.2,7.7-7.4s2.9-7,3.3-11.5c0.3-4.5,0.5-9.5,0.5-15c0-6.4-0.2-11.7-0.7-15.8
				c-0.5-4.1-1.4-7.5-2.8-10c-1.6-2.5-3.7-4.6-6.4-6.2c-2.6-1.6-6.1-3.3-10.5-5.2l-25.1-10.3c-15.1-6.2-25.3-14.4-30.4-24.6
				s-7.7-23-7.7-38.3c0-9.2,1.3-17.9,3.8-26.1c2.5-8.3,6.3-15.4,11.3-21.3c4.8-6,10.9-10.7,18.4-14.3c7.5-3.6,16.3-5.3,26.6-5.3
				c8.7,0,16.7,1.6,23.9,4.8c7.2,3.2,13.5,7.5,18.7,12.7c10.5,11,15.8,23.6,15.8,37.8V288.1z M442.4,462.4V250.6h-40.6v-33H518v33
				h-40.6v211.8H442.4z"/>
		</g>
	</g>
</g>
</svg>
