<svg viewBox="0 0 21 11" version="1.1" xmlns="http://www.w3.org/2000/svg" xmlns:xlink="http://www.w3.org/1999/xlink">
    <g stroke="none" stroke-width="1" fill="none" fill-rule="evenodd">
        <g transform="translate(-89.000000, -732.000000)" fill="#00ADEF">
            <g transform="translate(83.000000, 648.000000)">
                <path d="M7.428,85.428 L7.428,88.536 L8.24,88.536 C8.49200126,88.536 8.69266592,88.5010004 8.842,88.431 C8.99133408,88.3609997 9.10799958,88.2606673 9.192,88.13 C9.26666704,87.9993327 9.31799986,87.8383343 9.346,87.647 C9.37400014,87.4556657 9.388,87.2340013 9.388,86.982 C9.388,86.7299987 9.37400014,86.5083343 9.346,86.317 C9.31799986,86.1256657 9.26200042,85.9600007 9.178,85.82 C9.00066578,85.5586654 8.66466914,85.428 8.17,85.428 L7.428,85.428 Z M6,94.052 L6,84.084 L8.296,84.084 C9.9760084,84.084 10.816,85.0593236 10.816,87.01 C10.816,87.5980029 10.7250009,88.0973313 10.543,88.508 C10.3609991,88.9186687 10.0413356,89.2499987 9.584,89.502 L11.124,94.052 L9.612,94.052 L8.282,89.796 L7.428,89.796 L7.428,94.052 L6,94.052 Z M11.964,94.052 L11.964,84.084 L16.22,84.084 L16.22,85.428 L13.392,85.428 L13.392,88.354 L15.856,88.354 L15.856,89.698 L13.392,89.698 L13.392,92.624 L16.22,92.624 L16.22,94.052 L11.964,94.052 Z M21.764,86.954 L20.336,86.954 L20.336,86.632 C20.336,86.3053317 20.2590008,86.0230012 20.105,85.785 C19.9509992,85.5469988 19.6920018,85.428 19.328,85.428 C19.131999,85.428 18.9733339,85.465333 18.852,85.54 C18.7306661,85.614667 18.632667,85.7079994 18.558,85.82 C18.483333,85.9413339 18.4320001,86.0789992 18.404,86.233 C18.3759999,86.3870008 18.362,86.5479992 18.362,86.716 C18.362,86.912001 18.3689999,87.0753327 18.383,87.206 C18.3970001,87.3366673 18.4319997,87.4533328 18.488,87.556 C18.5440003,87.6586672 18.6256661,87.747333 18.733,87.822 C18.8403339,87.896667 18.9873324,87.971333 19.174,88.046 L20.266,88.48 C20.5833349,88.6013339 20.839999,88.7436659 21.036,88.907 C21.232001,89.0703342 21.3859994,89.2593323 21.498,89.474 C21.6006672,89.6980011 21.6706665,89.9523319 21.708,90.237 C21.7453335,90.5216681 21.764,90.8459982 21.764,91.21 C21.764,91.6300021 21.7220004,92.0196649 21.638,92.379 C21.5539996,92.7383351 21.4186676,93.0439987 21.232,93.296 C21.035999,93.5573346 20.7793349,93.7626659 20.462,93.912 C20.1446651,94.0613341 19.7573356,94.136 19.3,94.136 C18.9546649,94.136 18.6326682,94.0753339 18.334,93.954 C18.0353318,93.8326661 17.7786677,93.6646677 17.564,93.45 C17.3493323,93.2353323 17.1790006,92.9856681 17.053,92.701 C16.9269994,92.4163319 16.864,92.1060017 16.864,91.77 L16.864,91.238 L18.292,91.238 L18.292,91.686 C18.292,91.9473346 18.3689992,92.182999 18.523,92.393 C18.6770008,92.603001 18.9359982,92.708 19.3,92.708 C19.5426679,92.708 19.731666,92.6730004 19.867,92.603 C20.002334,92.5329997 20.107333,92.4326673 20.182,92.302 C20.256667,92.1713327 20.3009999,92.0150009 20.315,91.833 C20.3290001,91.6509991 20.336,91.4480011 20.336,91.224 C20.336,90.9626654 20.3266668,90.7480008 20.308,90.58 C20.2893332,90.4119992 20.2520003,90.2766672 20.196,90.174 C20.1306663,90.0713328 20.0443339,89.9873337 19.937,89.922 C19.8296661,89.8566663 19.6873342,89.786667 19.51,89.712 L18.488,89.292 C17.8719969,89.0399987 17.459001,88.7063354 17.249,88.291 C17.038999,87.8756646 16.934,87.3553365 16.934,86.73 C16.934,86.3566648 16.9853328,86.0020017 17.088,85.666 C17.1906672,85.3299983 17.3446656,85.0406679 17.55,84.798 C17.746001,84.5553321 17.9956652,84.3616674 18.299,84.217 C18.6023349,84.0723326 18.9639979,84 19.384,84 C19.7386684,84 20.0629985,84.0653327 20.357,84.196 C20.6510015,84.3266673 20.9053323,84.4993323 21.12,84.714 C21.5493355,85.1620022 21.764,85.6753304 21.764,86.254 L21.764,86.954 Z M23.766,94.052 L23.766,85.428 L22.114,85.428 L22.114,84.084 L26.846,84.084 L26.846,85.428 L25.194,85.428 L25.194,94.052 L23.766,94.052 Z" id="REST"></path>
            </g>
        </g>
    </g>
</svg>