<svg xmlns="http://www.w3.org/2000/svg" viewBox="0 0 512 512"><path d="M256-8C130-8 28 95 28 221c0 125 102 228 228 228s228-103 228-228C484 95 382-8 256-8zM156 271c0 2-3 4-5 4h-30c-2 0-4-2-4-4V161c0-2 2-4 4-4h108c2 0 4 2 4 4v30c0 2-2 4-4 4h-60c-7 0-11 7-11 14v62zm159-30v30c0 2-2 4-4 4H201c-2 0-4-2-4-4v-30c0-2 2-4 4-4h62c11 0 14-5 14-14v-62c0-2 2-4 4-4h30c2 0 4 2 4 4zm80 30c0 2-2 4-4 4h-28c-2 0-4-2-4-4v-30c0-2 2-4 4-4h28c2 0 4 2 4 4zm0-80c0 2-2 4-4 4h-28c-2 0-4-2-4-4v-30c0-2 2-4 4-4h28c2 0 4 2 4 4z"/></svg>