<?xml version="1.0" encoding="utf-8"?>
<!-- Generator: Adobe Illustrator 23.0.1, SVG Export Plug-In . SVG Version: 6.00 Build 0)  -->
<svg version="1.1" id="Layer_1" xmlns="http://www.w3.org/2000/svg" xmlns:xlink="http://www.w3.org/1999/xlink" x="0px" y="0px"
	 viewBox="0 0 512 512" style="enable-background:new 0 0 512 512;" xml:space="preserve">
<path d="M256,0C113.9,0,0,113.9,0,256s113.9,256,256,256c141,0,256-113.9,256-256S397,0,256,0z M256,92.5l86.8,86.8l-30.4,30.4
	L256,152.2l-57.5,57.5l-29.3-30.4L256,92.5z M90.2,315.8l56.4-57.5l-56.4-59.8l29.3-29.3l86.8,86.8l-86.8,86.8L90.2,315.8z
	 M256,419.5l-86.8-86.8l29.3-30.4l57.5,57.5l56.4-57.5l30.4,30.4L256,419.5z M424,315.8l-29.3,30.4l-86.8-88l86.8-86.8l29.3,27.1
	L367.6,256L424,315.8z"/>
</svg>
