<?xml version="1.0" encoding="UTF-8"?>
<svg width="512px" height="513px" viewBox="0 0 512 513" version="1.1" xmlns="http://www.w3.org/2000/svg" xmlns:xlink="http://www.w3.org/1999/xlink">
    <!-- Generator: Sketch 55.2 (78181) - https://sketchapp.com -->
    <title>router</title>
    <desc>Created with Sketch.</desc>
    <g id="Page-1" stroke="none" stroke-width="1" fill="none" fill-rule="evenodd">
        <g id="router" fill="#000000" fill-rule="nonzero">
            <path d="M256,0.5 C397.2,0.5 511.5,115.9 511.5,257.1 C511.5,397.2 397.2,512.6 256,512.6 C114.8,512.6 0.5,397.2 0.5,257.1 C0.5,115.9 114.8,0.5 256,0.5 Z M301,287.909468 C301,322.144437 330.160195,350 366,350 C401.839805,350 431,322.144437 431,287.909468 C431,268.736006 421.608633,250.549413 405.77244,238.812716 C417.441214,228.673808 424.097345,214.540428 424.097345,199.690394 C424.097345,170.084312 398.04804,146 366.023478,146 C333.998916,146 307.949612,170.084312 307.949612,199.690394 C307.949612,214.52868 314.594004,228.650311 326.251038,238.789219 C310.391367,250.525916 301,268.724257 301,287.909468 Z M365,221 C351.211765,221 340,211.354248 340,199.5 C340,187.645752 351.211765,178 365,178 C378.788235,178 390,187.645752 390,199.5 C390,211.354248 378.788235,221 365,221 Z M366.5,256 C384.976257,256 400,269.682783 400,286.5 C400,303.317217 384.976257,317 366.5,317 C348.023743,317 333,303.317217 333,286.5 C333,269.682783 348.035526,256 366.5,256 Z M110.19536,151.557273 C105.684347,158.79 99.4934508,162.122727 89.5081351,162.69 L87.84,162.784545 L87.84,189.623636 L103.099912,189.623636 L103.099912,345.73 L135.84,345.73 L135.84,150.73 L110.700499,150.73 L110.19536,151.557273 Z M190.035981,207.256601 C195.294384,189.960645 205.447327,181.970666 222.959687,181.347917 C232.983518,181.007168 241.96271,185.472157 246.998101,189.784396 C252.350404,194.366884 255.777756,200.805868 255.942081,206.598603 C256.411581,222.778312 248.066214,226.561802 227.924652,235.715029 C226.210976,236.490527 224.426875,237.301275 222.478449,238.194273 C201.726537,248.945496 185.646153,263.644708 174.671585,281.915912 C163.697016,300.175366 158.391663,321.066813 158.884638,344.002754 L158.919851,345.73 L289.84,345.73 L289.84,313.029833 L197.125435,312.700834 C202.336888,296.709124 211.879481,279.953667 241.645798,264.784455 C245.63655,262.751711 249.345602,260.965715 252.608629,259.402969 C268.301675,251.859488 277.773843,247.31225 284.933722,231.073791 C287.762461,224.658307 289.065325,219.147571 289.570037,211.427841 C290.6851,194.284634 283.396109,177.599677 269.569326,165.638207 C256.599381,154.416986 240.800697,148.73 222.584087,148.73 C206.914515,148.73 193.029045,153.594488 181.315013,163.194213 C170.892107,171.724692 162.746278,185.084408 158.35645,200.805868 L157.84,202.650613 L189.566481,208.784098 L190.035981,207.256601 Z" id="Shape"></path>
        </g>
    </g>
</svg>