<?xml version="1.0" encoding="utf-8"?>
<!-- Generator: Adobe Illustrator 23.0.1, SVG Export Plug-In . SVG Version: 6.00 Build 0)  -->
<svg version="1.1" id="Layer_1" xmlns="http://www.w3.org/2000/svg" xmlns:xlink="http://www.w3.org/1999/xlink" x="0px" y="0px"
	 viewBox="0 0 512 512" style="enable-background:new 0 0 512 512;" xml:space="preserve">
<path d="M256,0.5C114.8,0.5,0.5,115.9,0.5,257.1c0,140.1,114.3,255.5,255.5,255.5s255.5-115.4,255.5-255.5
	C511.5,115.9,397.2,0.5,256,0.5z M143.9,313.2c0,2.2-3.4,4.5-5.6,4.5h-33.6c-2.2,0-4.5-2.2-4.5-4.5V189.9c0-2.2,2.2-4.5,4.5-4.5h121
	c2.2,0,4.5,2.2,4.5,4.5v33.6c0,2.2-2.2,4.5-4.5,4.5h-67.3c-7.9,0-12.4,7.9-12.4,15.7v69.5H143.9z M322.1,279.6v33.6
	c0,2.2-2.2,4.5-4.5,4.5H194.3c-2.2,0-4.5-2.2-4.5-4.5v-33.6c0-2.2,2.2-4.5,4.5-4.5h69.5c12.4,0,15.7-5.6,15.7-15.7v-69.5
	c0-2.2,2.2-4.5,4.5-4.5h33.6c2.2,0,4.5,2.2,4.5,4.5V279.6z M411.8,313.2c0,2.2-2.2,4.5-4.5,4.5h-31.3c-2.2,0-4.5-2.2-4.5-4.5v-33.6
	c0-2.2,2.2-4.5,4.5-4.5h31.3c2.2,0,4.5,2.2,4.5,4.5V313.2z M411.8,223.5c0,2.2-2.2,4.5-4.5,4.5h-31.3c-2.2,0-4.5-2.2-4.5-4.5v-33.6
	c0-2.2,2.2-4.5,4.5-4.5h31.3c2.2,0,4.5,2.2,4.5,4.5V223.5z"/>
</svg>
