<?xml version="1.0" encoding="utf-8"?>
<!-- Generator: Adobe Illustrator 23.0.1, SVG Export Plug-In . SVG Version: 6.00 Build 0)  -->
<svg version="1.1" id="Layer_1" xmlns="http://www.w3.org/2000/svg" xmlns:xlink="http://www.w3.org/1999/xlink" x="0px" y="0px"
	 viewBox="0 0 512 512" style="enable-background:new 0 0 512 512;" xml:space="preserve">
<path d="M499.6,90L494,74.3H18l-4.5,18C3.4,115.9,0,148.5,0,176.7c0,144,115.9,261.1,256.6,261.1S512,323,512,180
	C512,158.7,509.7,123.8,499.6,90z M144,214.9v67.5c0,2.3-3.4,4.5-5.6,4.5h-32.6c-3.4,2.3-7.9-2.3-7.9-4.5V162c0-3.4,2.3-5.6,4.5-5.6
	h123.8c2.3,0,4.5,2.3,4.5,5.6v32.6c2.3,3.4,0,5.6-4.5,5.6h-69.8C148.5,200.3,144,204.8,144,214.9z M323,250.9v33.8
	c0,2.3-2.3,4.5-5.6,4.5H194.7c-2.3,0-4.5-2.3-4.5-4.5v-33.8c0-2.3,2.3-4.5,4.5-4.5h66.4c13.5,0,15.8-5.6,15.8-15.8V162
	c0-3.4,2.3-5.6,5.6-5.6h32.6c2.3,0,5.6,2.3,5.6,5.6v88.9H323z M413,282.4c0,2.3-3.4,4.5-5.6,4.5H377c-2.3,0-5.6-2.3-5.6-4.5v-31.5
	c0-2.3,3.4-4.5,5.6-4.5h28.1c2.3,0,4.5,2.3,4.5,4.5v31.5H413z M413,192.4c0,5.6-3.4,7.9-7.9,7.9h-30.4c-3.4,0-5.6-2.3-5.6-5.6V162
	c0-3.4,2.3-5.6,5.6-5.6h30.4c2.3,0,4.5,2.3,4.5,5.6v30.4H413z"/>
</svg>
