<svg xmlns="http://www.w3.org/2000/svg" viewBox="0 0 512 512"><path d="M471 75l-5-14H43l-4 16c-9 21-12 50-12 75 0 128 103 232 228 232s227-102 227-229c0-19-2-50-11-80zM155 186v60c0 2-3 4-5 4h-29c-3 2-7-2-7-4V139c0-3 2-5 4-5h110c2 0 4 2 4 5v29c2 3 0 5-4 5h-62c-7 0-11 4-11 13zm159 32v30c0 2-2 4-5 4H200c-2 0-4-2-4-4v-30c0-2 2-4 4-4h59c12 0 14-5 14-14v-61c0-3 2-5 5-5h29c2 0 5 2 5 5v79zm80 28c0 2-3 4-5 4h-27c-2 0-5-2-5-4v-28c0-2 3-4 5-4h25c2 0 4 2 4 4v28zm0-80c0 5-3 7-7 7h-27c-3 0-5-2-5-5v-29c0-3 2-5 5-5h27c2 0 4 2 4 5v27z"/></svg>