<?xml version="1.0" encoding="utf-8"?>
<!-- Generator: Adobe Illustrator 23.0.1, SVG Export Plug-In . SVG Version: 6.00 Build 0)  -->
<svg version="1.1" id="Layer_1" xmlns="http://www.w3.org/2000/svg" xmlns:xlink="http://www.w3.org/1999/xlink" x="0px" y="0px"
	 viewBox="0 0 512 512" style="enable-background:new 0 0 512 512;" xml:space="preserve">
<path d="M512,77.6v25.5H408.9v331.3c0,44-32.4,77.6-76.5,77.6H77.6C33.6,512,0,478.4,0,434.4v-25.5h256c0,29,23.2,52.1,51,52.1
	s51-23.2,51-52.1V77.6H179.5c-15.1,0-25.5,9.3-25.5,25.5v254.8H77.6V77.6C77.6,33.6,110,0,154.1,0h280.3C478.4,0,512,33.6,512,77.6z
	 M332.5,207.3c2.3,2.3,2.3,82.2,0,84.6s-74.1,40.5-76.5,40.5s-74.1-40.5-76.5-40.5v-84.6c2.3-2.3,74.1-27.8,76.5-27.8
	S330.1,205,332.5,207.3z M256,238.6l63.7-23.2h-2.3h2.3L291.9,205L256,190l-63.7,25.5l27.8,10.4L256,238.6z M322,225.9l-57.9,22
	v69.5l17.4-10.4l40.5-20.9V225.9z"/>
</svg>
