<?xml version="1.0" encoding="utf-8"?>
<!-- Generator: Adobe Illustrator 23.0.1, SVG Export Plug-In . SVG Version: 6.00 Build 0)  -->
<svg version="1.1" id="Layer_1" xmlns="http://www.w3.org/2000/svg" xmlns:xlink="http://www.w3.org/1999/xlink" x="0px" y="0px"
	 viewBox="0 0 512 512" style="enable-background:new 0 0 512 512;" xml:space="preserve">
<path d="M510,400.9c-2.7,4-128.3,68.1-132.3,68.1c-4,0-120.2-57.4-120.2-57.4h-1.3h-2.7c0,0-114.9,57.4-120.2,57.4
	c-4,0-129.6-64.1-132.3-68.1c-1.3-5.3-1.3-126.9,0-133.6c2.7-4,116.2-53.4,116.2-53.4s1.3-106.9,4-110.9c4-4,128.3-60.1,132.3-60.1
	S381.7,99,385.8,103c4,4,6.7,110.9,6.7,110.9S506,266,510,270C512.7,274,512.7,395.6,510,400.9z M133.3,323.5l96.2-40.1L133.3,242
	l-96.2,41.4L133.3,323.5z M149.3,430.3l90.8-45.4v-74.8l-90.8,38.7V430.3z M256.2,163.2l104.2-45.4L256.2,73.6l-105.5,44.1
	L256.2,163.2z M270.9,252.7l92.2-38.7v-64.1l-92.2,38.7V252.7z M377.7,323.5l96.2-40.1L377.7,242l-96.2,41.4L377.7,323.5z
	 M392.4,430.3l92.2-45.4v-74.8l-92.2,38.7V430.3z"/>
</svg>
