<?xml version="1.0" encoding="utf-8"?>
<!-- Generator: Adobe Illustrator 23.0.1, SVG Export Plug-In . SVG Version: 6.00 Build 0)  -->
<svg version="1.1" id="Layer_1" xmlns="http://www.w3.org/2000/svg" xmlns:xlink="http://www.w3.org/1999/xlink" x="0px" y="0px"
	 viewBox="0 0 512 512" style="enable-background:new 0 0 512 512;" xml:space="preserve">
<path d="M330.1,433.5c0-13.3-10-26.5-25.4-26.5h-25.4v-45.3c47.6-25.4,158.1-86.3,160.3-89.6c2.2-4.4,2.2-201.3,0-203.5
	C437.4,66.3,258.2,0,256,0S78,66.3,72.4,70.8c-2.2,5.5-4.4,201.3,0,204.6c2.2,2.2,109.5,63,160.3,88.5v46.4h-25.4
	c-12.2,0-25.4,10-25.4,25.4H11.6v50.9h170.3c0,12.2,10,25.4,25.4,25.4h97.3c12.2,0,25.4-10,25.4-25.4h170.3v-50.9H330.1V433.5z
	 M416.3,259.9l-144.9,78.5V170.3l144.9-53.1V259.9z M97.9,86.3L256,27.6l158.1,58.6L256,142.7L97.9,86.3z"/>
</svg>
