<?xml version="1.0" encoding="utf-8"?>
<!-- Generator: Adobe Illustrator 23.0.1, SVG Export Plug-In . SVG Version: 6.00 Build 0)  -->
<svg version="1.1" id="Layer_1" xmlns="http://www.w3.org/2000/svg" xmlns:xlink="http://www.w3.org/1999/xlink" x="0px" y="0px"
	 viewBox="0 0 512 512" style="enable-background:new 0 0 512 512;" xml:space="preserve">
<path d="M461,436.6v-307H53.2v307H461 M461,25.5c28.2,0,51,23.9,51,51v360.1c0,27.1-22.8,49.9-51,49.9H53.2
	C22.8,486.5,0,463.7,0,436.6v-358c0-29.3,22.8-53.2,53.2-53.2H461 M205,207.7h155.1v23.9H205V207.7 M205,297.8V275h155.1v22.8H205
	 M170.3,203.4c9.8,0,16.3,6.5,16.3,16.3c0,8.7-6.5,16.3-16.3,16.3c-8.7,0-15.2-7.6-15.2-16.3C155.1,209.9,161.6,203.4,170.3,203.4
	 M170.3,270.6c9.8,0,16.3,6.5,16.3,16.3c0,8.7-6.5,15.2-16.3,15.2c-8.7,0-15.2-6.5-15.2-15.2C155.1,277.2,161.6,270.6,170.3,270.6
	 M205,365v-22.8h155.1V365H205 M170.3,336.8c9.8,0,16.3,7.6,16.3,16.3c0,9.8-6.5,16.3-16.3,16.3c-8.7,0-15.2-6.5-15.2-16.3
	C155.1,344.4,161.6,336.8,170.3,336.8z"/>
</svg>
