<svg xmlns="http://www.w3.org/2000/svg" viewBox="0 0 512 512"><path d="M433 265c5 21 11 43 17 64 1 5 1 10 3 15 1 0-2 6 0 6 16-24 28-56 35-86-14-15-34-14-52-18l-1 2c-1 1-1 2-2 2-4 6-2 10 0 15zm-79-16c-46 4-109 39-127 62 5 8 7 17 7 27 0 15-6 27-16 36 0 0 0 1-1 1 22 31 52 56 87 75 40-7 78-27 111-57 9-9 14-19 13-30-2-17-3-33-7-49-3-16-6-31-17-46-4 1-8 1-11 1-15 1-30-8-39-20zM185 388c-5 0-10-2-15-3-6 16-12 31-18 48 35 17 68 26 108 23-23-23-45-46-68-68h-7zm305-155v-30c-4-81-61-174-162-205-10-3-18-4-26 2-17 12-33 22-48 34-12 10-24 23-34 38 7 6 12 15 13 25 56 12 105 41 145 81 5-3 11-4 17-4 25 0 44 19 48 41 1 3 1 4 2 7 14 3 28 7 45 11zm-337 67c-14-52-14-105 2-157-7-6-13-15-16-24-36 5-68 16-100 35-6 4-10 10-11 18-5 28-9 57-4 87 10 65 43 116 95 155 3 2 8 4 11 5 7-16 13-30 19-46-9-9-14-22-14-35-1-15 7-29 18-38zm202-107c-21-31-98-74-123-70-2 1-3 2-4 4-9 15-24 25-43 25h-3c-2 0-3 1-5 1-13 45-15 90-2 135 3 0 7-2 9-2 8 0 15 3 23 5h1c39-36 86-58 139-69v-2c0-8 3-18 8-27zM185 57c4 0 8 0 12 1 11-13 21-24 32-35s24-21 38-33c-15-5-28-2-40-1C149-1 91 39 52 107c-1 2-1 6-3 8 30-8 58-17 90-26 6-19 25-32 46-32z"/></svg>