<?xml version="1.0" encoding="utf-8"?>
<!-- Generator: Adobe Illustrator 23.0.1, SVG Export Plug-In . SVG Version: 6.00 Build 0)  -->
<svg version="1.1" id="Layer_1" xmlns="http://www.w3.org/2000/svg" xmlns:xlink="http://www.w3.org/1999/xlink" x="0px" y="0px"
	 viewBox="0 0 512 512" style="enable-background:new 0 0 512 512;" xml:space="preserve">
<path d="M345.4,38.9v204.4H86.6l-10,10l-38.9,38.9V38.9H345.4 M357.6,0H25.5C10,0,0,10,0,25.5v358.7l102.2-102.2h255.4
	c15.5,0,26.7-10,26.7-25.5v-231C384.3,10,373.2,0,357.6,0z M486.5,102.2h-51.1v231H102.2v51.1c0,15.5,10,25.5,25.5,25.5h282.1
	L512,512V127.7C512,113.3,502,102.2,486.5,102.2z"/>
</svg>
