<?xml version="1.0" encoding="utf-8"?>
<!-- Generator: Adobe Illustrator 23.0.1, SVG Export Plug-In . SVG Version: 6.00 Build 0)  -->
<svg version="1.1" id="Layer_1" xmlns="http://www.w3.org/2000/svg" xmlns:xlink="http://www.w3.org/1999/xlink" x="0px" y="0px"
	 viewBox="0 0 512 512" style="enable-background:new 0 0 512 512;" xml:space="preserve">
<path d="M449.2,303c5.5,22.9,12,46.9,18.5,69.8c1.1,5.5,1.1,10.9,3.3,16.4c1.1,0-2.2,6.5,0,6.5c17.5-26.2,30.5-61.1,38.2-93.8
	c-15.3-16.4-37.1-15.3-56.7-19.6l-1.1,2.2c-1.1,1.1-1.1,2.2-2.2,2.2C444.9,293.2,447.1,297.6,449.2,303z M363.1,285.6
	c-50.2,4.4-118.9,42.5-138.5,67.6c5.5,8.7,7.6,18.5,7.6,29.5c0,16.4-6.5,29.5-17.5,39.3c0,0,0,1.1-1.1,1.1
	c24,33.8,56.7,61.1,94.9,81.8c43.6-7.6,85.1-29.5,121.1-62.2c9.8-9.8,15.3-20.7,14.2-32.7c-2.2-18.5-3.3-36-7.6-53.4
	c-3.3-17.5-6.5-33.8-18.5-50.2c-4.4,1.1-8.7,1.1-12,1.1C389.2,308.5,372.9,298.7,363.1,285.6z M178.7,437.2
	c-5.5,0-10.9-2.2-16.4-3.3c-6.5,17.5-13.1,33.8-19.6,52.4c38.2,18.5,74.2,28.4,117.8,25.1c-25.1-25.1-49.1-50.2-74.2-74.2H178.7z
	 M511.4,268.1v-32.7C507,147,444.9,45.6,334.7,11.8c-10.9-3.3-19.6-4.4-28.4,2.2c-18.5,13.1-36,24-52.4,37.1
	c-13.1,10.9-26.2,25.1-37.1,41.5c7.6,6.5,13.1,16.4,14.2,27.3c61.1,13.1,114.5,44.7,158.2,88.4c5.5-3.3,12-4.4,18.5-4.4
	c27.3,0,48,20.7,52.4,44.7c1.1,3.3,1.1,4.4,2.2,7.6C477.6,259.4,492.9,263.8,511.4,268.1z M143.8,341.2
	c-15.3-56.7-15.3-114.5,2.2-171.3c-7.6-6.5-14.2-16.4-17.5-26.2c-39.3,5.5-74.2,17.5-109.1,38.2c-6.5,4.4-10.9,10.9-12,19.6
	c-5.5,30.5-9.8,62.2-4.4,94.9C14,367.4,50,423,106.7,465.6c3.3,2.2,8.7,4.4,12,5.5c7.6-17.5,14.2-32.7,20.7-50.2
	c-9.8-9.8-15.3-24-15.3-38.2C123.1,366.3,131.8,351,143.8,341.2z M364.2,224.5c-22.9-33.8-106.9-80.7-134.2-76.4
	c-2.2,1.1-3.3,2.2-4.4,4.4c-9.8,16.4-26.2,27.3-46.9,27.3h-3.3c-2.2,0-3.3,1.1-5.5,1.1c-14.2,49.1-16.4,98.2-2.2,147.3
	c3.3,0,7.6-2.2,9.8-2.2c8.7,0,16.4,3.3,25.1,5.5h1.1c42.5-39.3,93.8-63.3,151.6-75.3v-2.2C355.4,245.2,358.7,234.3,364.2,224.5z
	 M178.7,76.1c4.4,0,8.7,0,13.1,1.1c12-14.2,22.9-26.2,34.9-38.2c12-12,26.2-22.9,41.5-36c-16.4-5.5-30.5-2.2-43.6-1.1
	C139.4,12.9,76.2,56.5,33.6,130.7c-1.1,2.2-1.1,6.5-3.3,8.7c32.7-8.7,63.3-18.5,98.2-28.4C135.1,90.3,155.8,76.1,178.7,76.1z"/>
</svg>
