<?xml version="1.0" encoding="utf-8"?>
<!-- Generator: Adobe Illustrator 23.0.1, SVG Export Plug-In . SVG Version: 6.00 Build 0)  -->
<svg version="1.1" id="Layer_1" xmlns="http://www.w3.org/2000/svg" xmlns:xlink="http://www.w3.org/1999/xlink" x="0px" y="0px"
	 viewBox="0 0 512 512" style="enable-background:new 0 0 512 512;" xml:space="preserve">
<path d="M256.9,46.7c3.3,0,199.2,73.5,201.5,79c3.3,5.6,3.3,222.6,0,228.2c-2.2,5.6-198.1,111.3-203.7,111.3
	c-6.7,0-201.5-108-204.8-111.3c-3.3-5.6-3.3-222.6,0-228.2C58.8,120.2,251.4,46.7,256.9,46.7 M256.9,208.1l175.9-64.6L256.9,79
	L82.2,143.6L256.9,208.1 M271.4,424.1l161.4-87.9V175.9l-161.4,57.9V424.1 M256.9,0c-8.9,0-11.1,0-116.9,41.2
	C29.9,84.6,26.5,84.6,17.6,100.2C6.5,111.3,3.2,114.6,3.2,240.4c0,122.4,0,124.7,8.9,136.9C21,388.5,21,391.8,131.2,453
	c109.1,59,111.3,59,125.8,59s17.8,0,125.8-59C494,391.8,494,391.8,502.9,377.3c8.9-12.2,8.9-14.5,8.9-136.9
	c0-125.8-3.3-125.8-12.2-140.2c-8.9-15.6-11.1-15.6-122.4-59C269.2,0,265.8,0,256.9,0z"/>
</svg>
