<?xml version="1.0" encoding="utf-8"?>
<!-- Generator: Adobe Illustrator 23.0.1, SVG Export Plug-In . SVG Version: 6.00 Build 0)  -->
<svg version="1.1" id="Layer_1" xmlns="http://www.w3.org/2000/svg" xmlns:xlink="http://www.w3.org/1999/xlink" x="0px" y="0px"
	 viewBox="0 0 512 512" style="enable-background:new 0 0 512 512;" xml:space="preserve">
<path d="M124.8,284.3L245,153.7l25.4,171.1l76.3-127.1l56.6,86.7h63.6c30-41.6,45.1-79.7,45.1-122.5c0-79.7-60.1-141-139.8-141
	c-42.8,0-86.7,20.8-114.4,54.3C230,43.9,186.1,24.3,139.8,24.3C61.3,24.3,0,85.5,0,164.1c0,40.5,17.3,82.1,46.2,120.2H124.8z
	 M384.9,314.4l-38.1-61.3L252,411.4l-27.7-190.7l-86.7,93.6H71.7c38.1,43.9,86.7,89,147.9,143.3l38.1,33.5l35.8-33.5
	c57.8-54.3,109.8-99.4,147.9-143.3H384.9z"/>
</svg>
