<?xml version="1.0" encoding="utf-8"?>
<!-- Generator: Adobe Illustrator 23.0.1, SVG Export Plug-In . SVG Version: 6.00 Build 0)  -->
<svg version="1.1" id="Layer_1" xmlns="http://www.w3.org/2000/svg" xmlns:xlink="http://www.w3.org/1999/xlink" x="0px" y="0px"
	 viewBox="0 0 512 512" style="enable-background:new 0 0 512 512;" xml:space="preserve">
<path d="M273.8,339.5h65.7v-66.8h-65.7V339.5z M289.4,289.4h36.7v36.7h-36.7V289.4z M231.5,130.2h-53.4V76.8h53.4V130.2z M273.8,443
	h65.7v-66.8h-65.7V443z M289.4,391.8h36.7v37.8h-36.7V391.8z M170.3,443h66.8v-66.8h-66.8V443z M185.9,391.8h37.8v37.8h-37.8V391.8z
	 M335,230.4h-53.4v-52.3H335V230.4z M231.5,230.4h-53.4v-52.3h53.4V230.4z M231.5,333.9h-53.4v-53.4h53.4V333.9z M335,130.2h-53.4
	V76.8H335V130.2z M377.3,0H95.7v512h320.6V0H377.3z M135.8,471.9V40.1h241.5v431.9H135.8z"/>
</svg>
